SplineFontDB: 3.0
FontName: Orbitron-Medium
FullName: Orbitron Medium
FamilyName: Orbitron
Weight: Medium
Copyright: Copyright (c) 2009, Matt McInerney <matt@pixelspread.com>
Version: 001.001
ItalicAngle: 0
UnderlinePosition: -50
UnderlineWidth: 50
Ascent: 750
Descent: 250
sfntRevision: 0x00010000
LayerCount: 2
Layer: 0 1 "Back"  1
Layer: 1 1 "Fore"  0
XUID: [1021 496 529952750 6980005]
FSType: 0
OS2Version: 2
OS2_WeightWidthSlopeOnly: 0
OS2_UseTypoMetrics: 1
CreationTime: 1259834326
ModificationTime: 1291728189
PfmFamily: 17
TTFWeight: 500
TTFWidth: 5
LineGap: 0
VLineGap: 0
Panose: 2 0 0 0 0 0 0 0 0 0
OS2TypoAscent: 0
OS2TypoAOffset: 1
OS2TypoDescent: 0
OS2TypoDOffset: 1
OS2TypoLinegap: 0
OS2WinAscent: 0
OS2WinAOffset: 1
OS2WinDescent: 0
OS2WinDOffset: 1
HheadAscent: -239
HheadAOffset: 1
HheadDescent: -20
HheadDOffset: 1
OS2SubXSize: 700
OS2SubYSize: 650
OS2SubXOff: 0
OS2SubYOff: 140
OS2SupXSize: 700
OS2SupYSize: 650
OS2SupXOff: 0
OS2SupYOff: 477
OS2StrikeYSize: 50
OS2StrikeYPos: 250
OS2Vendor: 'pyrs'
OS2CodePages: 00000001.00000000
OS2UnicodeRanges: 80000027.10000042.00000000.00000000
Lookup: 1 0 0 "'aalt' Access All Alternates in Latin lookup 0"  {"'aalt' Access All Alternates in Latin lookup 0 subtable"  } ['aalt' ('latn' <'dflt' > ) ]
Lookup: 3 0 0 "'aalt' Access All Alternates in Latin lookup 1"  {"'aalt' Access All Alternates in Latin lookup 1 subtable"  } ['aalt' ('latn' <'dflt' > ) ]
Lookup: 1 0 0 "'salt' Stylistic Alternatives in Latin lookup 2"  {"'salt' Stylistic Alternatives in Latin lookup 2 subtable"  } ['salt' ('latn' <'dflt' > ) ]
Lookup: 1 0 0 "'smcp' Lowercase to Small Capitals in Latin lookup 3"  {"'smcp' Lowercase to Small Capitals in Latin lookup 3 subtable"  } ['smcp' ('latn' <'dflt' > ) ]
Lookup: 1 0 0 "'ss01' Style Set 1 in Latin lookup 4"  {"'ss01' Style Set 1 in Latin lookup 4 subtable"  } ['ss01' ('latn' <'dflt' > ) ]

StartChar: A.alt3
Encoding: 65539 -1 4
Width: 827
Flags: MW
HStem: 0 21G<-28 97 -28 -28 727 851 727 727> 175 108<260 563 260 625 198 563> 700 20G<358 466 466 466>
LayerCount: 2
Fore
SplineSet
851 0 m 1,0,-1
 727 0 l 1,1,-1
 625 175 l 1,2,-1
 198 175 l 1,3,-1
 97 0 l 1,4,-1
 -28 0 l 1,5,-1
 358 720 l 1,6,-1
 466 720 l 1,7,-1
 851 0 l 1,0,-1
412 597 m 1,8,-1
 260 283 l 1,9,-1
 563 283 l 1,10,-1
 412 597 l 1,8,-1
EndSplineSet
EndChar

StartChar: AE
Encoding: 198 198 5
Width: 1375
Flags: MW
HStem: 0 108<774 1326 774 1326> 252 108<162 666 162 666> 306 108<774 1218 774 1218> 612 108<178 1326 184 644 774 774 774 1326>
VStem: 54 108<0 252 360 590> 666 108<108 252 252 252 414 590 590 596>
LayerCount: 2
Fore
SplineSet
774 612 m 1,0,-1
 774 414 l 1,1,-1
 1218 414 l 1,2,-1
 1218 306 l 1,3,-1
 774 306 l 1,4,-1
 774 108 l 1,5,-1
 1326 108 l 1,6,-1
 1326 0 l 1,7,-1
 666 0 l 1,8,-1
 666 252 l 1,9,-1
 162 252 l 1,10,-1
 162 0 l 1,11,-1
 54 0 l 1,12,-1
 54 590 l 2,13,14
 54 644 54 644 92 682 c 128,-1,15
 130 720 130 720 184 720 c 2,16,-1
 1326 720 l 1,17,-1
 1326 612 l 1,18,-1
 774 612 l 1,0,-1
666 360 m 1,19,-1
 666 590 l 2,20,21
 666 599 666 599 659.5 605.5 c 128,-1,22
 653 612 653 612 644 612 c 2,23,-1
 184 612 l 2,24,25
 175 612 175 612 168.5 605.5 c 128,-1,26
 162 599 162 599 162 590 c 2,27,-1
 162 360 l 1,28,-1
 666 360 l 1,19,-1
EndSplineSet
EndChar

StartChar: Aacute
Encoding: 193 193 6
Width: 836
Flags: MW
HStem: 0 21G<58 166 58 58 670 778 670 670> 252 108<166 670 166 670> 612 108<182 648 188 648> 819 162<344 492 384 452>
VStem: 58 108<0 252 360 590> 670 108<0 252 252 252 360 590 0 596>
LayerCount: 2
Fore
SplineSet
188 720 m 2,0,-1
 648 720 l 2,1,2
 702 720 702 720 740 682 c 128,-1,3
 778 644 778 644 778 590 c 2,4,-1
 778 0 l 1,5,-1
 670 0 l 1,6,-1
 670 252 l 1,7,-1
 166 252 l 1,8,-1
 166 0 l 1,9,-1
 58 0 l 1,10,-1
 58 590 l 2,11,12
 58 644 58 644 96 682 c 128,-1,13
 134 720 134 720 188 720 c 2,0,-1
166 360 m 1,14,-1
 670 360 l 1,15,-1
 670 590 l 2,16,17
 670 599 670 599 663.5 605.5 c 128,-1,18
 657 612 657 612 648 612 c 2,19,-1
 188 612 l 2,20,21
 179 612 179 612 172.5 605.5 c 128,-1,22
 166 599 166 599 166 590 c 2,23,-1
 166 360 l 1,14,-1
344 819 m 1,24,-1
 384 981 l 1,25,-1
 492 981 l 1,26,-1
 452 819 l 1,27,-1
 344 819 l 1,24,-1
EndSplineSet
EndChar

StartChar: Acircumflex
Encoding: 194 194 7
Width: 836
Flags: MW
HStem: 0 21G<58 166 58 58 670 778 670 670> 252 108<166 670 166 670> 612 108<182 648 188 648> 819 21G<296 370 296 296 465 465 465 540> 940 20G<381 455 455 455>
VStem: 58 108<0 252 360 590> 670 108<0 252 252 252 360 590 0 596>
LayerCount: 2
Fore
SplineSet
188 720 m 2,0,-1
 648 720 l 2,1,2
 702 720 702 720 740 682 c 128,-1,3
 778 644 778 644 778 590 c 2,4,-1
 778 0 l 1,5,-1
 670 0 l 1,6,-1
 670 252 l 1,7,-1
 166 252 l 1,8,-1
 166 0 l 1,9,-1
 58 0 l 1,10,-1
 58 590 l 2,11,12
 58 644 58 644 96 682 c 128,-1,13
 134 720 134 720 188 720 c 2,0,-1
166 360 m 1,14,-1
 670 360 l 1,15,-1
 670 590 l 2,16,17
 670 599 670 599 663.5 605.5 c 128,-1,18
 657 612 657 612 648 612 c 2,19,-1
 188 612 l 2,20,21
 179 612 179 612 172.5 605.5 c 128,-1,22
 166 599 166 599 166 590 c 2,23,-1
 166 360 l 1,14,-1
370 819 m 1,24,-1
 296 819 l 1,25,-1
 381 960 l 1,26,-1
 455 960 l 1,27,-1
 540 819 l 1,28,-1
 465 819 l 1,29,-1
 418 895 l 1,30,-1
 370 819 l 1,24,-1
EndSplineSet
EndChar

StartChar: Adieresis
Encoding: 196 196 8
Width: 836
Flags: MW
HStem: 0 21G<58 166 58 58 670 778 670 670> 252 108<166 670 166 670> 612 108<182 648 188 648> 810 108<279 387 279 387 449 557 279 449>
VStem: 58 108<0 252 360 590> 279 108<810 918 810 918> 449 108<810 918 810 918> 670 108<0 252 252 252 360 590 0 596>
LayerCount: 2
Fore
SplineSet
188 720 m 2,0,-1
 648 720 l 2,1,2
 702 720 702 720 740 682 c 128,-1,3
 778 644 778 644 778 590 c 2,4,-1
 778 0 l 1,5,-1
 670 0 l 1,6,-1
 670 252 l 1,7,-1
 166 252 l 1,8,-1
 166 0 l 1,9,-1
 58 0 l 1,10,-1
 58 590 l 2,11,12
 58 644 58 644 96 682 c 128,-1,13
 134 720 134 720 188 720 c 2,0,-1
166 360 m 1,14,-1
 670 360 l 1,15,-1
 670 590 l 2,16,17
 670 599 670 599 663.5 605.5 c 128,-1,18
 657 612 657 612 648 612 c 2,19,-1
 188 612 l 2,20,21
 179 612 179 612 172.5 605.5 c 128,-1,22
 166 599 166 599 166 590 c 2,23,-1
 166 360 l 1,14,-1
557 918 m 1,24,-1
 557 810 l 1,25,-1
 449 810 l 1,26,-1
 449 918 l 1,27,-1
 557 918 l 1,24,-1
387 918 m 1,28,-1
 387 810 l 1,29,-1
 279 810 l 1,30,-1
 279 918 l 1,31,-1
 387 918 l 1,28,-1
EndSplineSet
EndChar

StartChar: Agrave
Encoding: 192 192 9
Width: 836
Flags: MW
HStem: 0 21G<58 166 58 58 670 778 670 670> 252 108<166 670 166 670> 612 108<182 648 188 648> 820 162<384 452 344 492 384 384>
VStem: 58 108<0 252 360 590> 670 108<0 252 252 252 360 590 0 596>
LayerCount: 2
Fore
SplineSet
188 720 m 2,0,-1
 648 720 l 2,1,2
 702 720 702 720 740 682 c 128,-1,3
 778 644 778 644 778 590 c 2,4,-1
 778 0 l 1,5,-1
 670 0 l 1,6,-1
 670 252 l 1,7,-1
 166 252 l 1,8,-1
 166 0 l 1,9,-1
 58 0 l 1,10,-1
 58 590 l 2,11,12
 58 644 58 644 96 682 c 128,-1,13
 134 720 134 720 188 720 c 2,0,-1
166 360 m 1,14,-1
 670 360 l 1,15,-1
 670 590 l 2,16,17
 670 599 670 599 663.5 605.5 c 128,-1,18
 657 612 657 612 648 612 c 2,19,-1
 188 612 l 2,20,21
 179 612 179 612 172.5 605.5 c 128,-1,22
 166 599 166 599 166 590 c 2,23,-1
 166 360 l 1,14,-1
452 982 m 1,24,-1
 492 820 l 1,25,-1
 384 820 l 1,26,-1
 344 982 l 1,27,-1
 452 982 l 1,24,-1
EndSplineSet
EndChar

StartChar: Aring
Encoding: 197 197 10
Width: 836
Flags: MW
HStem: 0 21G<58 166 58 58 670 778 670 670> 252 108<166 670 166 670> 612 108<182 648 188 648> 821 40<385 390 390 446> 941 40<382.5 446 390 446 446 451>
VStem: 58 108<0 252 360 590> 336 40<874 928 928 931> 460 40<871 874 874 928> 670 108<0 252 252 252 360 590 0 596>
LayerCount: 2
Fore
SplineSet
188 720 m 2,0,-1
 648 720 l 2,1,2
 702 720 702 720 740 682 c 128,-1,3
 778 644 778 644 778 590 c 2,4,-1
 778 0 l 1,5,-1
 670 0 l 1,6,-1
 670 252 l 1,7,-1
 166 252 l 1,8,-1
 166 0 l 1,9,-1
 58 0 l 1,10,-1
 58 590 l 2,11,12
 58 644 58 644 96 682 c 128,-1,13
 134 720 134 720 188 720 c 2,0,-1
166 360 m 1,14,-1
 670 360 l 1,15,-1
 670 590 l 2,16,17
 670 599 670 599 663.5 605.5 c 128,-1,18
 657 612 657 612 648 612 c 2,19,-1
 188 612 l 2,20,21
 179 612 179 612 172.5 605.5 c 128,-1,22
 166 599 166 599 166 590 c 2,23,-1
 166 360 l 1,14,-1
390 981 m 2,24,-1
 446 981 l 2,25,26
 468 981 468 981 484 965.5 c 128,-1,27
 500 950 500 950 500 928 c 2,28,-1
 500 874 l 2,29,30
 500 852 500 852 484 836.5 c 128,-1,31
 468 821 468 821 446 821 c 2,32,-1
 390 821 l 2,33,34
 368 821 368 821 352 836.5 c 128,-1,35
 336 852 336 852 336 874 c 2,36,-1
 336 928 l 2,37,38
 336 950 336 950 352 965.5 c 128,-1,39
 368 981 368 981 390 981 c 2,24,-1
385 861 m 2,40,-1
 451 861 l 2,41,42
 460 861 460 861 460 871 c 2,43,-1
 460 931 l 2,44,45
 460 941 460 941 451 941 c 2,46,-1
 385 941 l 2,47,48
 376 941 376 941 376 931 c 2,49,-1
 376 871 l 2,50,51
 376 861 376 861 385 861 c 2,40,-1
EndSplineSet
EndChar

StartChar: Atilde
Encoding: 195 195 11
Width: 836
Flags: MW
HStem: 0 21G<58 166 58 58 670 778 670 670> 252 108<166 670 166 670> 612 108<182 648 188 648> 824 134<301 531.5> 892 66<305 353 301 354>
VStem: 58 108<0 252 360 590> 670 108<0 252 252 252 360 590 0 596>
LayerCount: 2
Fore
SplineSet
188 720 m 2,0,-1
 648 720 l 2,1,2
 702 720 702 720 740 682 c 128,-1,3
 778 644 778 644 778 590 c 2,4,-1
 778 0 l 1,5,-1
 670 0 l 1,6,-1
 670 252 l 1,7,-1
 166 252 l 1,8,-1
 166 0 l 1,9,-1
 58 0 l 1,10,-1
 58 590 l 2,11,12
 58 644 58 644 96 682 c 128,-1,13
 134 720 134 720 188 720 c 2,0,-1
166 360 m 1,14,-1
 670 360 l 1,15,-1
 670 590 l 2,16,17
 670 599 670 599 663.5 605.5 c 128,-1,18
 657 612 657 612 648 612 c 2,19,-1
 188 612 l 2,20,21
 179 612 179 612 172.5 605.5 c 128,-1,22
 166 599 166 599 166 590 c 2,23,-1
 166 360 l 1,14,-1
516 890 m 1,24,25
 555 890 555 890 594 916 c 1,26,-1
 594 842 l 1,27,28
 552 824 552 824 516 824 c 0,29,30
 481 824 481 824 418 858 c 128,-1,31
 355 892 355 892 316 892 c 0,32,33
 256 892 256 892 242 869 c 1,34,-1
 242 944 l 1,35,36
 275 958 275 958 316 958 c 0,37,38
 355 958 355 958 418.5 926 c 128,-1,39
 482 894 482 894 516 890 c 1,24,25
EndSplineSet
EndChar

StartChar: B
Encoding: 66 66 12
Width: 832
Flags: MW
HStem: 0 108<189 649 189 649> 313 108<183 619 189 619 619 625 189 649> 612 108<183 189 189 619>
VStem: 59 108<124 130 130 291 437 443 443 590> 641 108<443 590> 671 108<130 291>
LayerCount: 2
Fore
SplineSet
736 387 m 1,0,1
 779 349 779 349 779 291 c 2,2,-1
 779 130 l 2,3,4
 779 76 779 76 741 38 c 128,-1,5
 703 0 703 0 649 0 c 2,6,-1
 59 0 l 1,7,-1
 59 720 l 1,8,-1
 619 720 l 2,9,10
 673 720 673 720 711 682 c 128,-1,11
 749 644 749 644 749 590 c 2,12,-1
 749 443 l 2,13,14
 749 415 749 415 736 387 c 1,0,1
619 612 m 2,15,-1
 189 612 l 2,16,17
 180 612 180 612 173.5 605.5 c 128,-1,18
 167 599 167 599 167 590 c 2,19,-1
 167 443 l 2,20,21
 167 434 167 434 173.5 427.5 c 128,-1,22
 180 421 180 421 189 421 c 2,23,-1
 619 421 l 2,24,25
 628 421 628 421 634.5 427.5 c 128,-1,26
 641 434 641 434 641 443 c 2,27,-1
 641 590 l 2,28,29
 641 599 641 599 634.5 605.5 c 128,-1,30
 628 612 628 612 619 612 c 2,15,-1
671 130 m 2,31,-1
 671 291 l 2,32,33
 671 300 671 300 664.5 306.5 c 128,-1,34
 658 313 658 313 649 313 c 2,35,-1
 189 313 l 2,36,37
 180 313 180 313 173.5 306.5 c 128,-1,38
 167 300 167 300 167 291 c 2,39,-1
 167 130 l 2,40,41
 167 121 167 121 173.5 114.5 c 128,-1,42
 180 108 180 108 189 108 c 2,43,-1
 649 108 l 2,44,45
 658 108 658 108 664.5 114.5 c 128,-1,46
 671 121 671 121 671 130 c 2,31,-1
EndSplineSet
EndChar

StartChar: C
Encoding: 67 67 13
Width: 822
Flags: MW
HStem: 0 108<150 774 186 774> 612 108<180 774 186 774>
VStem: 56 108<130 590>
LayerCount: 2
Fore
SplineSet
774 612 m 1,0,-1
 186 612 l 2,1,2
 177 612 177 612 170.5 605.5 c 128,-1,3
 164 599 164 599 164 590 c 2,4,-1
 164 130 l 2,5,6
 164 121 164 121 170.5 114.5 c 128,-1,7
 177 108 177 108 186 108 c 2,8,-1
 774 108 l 1,9,-1
 774 0 l 1,10,-1
 186 0 l 2,11,12
 132 0 132 0 94 38 c 128,-1,13
 56 76 56 76 56 130 c 2,14,-1
 56 590 l 2,15,16
 56 644 56 644 94 682 c 128,-1,17
 132 720 132 720 186 720 c 2,18,-1
 774 720 l 1,19,-1
 774 612 l 1,0,-1
EndSplineSet
Substitution2: "'salt' Stylistic Alternatives in Latin lookup 2 subtable" C.alt
Substitution2: "'aalt' Access All Alternates in Latin lookup 0 subtable" C.alt
EndChar

StartChar: C.alt
Encoding: 65540 -1 14
Width: 822
Flags: MW
HStem: 0 108<146 665 182 642> 0 216<182 770> 504 216<665 674 182 773 665 665> 612 108<176 642 182 642 642 665>
VStem: 52 108<130 590> 665 105<108 216 108 216>
LayerCount: 2
Fore
SplineSet
773 612 m 1,0,-1
 773 504 l 1,1,-1
 665 504 l 1,2,-1
 665 612 l 1,3,-1
 182 612 l 2,4,5
 173 612 173 612 166.5 605.5 c 128,-1,6
 160 599 160 599 160 590 c 2,7,-1
 160 130 l 2,8,9
 160 121 160 121 166.5 114.5 c 128,-1,10
 173 108 173 108 182 108 c 2,11,-1
 665 108 l 1,12,-1
 665 216 l 1,13,-1
 770 216 l 1,14,-1
 770 108 l 1,15,16
 762 62 762 62 726 31 c 128,-1,17
 690 0 690 0 642 0 c 2,18,-1
 182 0 l 2,19,20
 128 0 128 0 90 38 c 128,-1,21
 52 76 52 76 52 130 c 2,22,-1
 52 590 l 2,23,24
 52 644 52 644 90 682 c 128,-1,25
 128 720 128 720 182 720 c 2,26,-1
 642 720 l 2,27,28
 690 720 690 720 726 689 c 128,-1,29
 762 658 762 658 770 612 c 1,30,-1
 773 612 l 1,0,-1
EndSplineSet
EndChar

StartChar: A.alt
Encoding: 57355 57355 15
Width: 774
Flags: MW
HStem: 0 21G<0 0 0 128 612 612 612 720> 192 108<380 612 380 612 289 612> 700 20G<592 720 720 720>
VStem: 612 108<0 192 192 192 300 576 576 576>
LayerCount: 2
Fore
SplineSet
0 0 m 1,0,-1
 0 15 l 1,1,-1
 592 720 l 1,2,-1
 720 720 l 1,3,-1
 720 0 l 1,4,-1
 612 0 l 1,5,-1
 612 192 l 1,6,-1
 289 192 l 1,7,-1
 128 0 l 1,8,-1
 0 0 l 1,0,-1
612 576 m 1,9,-1
 380 300 l 1,10,-1
 612 300 l 1,11,-1
 612 576 l 1,9,-1
EndSplineSet
EndChar

StartChar: Ccedilla
Encoding: 199 199 16
Width: 822
Flags: MW
HStem: -162 21G<337 445 337 337> 0 108<150 774 186 377 485 774 485 485> 612 108<180 774 186 774>
VStem: 56 108<130 590>
LayerCount: 2
Fore
SplineSet
774 612 m 1,0,-1
 186 612 l 2,1,2
 177 612 177 612 170.5 605.5 c 128,-1,3
 164 599 164 599 164 590 c 2,4,-1
 164 130 l 2,5,6
 164 121 164 121 170.5 114.5 c 128,-1,7
 177 108 177 108 186 108 c 2,8,-1
 774 108 l 1,9,-1
 774 0 l 1,10,-1
 485 0 l 1,11,-1
 445 -162 l 1,12,-1
 337 -162 l 1,13,-1
 377 0 l 1,14,-1
 186 0 l 2,15,16
 132 0 132 0 94 38 c 128,-1,17
 56 76 56 76 56 130 c 2,18,-1
 56 590 l 2,19,20
 56 644 56 644 94 682 c 128,-1,21
 132 720 132 720 186 720 c 2,22,-1
 774 720 l 1,23,-1
 774 612 l 1,0,-1
EndSplineSet
EndChar

StartChar: D
Encoding: 68 68 17
Width: 834
Flags: MW
HStem: 0 108<188 648 188 648> 612 108<182 188 188 648>
VStem: 58 108<124 130 130 590> 670 108<130 590>
LayerCount: 2
Fore
SplineSet
58 720 m 1,0,-1
 648 720 l 2,1,2
 702 720 702 720 740 682 c 128,-1,3
 778 644 778 644 778 590 c 2,4,-1
 778 130 l 2,5,6
 778 76 778 76 740 38 c 128,-1,7
 702 0 702 0 648 0 c 2,8,-1
 58 0 l 1,9,-1
 58 720 l 1,0,-1
670 130 m 2,10,-1
 670 590 l 2,11,12
 670 599 670 599 663.5 605.5 c 128,-1,13
 657 612 657 612 648 612 c 2,14,-1
 188 612 l 2,15,16
 179 612 179 612 172.5 605.5 c 128,-1,17
 166 599 166 599 166 590 c 2,18,-1
 166 130 l 2,19,20
 166 121 166 121 172.5 114.5 c 128,-1,21
 179 108 179 108 188 108 c 2,22,-1
 648 108 l 2,23,24
 657 108 657 108 663.5 114.5 c 128,-1,25
 670 121 670 121 670 130 c 2,10,-1
EndSplineSet
EndChar

StartChar: E
Encoding: 69 69 18
Width: 766
Flags: MW
HStem: 0 108<166 718 166 718> 306 108<166 610 166 610> 612 108<166 718 166 166>
VStem: 58 108<108 306 414 612>
CounterMasks: 1 e0
LayerCount: 2
Fore
SplineSet
718 720 m 1,0,-1
 718 612 l 1,1,-1
 166 612 l 1,2,-1
 166 414 l 1,3,-1
 610 414 l 1,4,-1
 610 306 l 1,5,-1
 166 306 l 1,6,-1
 166 108 l 1,7,-1
 718 108 l 1,8,-1
 718 0 l 1,9,-1
 58 0 l 1,10,-1
 58 720 l 1,11,-1
 718 720 l 1,0,-1
EndSplineSet
EndChar

StartChar: Eacute
Encoding: 201 201 19
Width: 766
Flags: MW
HStem: 0 108<166 718 166 718> 306 108<166 610 166 610> 612 108<166 718 166 166> 820 162<309 457 349 417>
VStem: 58 108<108 306 414 612>
LayerCount: 2
Fore
SplineSet
718 720 m 1,0,-1
 718 612 l 1,1,-1
 166 612 l 1,2,-1
 166 414 l 1,3,-1
 610 414 l 1,4,-1
 610 306 l 1,5,-1
 166 306 l 1,6,-1
 166 108 l 1,7,-1
 718 108 l 1,8,-1
 718 0 l 1,9,-1
 58 0 l 1,10,-1
 58 720 l 1,11,-1
 718 720 l 1,0,-1
309 820 m 1,12,-1
 349 982 l 1,13,-1
 457 982 l 1,14,-1
 417 820 l 1,15,-1
 309 820 l 1,12,-1
EndSplineSet
EndChar

StartChar: Ecircumflex
Encoding: 202 202 20
Width: 766
Flags: MW
HStem: 0 108<166 718 166 718> 306 108<166 610 166 610> 612 108<166 718 166 166> 819 21G<261 335 261 261 430 430 430 505> 940 20G<346 420 420 420>
VStem: 58 108<108 306 414 612>
LayerCount: 2
Fore
SplineSet
718 720 m 1,0,-1
 718 612 l 1,1,-1
 166 612 l 1,2,-1
 166 414 l 1,3,-1
 610 414 l 1,4,-1
 610 306 l 1,5,-1
 166 306 l 1,6,-1
 166 108 l 1,7,-1
 718 108 l 1,8,-1
 718 0 l 1,9,-1
 58 0 l 1,10,-1
 58 720 l 1,11,-1
 718 720 l 1,0,-1
335 819 m 1,12,-1
 261 819 l 1,13,-1
 346 960 l 1,14,-1
 420 960 l 1,15,-1
 505 819 l 1,16,-1
 430 819 l 1,17,-1
 383 895 l 1,18,-1
 335 819 l 1,12,-1
EndSplineSet
EndChar

StartChar: Edieresis
Encoding: 203 203 21
Width: 766
Flags: MW
HStem: 0 108<166 718 166 718> 306 108<166 610 166 610> 612 108<166 718 166 166> 820 108<244 352 244 352 414 522 244 414>
VStem: 58 108<108 306 414 612> 244 108<820 928 820 928> 414 108<820 928 820 928>
LayerCount: 2
Fore
SplineSet
718 720 m 1,0,-1
 718 612 l 1,1,-1
 166 612 l 1,2,-1
 166 414 l 1,3,-1
 610 414 l 1,4,-1
 610 306 l 1,5,-1
 166 306 l 1,6,-1
 166 108 l 1,7,-1
 718 108 l 1,8,-1
 718 0 l 1,9,-1
 58 0 l 1,10,-1
 58 720 l 1,11,-1
 718 720 l 1,0,-1
522 928 m 1,12,-1
 522 820 l 1,13,-1
 414 820 l 1,14,-1
 414 928 l 1,15,-1
 522 928 l 1,12,-1
352 928 m 1,16,-1
 352 820 l 1,17,-1
 244 820 l 1,18,-1
 244 928 l 1,19,-1
 352 928 l 1,16,-1
EndSplineSet
EndChar

StartChar: Egrave
Encoding: 200 200 22
Width: 766
Flags: MW
HStem: 0 108<166 718 166 718> 306 108<166 610 166 610> 612 108<166 718 166 166> 820 162<349 417 309 457 349 349>
VStem: 58 108<108 306 414 612>
LayerCount: 2
Fore
SplineSet
718 720 m 1,0,-1
 718 612 l 1,1,-1
 166 612 l 1,2,-1
 166 414 l 1,3,-1
 610 414 l 1,4,-1
 610 306 l 1,5,-1
 166 306 l 1,6,-1
 166 108 l 1,7,-1
 718 108 l 1,8,-1
 718 0 l 1,9,-1
 58 0 l 1,10,-1
 58 720 l 1,11,-1
 718 720 l 1,0,-1
417 982 m 1,12,-1
 457 820 l 1,13,-1
 349 820 l 1,14,-1
 309 982 l 1,15,-1
 417 982 l 1,12,-1
EndSplineSet
EndChar

StartChar: Euro
Encoding: 8364 8364 23
Width: 799
Flags: MW
HStem: 0 108<229 753 265 753> 218 108<35 135 35 135 243 645> 394 108<35 135 35 135 243 645> 612 108<259 753 265 753>
VStem: 135 108<130 218 124 218 326 394 502 590>
LayerCount: 2
Fore
SplineSet
265 108 m 2,0,-1
 753 108 l 1,1,-1
 753 0 l 1,2,-1
 265 0 l 2,3,4
 211 0 211 0 173 38 c 128,-1,5
 135 76 135 76 135 130 c 2,6,-1
 135 218 l 1,7,-1
 35 218 l 1,8,-1
 35 326 l 1,9,-1
 135 326 l 1,10,-1
 135 394 l 1,11,-1
 35 394 l 1,12,-1
 35 502 l 1,13,-1
 135 502 l 1,14,-1
 135 590 l 2,15,16
 135 644 135 644 173 682 c 128,-1,17
 211 720 211 720 265 720 c 2,18,-1
 753 720 l 1,19,-1
 753 612 l 1,20,-1
 265 612 l 2,21,22
 256 612 256 612 249.5 605.5 c 128,-1,23
 243 599 243 599 243 590 c 2,24,-1
 243 502 l 1,25,-1
 645 502 l 1,26,-1
 645 394 l 1,27,-1
 243 394 l 1,28,-1
 243 326 l 1,29,-1
 645 326 l 1,30,-1
 645 218 l 1,31,-1
 243 218 l 1,32,-1
 243 130 l 2,33,34
 243 121 243 121 249.5 114.5 c 128,-1,35
 256 108 256 108 265 108 c 2,0,-1
EndSplineSet
EndChar

StartChar: F
Encoding: 70 70 24
Width: 723
Flags: MW
HStem: 0 21G<58 166 58 58> 306 108<166 610 166 610> 612 108<166 718 166 166>
VStem: 58 108<0 306 414 612>
LayerCount: 2
Fore
SplineSet
58 720 m 1,0,-1
 718 720 l 1,1,-1
 718 612 l 1,2,-1
 166 612 l 1,3,-1
 166 414 l 1,4,-1
 610 414 l 1,5,-1
 610 306 l 1,6,-1
 166 306 l 1,7,-1
 166 0 l 1,8,-1
 58 0 l 1,9,-1
 58 720 l 1,0,-1
EndSplineSet
EndChar

StartChar: G
Encoding: 71 71 25
Width: 830
Flags: MW
HStem: 0 108<150 646 186 646> 286 108<498 668 498 776> 547 173<668 682 186 776 668 668> 612 108<180 646 186 646>
VStem: 56 108<130 590> 668 108<130 286 286 286 547 590>
LayerCount: 2
Fore
SplineSet
776 590 m 2,0,-1
 776 547 l 1,1,-1
 668 547 l 1,2,-1
 668 590 l 2,3,4
 668 599 668 599 661.5 605.5 c 128,-1,5
 655 612 655 612 646 612 c 2,6,-1
 186 612 l 2,7,8
 177 612 177 612 170.5 605.5 c 128,-1,9
 164 599 164 599 164 590 c 2,10,-1
 164 130 l 2,11,12
 164 121 164 121 170.5 114.5 c 128,-1,13
 177 108 177 108 186 108 c 2,14,-1
 646 108 l 2,15,16
 655 108 655 108 661.5 114.5 c 128,-1,17
 668 121 668 121 668 130 c 2,18,-1
 668 286 l 1,19,-1
 498 286 l 1,20,-1
 498 394 l 1,21,-1
 776 394 l 1,22,-1
 776 130 l 2,23,24
 776 76 776 76 738 38 c 128,-1,25
 700 0 700 0 646 0 c 2,26,-1
 186 0 l 2,27,28
 132 0 132 0 94 38 c 128,-1,29
 56 76 56 76 56 130 c 2,30,-1
 56 590 l 2,31,32
 56 644 56 644 94 682 c 128,-1,33
 132 720 132 720 186 720 c 2,34,-1
 646 720 l 2,35,36
 700 720 700 720 738 682 c 128,-1,37
 776 644 776 644 776 590 c 2,0,-1
EndSplineSet
EndChar

StartChar: H
Encoding: 72 72 26
Width: 851
Flags: MW
HStem: 0 21G<57 165 57 57 686 794 686 686> 306 108<165 686 165 686> 700 20G<57 165 165 165 686 794 794 794>
VStem: 57 108<0 306 414 720> 686 108<0 306 306 306 414 720 0 720>
LayerCount: 2
Fore
SplineSet
686 720 m 1,0,-1
 794 720 l 1,1,-1
 794 0 l 1,2,-1
 686 0 l 1,3,-1
 686 306 l 1,4,-1
 165 306 l 1,5,-1
 165 0 l 1,6,-1
 57 0 l 1,7,-1
 57 720 l 1,8,-1
 165 720 l 1,9,-1
 165 414 l 1,10,-1
 686 414 l 1,11,-1
 686 720 l 1,0,-1
EndSplineSet
EndChar

StartChar: I
Encoding: 73 73 27
Width: 220
Flags: MW
HStem: 0 21G<57 57 57 165> 700 20G<57 165 165 165>
VStem: 57 108<0 720 0 720>
LayerCount: 2
Fore
SplineSet
57 0 m 1,0,-1
 57 720 l 1,1,-1
 165 720 l 1,2,-1
 165 0 l 1,3,-1
 57 0 l 1,0,-1
EndSplineSet
Substitution2: "'salt' Stylistic Alternatives in Latin lookup 2 subtable" I.alt
Substitution2: "'aalt' Access All Alternates in Latin lookup 0 subtable" I.alt
EndChar

StartChar: I.alt
Encoding: 65541 -1 28
Width: 818
Flags: MW
HStem: 0 108<49 355 463 769 49 355> 612 108<49 355 49 769 463 769 463 463>
VStem: 355 108<108 612 108 612>
LayerCount: 2
Fore
SplineSet
769 720 m 1,0,-1
 769 612 l 1,1,-1
 463 612 l 1,2,-1
 463 108 l 1,3,-1
 769 108 l 1,4,-1
 769 0 l 1,5,-1
 49 0 l 1,6,-1
 49 108 l 1,7,-1
 355 108 l 1,8,-1
 355 612 l 1,9,-1
 49 612 l 1,10,-1
 49 720 l 1,11,-1
 769 720 l 1,0,-1
EndSplineSet
EndChar

StartChar: Iacute
Encoding: 205 205 29
Width: 220
Flags: MW
HStem: 0 21G<57 57 57 165> 700 20G<57 165 165 165> 820 162<36 184 76 144>
VStem: 57 108<0 720 0 720>
LayerCount: 2
Fore
SplineSet
57 0 m 1,0,-1
 57 720 l 1,1,-1
 165 720 l 1,2,-1
 165 0 l 1,3,-1
 57 0 l 1,0,-1
36 820 m 1,4,-1
 76 982 l 1,5,-1
 184 982 l 1,6,-1
 144 820 l 1,7,-1
 36 820 l 1,4,-1
EndSplineSet
EndChar

StartChar: Icircumflex
Encoding: 206 206 30
Width: 220
Flags: MW
HStem: 0 21G<57 57 57 165> 700 20G<57 165 165 165> 819 21G<-12 62 -12 -12 157 157 157 232> 940 20G<73 147 147 147>
VStem: 57 108<0 720 0 720>
LayerCount: 2
Fore
SplineSet
57 0 m 1,0,-1
 57 720 l 1,1,-1
 165 720 l 1,2,-1
 165 0 l 1,3,-1
 57 0 l 1,0,-1
62 819 m 1,4,-1
 -12 819 l 1,5,-1
 73 960 l 1,6,-1
 147 960 l 1,7,-1
 232 819 l 1,8,-1
 157 819 l 1,9,-1
 110 895 l 1,10,-1
 62 819 l 1,4,-1
EndSplineSet
EndChar

StartChar: Idieresis
Encoding: 207 207 31
Width: 220
Flags: MW
HStem: 0 21G<57 57 57 165> 700 20G<57 165 165 165> 820 108<-29 79 -29 79 141 249 -29 141>
VStem: -29 108<820 928 820 928> 57 108<0 720 0 720> 141 108<820 928 820 928>
LayerCount: 2
Fore
SplineSet
57 0 m 1,0,-1
 57 720 l 1,1,-1
 165 720 l 1,2,-1
 165 0 l 1,3,-1
 57 0 l 1,0,-1
249 928 m 1,4,-1
 249 820 l 1,5,-1
 141 820 l 1,6,-1
 141 928 l 1,7,-1
 249 928 l 1,4,-1
79 928 m 1,8,-1
 79 820 l 1,9,-1
 -29 820 l 1,10,-1
 -29 928 l 1,11,-1
 79 928 l 1,8,-1
EndSplineSet
EndChar

StartChar: Igrave
Encoding: 204 204 32
Width: 220
Flags: MW
HStem: 0 21G<57 57 57 165> 700 20G<57 165 165 165> 820 162<76 144 36 184 76 76>
VStem: 57 108<0 720 0 720>
LayerCount: 2
Fore
SplineSet
57 0 m 1,0,-1
 57 720 l 1,1,-1
 165 720 l 1,2,-1
 165 0 l 1,3,-1
 57 0 l 1,0,-1
144 982 m 1,4,-1
 184 820 l 1,5,-1
 76 820 l 1,6,-1
 36 982 l 1,7,-1
 144 982 l 1,4,-1
EndSplineSet
EndChar

StartChar: J
Encoding: 74 74 33
Width: 780
Flags: MW
HStem: 0 108<98 594 134 594> 0 200<98 112 4 134 4 594> 700 20G<616 724 724 724>
VStem: 4 108<130 200 124 200> 616 108<130 720>
LayerCount: 2
Fore
SplineSet
616 130 m 2,0,-1
 616 720 l 1,1,-1
 724 720 l 1,2,-1
 724 130 l 2,3,4
 724 76 724 76 686 38 c 128,-1,5
 648 0 648 0 594 0 c 2,6,-1
 134 0 l 2,7,8
 80 0 80 0 42 38 c 128,-1,9
 4 76 4 76 4 130 c 2,10,-1
 4 200 l 1,11,-1
 112 200 l 1,12,-1
 112 130 l 2,13,14
 112 121 112 121 118.5 114.5 c 128,-1,15
 125 108 125 108 134 108 c 2,16,-1
 594 108 l 2,17,18
 603 108 603 108 609.5 114.5 c 128,-1,19
 616 121 616 121 616 130 c 2,0,-1
EndSplineSet
Substitution2: "'salt' Stylistic Alternatives in Latin lookup 2 subtable" J.alt
Substitution2: "'aalt' Access All Alternates in Latin lookup 0 subtable" J.alt
EndChar

StartChar: J.alt
Encoding: 65542 -1 34
Width: 645
Flags: MW
HStem: 0 108<3 463 3 463> 700 20G<485 593 593 593>
VStem: 485 108<130 720>
LayerCount: 2
Fore
SplineSet
485 130 m 2,0,-1
 485 720 l 1,1,-1
 593 720 l 1,2,-1
 593 130 l 2,3,4
 593 76 593 76 555 38 c 128,-1,5
 517 0 517 0 463 0 c 2,6,-1
 3 0 l 1,7,-1
 3 108 l 1,8,-1
 463 108 l 2,9,10
 472 108 472 108 478.5 114.5 c 128,-1,11
 485 121 485 121 485 130 c 2,0,-1
EndSplineSet
EndChar

StartChar: K
Encoding: 75 75 35
Width: 797
Flags: MW
HStem: 0 21G<57 165 57 57 622 750 622 622> 306 108<165 365 165 365> 700 20G<57 165 165 165 622 750 750 750>
VStem: 57 108<0 306 414 720>
LayerCount: 2
Fore
SplineSet
622 720 m 1,0,-1
 750 720 l 1,1,-1
 750 705 l 1,2,-1
 461 360 l 1,3,-1
 750 15 l 1,4,-1
 750 0 l 1,5,-1
 622 0 l 1,6,-1
 365 306 l 1,7,-1
 165 306 l 1,8,-1
 165 0 l 1,9,-1
 57 0 l 1,10,-1
 57 720 l 1,11,-1
 165 720 l 1,12,-1
 165 414 l 1,13,-1
 365 414 l 1,14,-1
 622 720 l 1,0,-1
EndSplineSet
Substitution2: "'salt' Stylistic Alternatives in Latin lookup 2 subtable" K.alt
Substitution2: "'aalt' Access All Alternates in Latin lookup 0 subtable" K.alt
EndChar

StartChar: K.alt
Encoding: 65543 -1 36
Width: 829
Flags: MW
HStem: 0 21G<54 162 54 54 666 774 666 666> 303 54<184 670.5> 357 54<184 670.5> 700 20G<54 162 162 162 667 775 775 775>
VStem: 54 108<0 281 427 433 433 720> 666 108<0 261 0 281 0 287>
LayerCount: 2
Fore
SplineSet
667 433 m 2,0,-1
 667 720 l 1,1,-1
 775 720 l 1,2,-1
 775 453 l 2,3,4
 775 416 775 416 732.5 386.5 c 128,-1,5
 690 357 690 357 627 357 c 1,6,7
 690 357 690 357 732 328 c 128,-1,8
 774 299 774 299 774 261 c 2,9,-1
 774 0 l 1,10,-1
 666 0 l 1,11,-1
 666 281 l 2,12,13
 666 290 666 290 659.5 296.5 c 128,-1,14
 653 303 653 303 644 303 c 2,15,-1
 184 303 l 2,16,17
 175 303 175 303 168.5 296.5 c 128,-1,18
 162 290 162 290 162 281 c 2,19,-1
 162 0 l 1,20,-1
 54 0 l 1,21,-1
 54 720 l 1,22,-1
 162 720 l 1,23,-1
 162 433 l 2,24,25
 162 424 162 424 168.5 417.5 c 128,-1,26
 175 411 175 411 184 411 c 2,27,-1
 645 411 l 2,28,29
 654 411 654 411 660.5 417.5 c 128,-1,30
 667 424 667 424 667 433 c 2,0,-1
EndSplineSet
EndChar

StartChar: L
Encoding: 76 76 37
Width: 779
Flags: MW
HStem: 0 108<165 777 165 777> 701 20G<57 165 165 165>
VStem: 57 108<108 721 108 721 108 721>
LayerCount: 2
Fore
SplineSet
57 0 m 1,0,-1
 57 721 l 1,1,-1
 165 721 l 1,2,-1
 165 108 l 1,3,-1
 777 108 l 1,4,-1
 777 0 l 1,5,-1
 57 0 l 1,0,-1
EndSplineSet
EndChar

StartChar: M
Encoding: 77 77 38
Width: 928
Flags: MW
HStem: 0 21G<56 164 56 56 764 872 764 764> 700 20G<56 184 184 184 743 872 872 872>
VStem: 56 108<0 576 0 720> 764 108<0 576 576 576>
LayerCount: 2
Fore
SplineSet
464 387 m 1,0,-1
 743 720 l 1,1,-1
 872 720 l 1,2,-1
 872 0 l 1,3,-1
 764 0 l 1,4,-1
 764 576 l 1,5,-1
 464 219 l 1,6,-1
 164 576 l 1,7,-1
 164 0 l 1,8,-1
 56 0 l 1,9,-1
 56 720 l 1,10,-1
 184 720 l 1,11,-1
 464 387 l 1,0,-1
EndSplineSet
Substitution2: "'salt' Stylistic Alternatives in Latin lookup 2 subtable" M.alt
Substitution2: "'aalt' Access All Alternates in Latin lookup 0 subtable" M.alt
EndChar

StartChar: M.alt
Encoding: 65544 -1 39
Width: 1155
Flags: MW
HStem: 0 21G<54 162 54 54 512 620 512 512 994 1102 994 994> 612 108<162 490 162 162 620 972 620 620>
VStem: 54 108<0 612 0 720> 512 108<0 590 590 596> 994 108<0 590 0 596>
LayerCount: 2
Fore
SplineSet
972 720 m 2,0,1
 1026 720 1026 720 1064 682 c 128,-1,2
 1102 644 1102 644 1102 590 c 2,3,-1
 1102 0 l 1,4,-1
 994 0 l 1,5,-1
 994 590 l 2,6,7
 994 599 994 599 987.5 605.5 c 128,-1,8
 981 612 981 612 972 612 c 2,9,-1
 620 612 l 1,10,-1
 620 0 l 1,11,-1
 512 0 l 1,12,-1
 512 590 l 2,13,14
 512 599 512 599 505.5 605.5 c 128,-1,15
 499 612 499 612 490 612 c 2,16,-1
 162 612 l 1,17,-1
 162 0 l 1,18,-1
 54 0 l 1,19,-1
 54 720 l 1,20,-1
 972 720 l 2,0,1
EndSplineSet
EndChar

StartChar: N
Encoding: 78 78 40
Width: 832
Flags: MW
HStem: 0 21G<56 164 56 56 648 776 648 648> 700 20G<56 184 184 184 668 776 776 776>
VStem: 56 108<0 576 0 720> 668 108<144 720 0 720>
LayerCount: 2
Fore
SplineSet
668 144 m 1,0,-1
 668 720 l 1,1,-1
 776 720 l 1,2,-1
 776 0 l 1,3,-1
 648 0 l 1,4,-1
 164 576 l 1,5,-1
 164 0 l 1,6,-1
 56 0 l 1,7,-1
 56 720 l 1,8,-1
 184 720 l 1,9,-1
 668 144 l 1,0,-1
EndSplineSet
Substitution2: "'salt' Stylistic Alternatives in Latin lookup 2 subtable" N.alt
Substitution2: "'aalt' Access All Alternates in Latin lookup 0 subtable" N.alt
EndChar

StartChar: N.alt
Encoding: 65545 -1 41
Width: 827
Flags: MW
HStem: 0 21G<54 162 54 54 666 666 666 774> 612 108<162 644 162 162>
VStem: 54 108<0 612> 666 108<0 590 0 596>
LayerCount: 2
Fore
SplineSet
162 0 m 1,0,-1
 54 0 l 1,1,-1
 54 720 l 1,2,-1
 644 720 l 2,3,4
 698 720 698 720 736 682 c 128,-1,5
 774 644 774 644 774 590 c 2,6,-1
 774 0 l 1,7,-1
 666 0 l 1,8,-1
 666 590 l 2,9,10
 666 599 666 599 659.5 605.5 c 128,-1,11
 653 612 653 612 644 612 c 2,12,-1
 162 612 l 1,13,-1
 162 0 l 1,0,-1
EndSplineSet
EndChar

StartChar: Ntilde
Encoding: 209 209 42
Width: 832
Flags: MW
HStem: 0 21G<56 164 56 56 648 776 648 648> 700 20G<56 184 184 184 668 776 776 776> 824 134<299 529.5> 892 66<303 351 299 352>
VStem: 56 108<0 576 0 720> 668 108<144 720 0 720>
LayerCount: 2
Fore
SplineSet
668 144 m 1,0,-1
 668 720 l 1,1,-1
 776 720 l 1,2,-1
 776 0 l 1,3,-1
 648 0 l 1,4,-1
 164 576 l 1,5,-1
 164 0 l 1,6,-1
 56 0 l 1,7,-1
 56 720 l 1,8,-1
 184 720 l 1,9,-1
 668 144 l 1,0,-1
514 890 m 1,10,11
 553 890 553 890 592 916 c 1,12,-1
 592 842 l 1,13,14
 550 824 550 824 514 824 c 0,15,16
 479 824 479 824 416 858 c 128,-1,17
 353 892 353 892 314 892 c 0,18,19
 254 892 254 892 240 869 c 1,20,-1
 240 944 l 1,21,22
 273 958 273 958 314 958 c 0,23,24
 353 958 353 958 416.5 926 c 128,-1,25
 480 894 480 894 514 890 c 1,10,11
EndSplineSet
EndChar

StartChar: O
Encoding: 79 79 43
Width: 828
Flags: MW
HStem: 0 108<148 644 184 644> 612 108<178 644 184 644>
VStem: 54 108<130 590> 666 108<130 590>
LayerCount: 2
Fore
SplineSet
184 720 m 2,0,-1
 644 720 l 2,1,2
 698 720 698 720 736 682 c 128,-1,3
 774 644 774 644 774 590 c 2,4,-1
 774 130 l 2,5,6
 774 76 774 76 736 38 c 128,-1,7
 698 0 698 0 644 0 c 2,8,-1
 184 0 l 2,9,10
 130 0 130 0 92 38 c 128,-1,11
 54 76 54 76 54 130 c 2,12,-1
 54 590 l 2,13,14
 54 644 54 644 92 682 c 128,-1,15
 130 720 130 720 184 720 c 2,0,-1
184 108 m 2,16,-1
 644 108 l 2,17,18
 653 108 653 108 659.5 114.5 c 128,-1,19
 666 121 666 121 666 130 c 2,20,-1
 666 590 l 2,21,22
 666 599 666 599 659.5 605.5 c 128,-1,23
 653 612 653 612 644 612 c 2,24,-1
 184 612 l 2,25,26
 175 612 175 612 168.5 605.5 c 128,-1,27
 162 599 162 599 162 590 c 2,28,-1
 162 130 l 2,29,30
 162 121 162 121 168.5 114.5 c 128,-1,31
 175 108 175 108 184 108 c 2,16,-1
EndSplineSet
Substitution2: "'salt' Stylistic Alternatives in Latin lookup 2 subtable" O.alt
Substitution2: "'aalt' Access All Alternates in Latin lookup 0 subtable" O.alt
EndChar

StartChar: O.alt
Encoding: 65546 -1 44
Width: 824
Flags: MW
HStem: 0 108<146 642 182 642> 306 108<358 466 358 466> 612 108<176 642 182 642>
VStem: 52 108<130 590> 358 108<306 414> 664 108<130 590>
CounterMasks: 1 fc
LayerCount: 2
Fore
SplineSet
182 720 m 2,0,-1
 642 720 l 2,1,2
 696 720 696 720 734 682 c 128,-1,3
 772 644 772 644 772 590 c 2,4,-1
 772 130 l 2,5,6
 772 76 772 76 734 38 c 128,-1,7
 696 0 696 0 642 0 c 2,8,-1
 182 0 l 2,9,10
 128 0 128 0 90 38 c 128,-1,11
 52 76 52 76 52 130 c 2,12,-1
 52 590 l 2,13,14
 52 644 52 644 90 682 c 128,-1,15
 128 720 128 720 182 720 c 2,0,-1
664 130 m 2,16,-1
 664 590 l 2,17,18
 664 599 664 599 657.5 605.5 c 128,-1,19
 651 612 651 612 642 612 c 2,20,-1
 182 612 l 2,21,22
 173 612 173 612 166.5 605.5 c 128,-1,23
 160 599 160 599 160 590 c 2,24,-1
 160 130 l 2,25,26
 160 121 160 121 166.5 114.5 c 128,-1,27
 173 108 173 108 182 108 c 2,28,-1
 642 108 l 2,29,30
 651 108 651 108 657.5 114.5 c 128,-1,31
 664 121 664 121 664 130 c 2,16,-1
466 306 m 1,32,-1
 358 306 l 1,33,-1
 358 414 l 1,34,-1
 466 414 l 1,35,-1
 466 306 l 1,32,-1
EndSplineSet
EndChar

StartChar: OE
Encoding: 338 338 45
Width: 1374
Flags: MW
HStem: 0 108<147 643 183 643 643 649 773 1325> 306 108<773 1217 773 1217> 612 108<177 1325 183 643 773 773 773 1325>
VStem: 53 108<130 590> 665 108<130 306 414 590 590 596>
CounterMasks: 1 e0
LayerCount: 2
Fore
SplineSet
773 612 m 1,0,-1
 773 414 l 1,1,-1
 1217 414 l 1,2,-1
 1217 306 l 1,3,-1
 773 306 l 1,4,-1
 773 108 l 1,5,-1
 1325 108 l 1,6,-1
 1325 0 l 1,7,-1
 183 0 l 2,8,9
 129 0 129 0 91 38 c 128,-1,10
 53 76 53 76 53 130 c 2,11,-1
 53 590 l 2,12,13
 53 644 53 644 91 682 c 128,-1,14
 129 720 129 720 183 720 c 2,15,-1
 1325 720 l 1,16,-1
 1325 612 l 1,17,-1
 773 612 l 1,0,-1
643 108 m 2,18,19
 652 108 652 108 658.5 114.5 c 128,-1,20
 665 121 665 121 665 130 c 2,21,-1
 665 590 l 2,22,23
 665 599 665 599 658.5 605.5 c 128,-1,24
 652 612 652 612 643 612 c 2,25,-1
 183 612 l 2,26,27
 174 612 174 612 167.5 605.5 c 128,-1,28
 161 599 161 599 161 590 c 2,29,-1
 161 130 l 2,30,31
 161 121 161 121 167.5 114.5 c 128,-1,32
 174 108 174 108 183 108 c 2,33,-1
 643 108 l 2,18,19
EndSplineSet
EndChar

StartChar: Oacute
Encoding: 211 211 46
Width: 828
Flags: MW
HStem: 0 108<148 644 184 644> 612 108<178 644 184 644> 820 162<340 488 380 448>
VStem: 54 108<130 590> 666 108<130 590>
LayerCount: 2
Fore
SplineSet
184 720 m 2,0,-1
 644 720 l 2,1,2
 698 720 698 720 736 682 c 128,-1,3
 774 644 774 644 774 590 c 2,4,-1
 774 130 l 2,5,6
 774 76 774 76 736 38 c 128,-1,7
 698 0 698 0 644 0 c 2,8,-1
 184 0 l 2,9,10
 130 0 130 0 92 38 c 128,-1,11
 54 76 54 76 54 130 c 2,12,-1
 54 590 l 2,13,14
 54 644 54 644 92 682 c 128,-1,15
 130 720 130 720 184 720 c 2,0,-1
184 108 m 2,16,-1
 644 108 l 2,17,18
 653 108 653 108 659.5 114.5 c 128,-1,19
 666 121 666 121 666 130 c 2,20,-1
 666 590 l 2,21,22
 666 599 666 599 659.5 605.5 c 128,-1,23
 653 612 653 612 644 612 c 2,24,-1
 184 612 l 2,25,26
 175 612 175 612 168.5 605.5 c 128,-1,27
 162 599 162 599 162 590 c 2,28,-1
 162 130 l 2,29,30
 162 121 162 121 168.5 114.5 c 128,-1,31
 175 108 175 108 184 108 c 2,16,-1
340 820 m 1,32,-1
 380 982 l 1,33,-1
 488 982 l 1,34,-1
 448 820 l 1,35,-1
 340 820 l 1,32,-1
EndSplineSet
EndChar

StartChar: Ocircumflex
Encoding: 212 212 47
Width: 828
Flags: MW
HStem: 0 108<148 644 184 644> 612 108<178 644 184 644> 819 21G<292 366 292 292 461 461 461 536> 940 20G<377 451 451 451>
VStem: 54 108<130 590> 666 108<130 590>
LayerCount: 2
Fore
SplineSet
184 720 m 2,0,-1
 644 720 l 2,1,2
 698 720 698 720 736 682 c 128,-1,3
 774 644 774 644 774 590 c 2,4,-1
 774 130 l 2,5,6
 774 76 774 76 736 38 c 128,-1,7
 698 0 698 0 644 0 c 2,8,-1
 184 0 l 2,9,10
 130 0 130 0 92 38 c 128,-1,11
 54 76 54 76 54 130 c 2,12,-1
 54 590 l 2,13,14
 54 644 54 644 92 682 c 128,-1,15
 130 720 130 720 184 720 c 2,0,-1
184 108 m 2,16,-1
 644 108 l 2,17,18
 653 108 653 108 659.5 114.5 c 128,-1,19
 666 121 666 121 666 130 c 2,20,-1
 666 590 l 2,21,22
 666 599 666 599 659.5 605.5 c 128,-1,23
 653 612 653 612 644 612 c 2,24,-1
 184 612 l 2,25,26
 175 612 175 612 168.5 605.5 c 128,-1,27
 162 599 162 599 162 590 c 2,28,-1
 162 130 l 2,29,30
 162 121 162 121 168.5 114.5 c 128,-1,31
 175 108 175 108 184 108 c 2,16,-1
366 819 m 1,32,-1
 292 819 l 1,33,-1
 377 960 l 1,34,-1
 451 960 l 1,35,-1
 536 819 l 1,36,-1
 461 819 l 1,37,-1
 414 895 l 1,38,-1
 366 819 l 1,32,-1
EndSplineSet
EndChar

StartChar: Odieresis
Encoding: 214 214 48
Width: 828
Flags: MW
HStem: 0 108<148 644 184 644> 612 108<178 644 184 644> 820 108<275 383 275 383 445 553 275 445>
VStem: 54 108<130 590> 275 108<820 928 820 928> 445 108<820 928 820 928> 666 108<130 590>
LayerCount: 2
Fore
SplineSet
184 720 m 2,0,-1
 644 720 l 2,1,2
 698 720 698 720 736 682 c 128,-1,3
 774 644 774 644 774 590 c 2,4,-1
 774 130 l 2,5,6
 774 76 774 76 736 38 c 128,-1,7
 698 0 698 0 644 0 c 2,8,-1
 184 0 l 2,9,10
 130 0 130 0 92 38 c 128,-1,11
 54 76 54 76 54 130 c 2,12,-1
 54 590 l 2,13,14
 54 644 54 644 92 682 c 128,-1,15
 130 720 130 720 184 720 c 2,0,-1
184 108 m 2,16,-1
 644 108 l 2,17,18
 653 108 653 108 659.5 114.5 c 128,-1,19
 666 121 666 121 666 130 c 2,20,-1
 666 590 l 2,21,22
 666 599 666 599 659.5 605.5 c 128,-1,23
 653 612 653 612 644 612 c 2,24,-1
 184 612 l 2,25,26
 175 612 175 612 168.5 605.5 c 128,-1,27
 162 599 162 599 162 590 c 2,28,-1
 162 130 l 2,29,30
 162 121 162 121 168.5 114.5 c 128,-1,31
 175 108 175 108 184 108 c 2,16,-1
553 928 m 1,32,-1
 553 820 l 1,33,-1
 445 820 l 1,34,-1
 445 928 l 1,35,-1
 553 928 l 1,32,-1
383 928 m 1,36,-1
 383 820 l 1,37,-1
 275 820 l 1,38,-1
 275 928 l 1,39,-1
 383 928 l 1,36,-1
EndSplineSet
EndChar

StartChar: Ograve
Encoding: 210 210 49
Width: 828
Flags: MW
HStem: 0 108<148 644 184 644> 612 108<178 644 184 644> 820 162<380 448 340 488 380 380>
VStem: 54 108<130 590> 666 108<130 590>
LayerCount: 2
Fore
SplineSet
184 720 m 2,0,-1
 644 720 l 2,1,2
 698 720 698 720 736 682 c 128,-1,3
 774 644 774 644 774 590 c 2,4,-1
 774 130 l 2,5,6
 774 76 774 76 736 38 c 128,-1,7
 698 0 698 0 644 0 c 2,8,-1
 184 0 l 2,9,10
 130 0 130 0 92 38 c 128,-1,11
 54 76 54 76 54 130 c 2,12,-1
 54 590 l 2,13,14
 54 644 54 644 92 682 c 128,-1,15
 130 720 130 720 184 720 c 2,0,-1
184 108 m 2,16,-1
 644 108 l 2,17,18
 653 108 653 108 659.5 114.5 c 128,-1,19
 666 121 666 121 666 130 c 2,20,-1
 666 590 l 2,21,22
 666 599 666 599 659.5 605.5 c 128,-1,23
 653 612 653 612 644 612 c 2,24,-1
 184 612 l 2,25,26
 175 612 175 612 168.5 605.5 c 128,-1,27
 162 599 162 599 162 590 c 2,28,-1
 162 130 l 2,29,30
 162 121 162 121 168.5 114.5 c 128,-1,31
 175 108 175 108 184 108 c 2,16,-1
448 982 m 1,32,-1
 488 820 l 1,33,-1
 380 820 l 1,34,-1
 340 982 l 1,35,-1
 448 982 l 1,32,-1
EndSplineSet
EndChar

StartChar: Otilde
Encoding: 213 213 50
Width: 828
Flags: MW
HStem: 0 108<148 644 184 644> 612 108<178 644 184 644> 824 134<297 527.5> 892 66<301 349 297 350>
VStem: 54 108<130 590> 666 108<130 590>
LayerCount: 2
Fore
SplineSet
184 720 m 2,0,-1
 644 720 l 2,1,2
 698 720 698 720 736 682 c 128,-1,3
 774 644 774 644 774 590 c 2,4,-1
 774 130 l 2,5,6
 774 76 774 76 736 38 c 128,-1,7
 698 0 698 0 644 0 c 2,8,-1
 184 0 l 2,9,10
 130 0 130 0 92 38 c 128,-1,11
 54 76 54 76 54 130 c 2,12,-1
 54 590 l 2,13,14
 54 644 54 644 92 682 c 128,-1,15
 130 720 130 720 184 720 c 2,0,-1
184 108 m 2,16,-1
 644 108 l 2,17,18
 653 108 653 108 659.5 114.5 c 128,-1,19
 666 121 666 121 666 130 c 2,20,-1
 666 590 l 2,21,22
 666 599 666 599 659.5 605.5 c 128,-1,23
 653 612 653 612 644 612 c 2,24,-1
 184 612 l 2,25,26
 175 612 175 612 168.5 605.5 c 128,-1,27
 162 599 162 599 162 590 c 2,28,-1
 162 130 l 2,29,30
 162 121 162 121 168.5 114.5 c 128,-1,31
 175 108 175 108 184 108 c 2,16,-1
512 890 m 1,32,33
 551 890 551 890 590 916 c 1,34,-1
 590 842 l 1,35,36
 548 824 548 824 512 824 c 0,37,38
 477 824 477 824 414 858 c 128,-1,39
 351 892 351 892 312 892 c 0,40,41
 252 892 252 892 238 869 c 1,42,-1
 238 944 l 1,43,44
 271 958 271 958 312 958 c 0,45,46
 351 958 351 958 414.5 926 c 128,-1,47
 478 894 478 894 512 890 c 1,32,33
EndSplineSet
EndChar

StartChar: P
Encoding: 80 80 51
Width: 791
Flags: MW
HStem: 0 21G<56 164 56 56> 257 108<182 646 186 646> 611 108<180 186 186 646>
VStem: 56 108<0 259 381 387 387 589> 668 108<387 589>
LayerCount: 2
Fore
SplineSet
56 719 m 1,0,-1
 646 719 l 2,1,2
 700 719 700 719 738 680.5 c 128,-1,3
 776 642 776 642 776 589 c 2,4,-1
 776 387 l 2,5,6
 776 334 776 334 738 295.5 c 128,-1,7
 700 257 700 257 646 257 c 2,8,-1
 186 257 l 2,9,10
 178 257 178 257 164 259 c 1,11,-1
 164 0 l 1,12,-1
 56 0 l 1,13,-1
 56 719 l 1,0,-1
668 387 m 2,14,-1
 668 589 l 2,15,16
 668 598 668 598 661.5 604.5 c 128,-1,17
 655 611 655 611 646 611 c 2,18,-1
 186 611 l 2,19,20
 177 611 177 611 170.5 604.5 c 128,-1,21
 164 598 164 598 164 589 c 2,22,-1
 164 387 l 2,23,24
 164 378 164 378 170.5 371.5 c 128,-1,25
 177 365 177 365 186 365 c 2,26,-1
 646 365 l 2,27,28
 655 365 655 365 661.5 371.5 c 128,-1,29
 668 378 668 378 668 387 c 2,14,-1
EndSplineSet
EndChar

StartChar: Q
Encoding: 81 81 52
Width: 884
Flags: MW
HStem: 0 108<148 644 184 644 644 650 772 864> 612 108<178 644 184 644>
VStem: 54 108<130 590> 666 108<130 590>
LayerCount: 2
Fore
SplineSet
772 108 m 1,0,-1
 864 108 l 1,1,-1
 864 0 l 1,2,-1
 184 0 l 2,3,4
 130 0 130 0 92 38 c 128,-1,5
 54 76 54 76 54 130 c 2,6,-1
 54 590 l 2,7,8
 54 644 54 644 92 682 c 128,-1,9
 130 720 130 720 184 720 c 2,10,-1
 644 720 l 2,11,12
 698 720 698 720 736 682 c 128,-1,13
 774 644 774 644 774 590 c 2,14,-1
 774 130 l 2,15,16
 774 122 774 122 772 108 c 1,0,-1
184 108 m 2,17,-1
 644 108 l 2,18,19
 653 108 653 108 659.5 114.5 c 128,-1,20
 666 121 666 121 666 130 c 2,21,-1
 666 590 l 2,22,23
 666 599 666 599 659.5 605.5 c 128,-1,24
 653 612 653 612 644 612 c 2,25,-1
 184 612 l 2,26,27
 175 612 175 612 168.5 605.5 c 128,-1,28
 162 599 162 599 162 590 c 2,29,-1
 162 130 l 2,30,31
 162 121 162 121 168.5 114.5 c 128,-1,32
 175 108 175 108 184 108 c 2,17,-1
EndSplineSet
Substitution2: "'salt' Stylistic Alternatives in Latin lookup 2 subtable" Q.alt
Substitution2: "'aalt' Access All Alternates in Latin lookup 0 subtable" Q.alt
EndChar

StartChar: Q.alt
Encoding: 65547 -1 53
Width: 868
Flags: MW
HStem: -108 216<360 468 360 360> 0 108<148 644 184 360 468 644 468 468> 612 108<178 644 184 644>
VStem: 54 108<130 590> 360 108<-108 0 -108 0> 666 108<130 590>
CounterMasks: 1 1c
LayerCount: 2
Fore
SplineSet
644 720 m 2,0,1
 698 720 698 720 736 682 c 128,-1,2
 774 644 774 644 774 590 c 2,3,-1
 774 130 l 2,4,5
 774 76 774 76 736 38 c 128,-1,6
 698 0 698 0 644 0 c 2,7,-1
 468 0 l 1,8,-1
 468 -108 l 1,9,-1
 360 -108 l 1,10,-1
 360 0 l 1,11,-1
 184 0 l 2,12,13
 130 0 130 0 92 38 c 128,-1,14
 54 76 54 76 54 130 c 2,15,-1
 54 590 l 2,16,17
 54 644 54 644 92 682 c 128,-1,18
 130 720 130 720 184 720 c 2,19,-1
 644 720 l 2,0,1
666 130 m 2,20,-1
 666 590 l 2,21,22
 666 599 666 599 659.5 605.5 c 128,-1,23
 653 612 653 612 644 612 c 2,24,-1
 184 612 l 2,25,26
 175 612 175 612 168.5 605.5 c 128,-1,27
 162 599 162 599 162 590 c 2,28,-1
 162 130 l 2,29,30
 162 121 162 121 168.5 114.5 c 128,-1,31
 175 108 175 108 184 108 c 2,32,-1
 644 108 l 2,33,34
 653 108 653 108 659.5 114.5 c 128,-1,35
 666 121 666 121 666 130 c 2,20,-1
EndSplineSet
EndChar

StartChar: R
Encoding: 82 82 54
Width: 825
Flags: MW
HStem: 0 21G<55 163 55 55 647 775 647 647> 257 108<181 645 185 431 572 645 572 572> 611 108<179 185 185 645>
VStem: 55 108<0 259 381 387 387 589> 667 108<387 589>
LayerCount: 2
Fore
SplineSet
775 589 m 2,0,-1
 775 387 l 2,1,2
 775 334 775 334 737 295.5 c 128,-1,3
 699 257 699 257 645 257 c 2,4,-1
 572 257 l 1,5,-1
 775 15 l 1,6,-1
 775 0 l 1,7,-1
 647 0 l 1,8,-1
 431 257 l 1,9,-1
 185 257 l 2,10,11
 177 257 177 257 163 259 c 1,12,-1
 163 0 l 1,13,-1
 55 0 l 1,14,-1
 55 719 l 1,15,-1
 645 719 l 2,16,17
 699 719 699 719 737 680.5 c 128,-1,18
 775 642 775 642 775 589 c 2,0,-1
185 365 m 2,19,-1
 645 365 l 2,20,21
 654 365 654 365 660.5 371.5 c 128,-1,22
 667 378 667 378 667 387 c 2,23,-1
 667 589 l 2,24,25
 667 598 667 598 660.5 604.5 c 128,-1,26
 654 611 654 611 645 611 c 2,27,-1
 185 611 l 2,28,29
 176 611 176 611 169.5 604.5 c 128,-1,30
 163 598 163 598 163 589 c 2,31,-1
 163 387 l 2,32,33
 163 378 163 378 169.5 371.5 c 128,-1,34
 176 365 176 365 185 365 c 2,19,-1
EndSplineSet
Substitution2: "'salt' Stylistic Alternatives in Latin lookup 2 subtable" R.alt
Substitution2: "'aalt' Access All Alternates in Latin lookup 0 subtable" R.alt
EndChar

StartChar: R.alt
Encoding: 65548 -1 55
Width: 826
Flags: MW
HStem: 0 21G<54 162 54 54 666 774 666 666> 257 108<178 644 184 644> 611 108<184 680> 700 20G<54 54>
VStem: 54 108<0 235 381 387 387 589> 666 108<0 235 0 241 387 589>
LayerCount: 2
Fore
SplineSet
774 589 m 2,0,-1
 774 387 l 2,1,2
 774 363 774 363 760.5 346.5 c 128,-1,3
 747 330 747 330 726 323 c 128,-1,4
 705 316 705 316 688.5 313.5 c 128,-1,5
 672 311 672 311 656 311 c 1,6,7
 672 311 672 311 688.5 308.5 c 128,-1,8
 705 306 705 306 726.5 299 c 128,-1,9
 748 292 748 292 761 275.5 c 128,-1,10
 774 259 774 259 774 235 c 2,11,-1
 774 0 l 1,12,-1
 666 0 l 1,13,-1
 666 235 l 2,14,15
 666 244 666 244 659.5 250.5 c 128,-1,16
 653 257 653 257 644 257 c 2,17,-1
 184 257 l 2,18,19
 175 257 175 257 168.5 250.5 c 128,-1,20
 162 244 162 244 162 235 c 2,21,-1
 162 0 l 1,22,-1
 54 0 l 1,23,-1
 54 720 l 1,24,-1
 644 719 l 2,25,26
 698 719 698 719 736 680.5 c 128,-1,27
 774 642 774 642 774 589 c 2,0,-1
644 611 m 2,28,-1
 184 611 l 2,29,30
 175 611 175 611 168.5 604.5 c 128,-1,31
 162 598 162 598 162 589 c 2,32,-1
 162 387 l 2,33,34
 162 378 162 378 168.5 371.5 c 128,-1,35
 175 365 175 365 184 365 c 2,36,-1
 644 365 l 2,37,38
 653 365 653 365 659.5 371.5 c 128,-1,39
 666 378 666 378 666 387 c 2,40,-1
 666 589 l 2,41,42
 666 598 666 598 659.5 604.5 c 128,-1,43
 653 611 653 611 644 611 c 2,28,-1
EndSplineSet
EndChar

StartChar: S
Encoding: 83 83 56
Width: 822
Flags: MW
HStem: 0 108<145 641 181 641> 0 172<145 159 51 181 51 641> 306 108<145 641 181 641> 548 172<663 677 181 771 663 663> 612 108<175 641 181 641>
VStem: 51 108<130 172 124 172 436 590> 663 108<130 284 548 590>
LayerCount: 2
Fore
SplineSet
771 590 m 2,0,-1
 771 548 l 1,1,-1
 663 548 l 1,2,-1
 663 590 l 2,3,4
 663 599 663 599 656.5 605.5 c 128,-1,5
 650 612 650 612 641 612 c 2,6,-1
 181 612 l 2,7,8
 172 612 172 612 165.5 605.5 c 128,-1,9
 159 599 159 599 159 590 c 2,10,-1
 159 436 l 2,11,12
 159 427 159 427 165.5 420.5 c 128,-1,13
 172 414 172 414 181 414 c 2,14,-1
 641 414 l 2,15,16
 695 414 695 414 733 376 c 128,-1,17
 771 338 771 338 771 284 c 2,18,-1
 771 130 l 2,19,20
 771 76 771 76 733 38 c 128,-1,21
 695 0 695 0 641 0 c 2,22,-1
 181 0 l 2,23,24
 127 0 127 0 89 38 c 128,-1,25
 51 76 51 76 51 130 c 2,26,-1
 51 172 l 1,27,-1
 159 172 l 1,28,-1
 159 130 l 2,29,30
 159 121 159 121 165.5 114.5 c 128,-1,31
 172 108 172 108 181 108 c 2,32,-1
 641 108 l 2,33,34
 650 108 650 108 656.5 114.5 c 128,-1,35
 663 121 663 121 663 130 c 2,36,-1
 663 284 l 2,37,38
 663 293 663 293 656.5 299.5 c 128,-1,39
 650 306 650 306 641 306 c 2,40,-1
 181 306 l 2,41,42
 127 306 127 306 89 344 c 128,-1,43
 51 382 51 382 51 436 c 2,44,-1
 51 590 l 2,45,46
 51 644 51 644 89 682 c 128,-1,47
 127 720 127 720 181 720 c 2,48,-1
 641 720 l 2,49,50
 695 720 695 720 733 682 c 128,-1,51
 771 644 771 644 771 590 c 2,0,-1
EndSplineSet
Substitution2: "'salt' Stylistic Alternatives in Latin lookup 2 subtable" S.alt
Substitution2: "'aalt' Access All Alternates in Latin lookup 0 subtable" S.alt
EndChar

StartChar: S.alt
Encoding: 65549 -1 57
Width: 812
Flags: MW
HStem: 0 108<46 636 46 636> 306 108<140 516 176 516 516 636> 612 108<170 766 176 766>
VStem: 46 108<436 590> 658 108<130 284>
CounterMasks: 1 e0
LayerCount: 2
Fore
SplineSet
516 414 m 1,0,-1
 636 414 l 2,1,2
 690 414 690 414 728 376 c 128,-1,3
 766 338 766 338 766 284 c 2,4,-1
 766 130 l 2,5,6
 766 76 766 76 728 38 c 128,-1,7
 690 0 690 0 636 0 c 2,8,-1
 46 0 l 1,9,-1
 46 108 l 1,10,-1
 636 108 l 2,11,12
 645 108 645 108 651.5 114.5 c 128,-1,13
 658 121 658 121 658 130 c 2,14,-1
 658 284 l 2,15,16
 658 293 658 293 651.5 299.5 c 128,-1,17
 645 306 645 306 636 306 c 2,18,-1
 176 306 l 2,19,20
 122 306 122 306 84 344 c 128,-1,21
 46 382 46 382 46 436 c 2,22,-1
 46 590 l 2,23,24
 46 644 46 644 84 682 c 128,-1,25
 122 720 122 720 176 720 c 2,26,-1
 766 720 l 1,27,-1
 766 612 l 1,28,-1
 176 612 l 2,29,30
 167 612 167 612 160.5 605.5 c 128,-1,31
 154 599 154 599 154 590 c 2,32,-1
 154 436 l 2,33,34
 154 427 154 427 160.5 420.5 c 128,-1,35
 167 414 167 414 176 414 c 2,36,-1
 516 414 l 1,0,-1
EndSplineSet
EndChar

StartChar: Scaron
Encoding: 352 352 58
Width: 822
Flags: MW
HStem: 0 108<145 641 181 641> 0 172<145 159 51 181 51 641> 306 108<145 641 181 641> 548 172<663 677 181 771 663 663> 612 108<175 641 181 641> 819 21G<374 448 374 374> 940 20G<289 363 363 363 458 533 533 533>
VStem: 51 108<130 172 124 172 436 590> 663 108<130 284 548 590>
LayerCount: 2
Fore
SplineSet
771 590 m 2,0,-1
 771 548 l 1,1,-1
 663 548 l 1,2,-1
 663 590 l 2,3,4
 663 599 663 599 656.5 605.5 c 128,-1,5
 650 612 650 612 641 612 c 2,6,-1
 181 612 l 2,7,8
 172 612 172 612 165.5 605.5 c 128,-1,9
 159 599 159 599 159 590 c 2,10,-1
 159 436 l 2,11,12
 159 427 159 427 165.5 420.5 c 128,-1,13
 172 414 172 414 181 414 c 2,14,-1
 641 414 l 2,15,16
 695 414 695 414 733 376 c 128,-1,17
 771 338 771 338 771 284 c 2,18,-1
 771 130 l 2,19,20
 771 76 771 76 733 38 c 128,-1,21
 695 0 695 0 641 0 c 2,22,-1
 181 0 l 2,23,24
 127 0 127 0 89 38 c 128,-1,25
 51 76 51 76 51 130 c 2,26,-1
 51 172 l 1,27,-1
 159 172 l 1,28,-1
 159 130 l 2,29,30
 159 121 159 121 165.5 114.5 c 128,-1,31
 172 108 172 108 181 108 c 2,32,-1
 641 108 l 2,33,34
 650 108 650 108 656.5 114.5 c 128,-1,35
 663 121 663 121 663 130 c 2,36,-1
 663 284 l 2,37,38
 663 293 663 293 656.5 299.5 c 128,-1,39
 650 306 650 306 641 306 c 2,40,-1
 181 306 l 2,41,42
 127 306 127 306 89 344 c 128,-1,43
 51 382 51 382 51 436 c 2,44,-1
 51 590 l 2,45,46
 51 644 51 644 89 682 c 128,-1,47
 127 720 127 720 181 720 c 2,48,-1
 641 720 l 2,49,50
 695 720 695 720 733 682 c 128,-1,51
 771 644 771 644 771 590 c 2,0,-1
289 960 m 1,52,-1
 363 960 l 1,53,-1
 411 884 l 1,54,-1
 458 960 l 1,55,-1
 533 960 l 1,56,-1
 448 819 l 1,57,-1
 374 819 l 1,58,-1
 289 960 l 1,52,-1
EndSplineSet
EndChar

StartChar: T
Encoding: 84 84 59
Width: 759
Flags: MW
HStem: 0 21G<326 434 326 326> 612 108<20 326 20 740 434 740 434 434>
VStem: 326 108<0 612 0 612>
LayerCount: 2
Fore
SplineSet
20 720 m 1,0,-1
 740 720 l 1,1,-1
 740 612 l 1,2,-1
 434 612 l 1,3,-1
 434 0 l 1,4,-1
 326 0 l 1,5,-1
 326 612 l 1,6,-1
 20 612 l 1,7,-1
 20 720 l 1,0,-1
EndSplineSet
EndChar

StartChar: U
Encoding: 85 85 60
Width: 828
Flags: MW
HStem: 0 108<148 644 184 644> 700 20G<54 162 162 162 666 774 774 774>
VStem: 54 108<130 720> 666 108<130 720>
LayerCount: 2
Fore
SplineSet
666 130 m 2,0,-1
 666 720 l 1,1,-1
 774 720 l 1,2,-1
 774 130 l 2,3,4
 774 76 774 76 736 38 c 128,-1,5
 698 0 698 0 644 0 c 2,6,-1
 184 0 l 2,7,8
 130 0 130 0 92 38 c 128,-1,9
 54 76 54 76 54 130 c 2,10,-1
 54 720 l 1,11,-1
 162 720 l 1,12,-1
 162 130 l 2,13,14
 162 121 162 121 168.5 114.5 c 128,-1,15
 175 108 175 108 184 108 c 2,16,-1
 644 108 l 2,17,18
 653 108 653 108 659.5 114.5 c 128,-1,19
 666 121 666 121 666 130 c 2,0,-1
EndSplineSet
EndChar

StartChar: Uacute
Encoding: 218 218 61
Width: 828
Flags: MW
HStem: 0 108<148 644 184 644> 700 20G<54 162 162 162 666 774 774 774> 820 162<340 488 380 448>
VStem: 54 108<130 720> 666 108<130 720>
LayerCount: 2
Fore
SplineSet
666 130 m 2,0,-1
 666 720 l 1,1,-1
 774 720 l 1,2,-1
 774 130 l 2,3,4
 774 76 774 76 736 38 c 128,-1,5
 698 0 698 0 644 0 c 2,6,-1
 184 0 l 2,7,8
 130 0 130 0 92 38 c 128,-1,9
 54 76 54 76 54 130 c 2,10,-1
 54 720 l 1,11,-1
 162 720 l 1,12,-1
 162 130 l 2,13,14
 162 121 162 121 168.5 114.5 c 128,-1,15
 175 108 175 108 184 108 c 2,16,-1
 644 108 l 2,17,18
 653 108 653 108 659.5 114.5 c 128,-1,19
 666 121 666 121 666 130 c 2,0,-1
340 820 m 1,20,-1
 380 982 l 1,21,-1
 488 982 l 1,22,-1
 448 820 l 1,23,-1
 340 820 l 1,20,-1
EndSplineSet
EndChar

StartChar: Ucircumflex
Encoding: 219 219 62
Width: 828
Flags: MW
HStem: 0 108<148 644 184 644> 700 20G<54 162 162 162 666 774 774 774> 819 21G<292 366 292 292 461 461 461 536> 940 20G<377 451 451 451>
VStem: 54 108<130 720> 666 108<130 720>
LayerCount: 2
Fore
SplineSet
666 130 m 2,0,-1
 666 720 l 1,1,-1
 774 720 l 1,2,-1
 774 130 l 2,3,4
 774 76 774 76 736 38 c 128,-1,5
 698 0 698 0 644 0 c 2,6,-1
 184 0 l 2,7,8
 130 0 130 0 92 38 c 128,-1,9
 54 76 54 76 54 130 c 2,10,-1
 54 720 l 1,11,-1
 162 720 l 1,12,-1
 162 130 l 2,13,14
 162 121 162 121 168.5 114.5 c 128,-1,15
 175 108 175 108 184 108 c 2,16,-1
 644 108 l 2,17,18
 653 108 653 108 659.5 114.5 c 128,-1,19
 666 121 666 121 666 130 c 2,0,-1
366 819 m 1,20,-1
 292 819 l 1,21,-1
 377 960 l 1,22,-1
 451 960 l 1,23,-1
 536 819 l 1,24,-1
 461 819 l 1,25,-1
 414 895 l 1,26,-1
 366 819 l 1,20,-1
EndSplineSet
EndChar

StartChar: Udieresis
Encoding: 220 220 63
Width: 828
Flags: MW
HStem: 0 108<148 644 184 644> 700 20G<54 162 162 162 666 774 774 774> 820 108<275 383 275 383 445 553 275 445>
VStem: 54 108<130 720> 275 108<820 928 820 928> 445 108<820 928 820 928> 666 108<130 720>
LayerCount: 2
Fore
SplineSet
666 130 m 2,0,-1
 666 720 l 1,1,-1
 774 720 l 1,2,-1
 774 130 l 2,3,4
 774 76 774 76 736 38 c 128,-1,5
 698 0 698 0 644 0 c 2,6,-1
 184 0 l 2,7,8
 130 0 130 0 92 38 c 128,-1,9
 54 76 54 76 54 130 c 2,10,-1
 54 720 l 1,11,-1
 162 720 l 1,12,-1
 162 130 l 2,13,14
 162 121 162 121 168.5 114.5 c 128,-1,15
 175 108 175 108 184 108 c 2,16,-1
 644 108 l 2,17,18
 653 108 653 108 659.5 114.5 c 128,-1,19
 666 121 666 121 666 130 c 2,0,-1
553 928 m 1,20,-1
 553 820 l 1,21,-1
 445 820 l 1,22,-1
 445 928 l 1,23,-1
 553 928 l 1,20,-1
383 928 m 1,24,-1
 383 820 l 1,25,-1
 275 820 l 1,26,-1
 275 928 l 1,27,-1
 383 928 l 1,24,-1
EndSplineSet
EndChar

StartChar: Ugrave
Encoding: 217 217 64
Width: 828
Flags: MW
HStem: 0 108<148 644 184 644> 700 20G<54 162 162 162 666 774 774 774> 820 162<380 448 340 488 380 380>
VStem: 54 108<130 720> 666 108<130 720>
LayerCount: 2
Fore
SplineSet
666 130 m 2,0,-1
 666 720 l 1,1,-1
 774 720 l 1,2,-1
 774 130 l 2,3,4
 774 76 774 76 736 38 c 128,-1,5
 698 0 698 0 644 0 c 2,6,-1
 184 0 l 2,7,8
 130 0 130 0 92 38 c 128,-1,9
 54 76 54 76 54 130 c 2,10,-1
 54 720 l 1,11,-1
 162 720 l 1,12,-1
 162 130 l 2,13,14
 162 121 162 121 168.5 114.5 c 128,-1,15
 175 108 175 108 184 108 c 2,16,-1
 644 108 l 2,17,18
 653 108 653 108 659.5 114.5 c 128,-1,19
 666 121 666 121 666 130 c 2,0,-1
448 982 m 1,20,-1
 488 820 l 1,21,-1
 380 820 l 1,22,-1
 340 982 l 1,23,-1
 448 982 l 1,20,-1
EndSplineSet
EndChar

StartChar: V
Encoding: 86 86 65
Width: 1003
Flags: MW
HStem: 0 21G<451 559 451 451> 700 20G<35 160 160 160 850 974 974 974>
LayerCount: 2
Fore
SplineSet
505 122 m 1,0,-1
 850 720 l 1,1,-1
 974 720 l 1,2,-1
 559 0 l 1,3,-1
 451 0 l 1,4,-1
 35 720 l 1,5,-1
 160 720 l 1,6,-1
 505 122 l 1,0,-1
EndSplineSet
Substitution2: "'ss02' Style Set 2 in Latin lookup 5 subtable" V.alt2
Substitution2: "'ss01' Style Set 1 in Latin lookup 4 subtable" V.alt
Substitution2: "'salt' Stylistic Alternatives in Latin lookup 2 subtable" V.alt3
AlternateSubs2: "'aalt' Access All Alternates in Latin lookup 1 subtable" V.alt3 V.alt V.alt2
EndChar

StartChar: V.alt
Encoding: 57354 57354 66
Width: 774
Flags: MW
HStem: 0 21G<54 182 54 54> 700 20G<54 162 162 162 646 774 774 774>
VStem: 54 108<144 720 144 720 144 720>
LayerCount: 2
Fore
SplineSet
54 720 m 1,0,-1
 162 720 l 1,1,-1
 162 144 l 1,2,-1
 646 720 l 1,3,-1
 774 720 l 1,4,-1
 774 705 l 1,5,-1
 182 0 l 1,6,-1
 54 0 l 1,7,-1
 54 720 l 1,0,-1
EndSplineSet
EndChar

StartChar: V.alt2
Encoding: 65550 -1 67
Width: 774
Flags: MW
HStem: 0 21G<592 720 592 592> 700 20G<0 128 128 128 612 720 720 720>
VStem: 612 108<144 720 0 720>
LayerCount: 2
Fore
SplineSet
612 144 m 1,0,-1
 612 720 l 1,1,-1
 720 720 l 1,2,-1
 720 0 l 1,3,-1
 592 0 l 1,4,-1
 0 705 l 1,5,-1
 0 720 l 1,6,-1
 128 720 l 1,7,-1
 612 144 l 1,0,-1
EndSplineSet
EndChar

StartChar: V.alt3
Encoding: 65551 -1 68
Width: 827
Flags: MW
HStem: 0 108<147 665 183 665 183 773> 700 20G<53 161 161 161 665 773 773 773>
VStem: 53 108<130 720> 665 108<108 720 0 720>
LayerCount: 2
Fore
SplineSet
665 720 m 1,0,-1
 773 720 l 1,1,-1
 773 0 l 1,2,-1
 183 0 l 2,3,4
 129 0 129 0 91 38 c 128,-1,5
 53 76 53 76 53 130 c 2,6,-1
 53 720 l 1,7,-1
 161 720 l 1,8,-1
 161 130 l 2,9,10
 161 121 161 121 167.5 114.5 c 128,-1,11
 174 108 174 108 183 108 c 2,12,-1
 665 108 l 1,13,-1
 665 720 l 1,0,-1
EndSplineSet
EndChar

StartChar: W
Encoding: 87 87 69
Width: 1179
Flags: MW
HStem: 0 21G<297 384 297 297 385 385 794 882 794 794> 700 20G<35 150 150 150 532 647 647 647 1029 1144 1144 1144>
LayerCount: 2
Fore
SplineSet
1029 720 m 1,0,-1
 1144 720 l 1,1,-1
 882 0 l 1,2,-1
 794 0 l 1,3,-1
 589 561 l 1,4,-1
 385 0 l 1,5,-1
 383 1 l 1,6,-1
 384 0 l 1,7,-1
 297 0 l 1,8,-1
 35 720 l 1,9,-1
 150 720 l 1,10,-1
 341 195 l 1,11,-1
 532 720 l 1,12,-1
 647 720 l 1,13,-1
 838 195 l 1,14,-1
 1029 720 l 1,0,-1
EndSplineSet
Substitution2: "'ss02' Style Set 2 in Latin lookup 5 subtable" W.alt2
Substitution2: "'ss01' Style Set 1 in Latin lookup 4 subtable" W.alt
Substitution2: "'salt' Stylistic Alternatives in Latin lookup 2 subtable" W.alt4
AlternateSubs2: "'aalt' Access All Alternates in Latin lookup 1 subtable" W.alt4 W.alt W.alt2
EndChar

StartChar: W.alt
Encoding: 57353 57353 70
Width: 1149
Flags: MW
HStem: 0 21G<47 175 47 47 426 554 426 426> 700 20G<47 155 155 155 639 767 767 767 1018 1146 1146 1146>
VStem: 47 108<144 720 144 720 144 720> 426 108<144 299 299 299>
LayerCount: 2
Fore
SplineSet
1018 720 m 1,0,-1
 1146 720 l 1,1,-1
 1146 705 l 1,2,-1
 554 0 l 1,3,-1
 426 0 l 1,4,-1
 426 299 l 1,5,-1
 175 0 l 1,6,-1
 47 0 l 1,7,-1
 47 720 l 1,8,-1
 155 720 l 1,9,-1
 155 144 l 1,10,-1
 639 720 l 1,11,-1
 767 720 l 1,12,-1
 767 705 l 1,13,-1
 534 428 l 1,14,-1
 534 144 l 1,15,-1
 1018 720 l 1,0,-1
EndSplineSet
EndChar

StartChar: W.alt2
Encoding: 57352 57352 71
Width: 1131
Flags: MW
HStem: 0 21G<592 720 592 592 971 1099 971 971> 700 20G<0 128 128 128 379 507 507 507 991 1099 1099 1099>
VStem: 612 108<144 299 0 428> 991 108<144 720 0 720>
LayerCount: 2
Fore
SplineSet
0 720 m 1,0,-1
 128 720 l 1,1,-1
 612 144 l 1,2,-1
 612 428 l 1,3,-1
 379 705 l 1,4,-1
 379 720 l 1,5,-1
 507 720 l 1,6,-1
 991 144 l 1,7,-1
 991 720 l 1,8,-1
 1099 720 l 1,9,-1
 1099 0 l 1,10,-1
 971 0 l 1,11,-1
 720 299 l 1,12,-1
 720 0 l 1,13,-1
 592 0 l 1,14,-1
 0 705 l 1,15,-1
 0 720 l 1,0,-1
EndSplineSet
EndChar

StartChar: W.alt3
Encoding: 65552 -1 72
Width: 1028
Flags: MW
HStem: 0 21G<54 182 54 54 846 846 846 974> 700 20G<54 162 162 162 866 974 974 974>
VStem: 54 108<144 720 144 720 144 720> 866 108<144 720 0 720>
LayerCount: 2
Fore
SplineSet
514 395 m 1,0,-1
 182 0 l 1,1,-1
 54 0 l 1,2,-1
 54 720 l 1,3,-1
 162 720 l 1,4,-1
 162 144 l 1,5,-1
 514 563 l 1,6,-1
 866 144 l 1,7,-1
 866 720 l 1,8,-1
 974 720 l 1,9,-1
 974 0 l 1,10,-1
 846 0 l 1,11,-1
 514 395 l 1,0,-1
EndSplineSet
EndChar

StartChar: W.alt4
Encoding: 65553 -1 73
Width: 1155
Flags: MW
HStem: 0 108<147 535 183 535 665 993> 700 20G<53 161 161 161 535 643 643 643 993 1101 1101 1101>
VStem: 53 108<130 720> 535 108<124 130 130 720> 993 108<108 720 0 720>
LayerCount: 2
Fore
SplineSet
183 0 m 2,0,1
 129 0 129 0 91 38 c 128,-1,2
 53 76 53 76 53 130 c 2,3,-1
 53 720 l 1,4,-1
 161 720 l 1,5,-1
 161 130 l 2,6,7
 161 121 161 121 167.5 114.5 c 128,-1,8
 174 108 174 108 183 108 c 2,9,-1
 535 108 l 1,10,-1
 535 720 l 1,11,-1
 643 720 l 1,12,-1
 643 130 l 2,13,14
 643 121 643 121 649.5 114.5 c 128,-1,15
 656 108 656 108 665 108 c 2,16,-1
 993 108 l 1,17,-1
 993 720 l 1,18,-1
 1101 720 l 1,19,-1
 1101 0 l 1,20,-1
 183 0 l 2,0,1
EndSplineSet
EndChar

StartChar: X
Encoding: 88 88 74
Width: 812
Flags: MW
HStem: 0 21G<46 174 46 46 638 766 638 638> 700 20G<46 174 174 174 638 766 766 766>
LayerCount: 2
Fore
SplineSet
638 720 m 1,0,-1
 766 720 l 1,1,-1
 766 705 l 1,2,-1
 476 360 l 1,3,-1
 766 15 l 1,4,-1
 766 0 l 1,5,-1
 638 0 l 1,6,-1
 406 276 l 1,7,-1
 174 0 l 1,8,-1
 46 0 l 1,9,-1
 46 15 l 1,10,-1
 335 360 l 1,11,-1
 46 705 l 1,12,-1
 46 720 l 1,13,-1
 174 720 l 1,14,-1
 406 444 l 1,15,-1
 638 720 l 1,0,-1
EndSplineSet
Substitution2: "'salt' Stylistic Alternatives in Latin lookup 2 subtable" X.alt
Substitution2: "'aalt' Access All Alternates in Latin lookup 0 subtable" X.alt
EndChar

StartChar: X.alt
Encoding: 65554 -1 75
Width: 829
Flags: MW
HStem: 0 21G<55 163 55 55 666 774 666 666> 303 54<163 185 163 644> 357 54<163 645 184 665.5> 700 20G<54 162 162 162 667 775 775 775>
VStem: 54 108<453 720> 667 107
LayerCount: 2
Fore
SplineSet
667 720 m 1,0,-1
 775 720 l 1,1,-1
 775 453 l 2,2,3
 775 411 775 411 731 384 c 128,-1,4
 687 357 687 357 627 357 c 1,5,6
 687 357 687 357 730.5 330 c 128,-1,7
 774 303 774 303 774 261 c 2,8,-1
 774 0 l 1,9,-1
 666 0 l 1,10,-1
 666 281 l 2,11,12
 666 290 666 290 659.5 296.5 c 128,-1,13
 653 303 653 303 644 303 c 2,14,-1
 185 303 l 2,15,16
 176 303 176 303 169.5 296.5 c 128,-1,17
 163 290 163 290 163 281 c 2,18,-1
 163 0 l 1,19,-1
 55 0 l 1,20,-1
 55 261 l 2,21,22
 55 303 55 303 98.5 330 c 128,-1,23
 142 357 142 357 202 357 c 1,24,25
 141 357 141 357 97.5 384 c 128,-1,26
 54 411 54 411 54 453 c 2,27,-1
 54 720 l 1,28,-1
 162 720 l 1,29,-1
 162 433 l 2,30,31
 162 424 162 424 168.5 417.5 c 128,-1,32
 175 411 175 411 184 411 c 2,33,-1
 645 411 l 2,34,35
 654 411 654 411 660.5 417.5 c 128,-1,36
 667 424 667 424 667 433 c 2,37,-1
 667 720 l 1,0,-1
EndSplineSet
EndChar

StartChar: Y
Encoding: 89 89 76
Width: 806
Flags: MW
HStem: 0 21G<349 457 349 349> 700 20G<17 144 144 144 661 789 789 789>
VStem: 349 108<0 270 0 270>
LayerCount: 2
Fore
SplineSet
661 720 m 1,0,-1
 789 720 l 1,1,-1
 457 270 l 1,2,-1
 457 0 l 1,3,-1
 349 0 l 1,4,-1
 349 270 l 1,5,-1
 17 720 l 1,6,-1
 144 720 l 1,7,-1
 403 392 l 1,8,-1
 661 720 l 1,0,-1
EndSplineSet
Substitution2: "'salt' Stylistic Alternatives in Latin lookup 2 subtable" Y.alt
Substitution2: "'aalt' Access All Alternates in Latin lookup 0 subtable" Y.alt
EndChar

StartChar: Y.alt
Encoding: 65555 -1 77
Width: 824
Flags: MW
HStem: 0 108<51 641 51 641> 306 108<145 663 181 641> 700 20G<51 159 159 159 663 771 771 771>
VStem: 51 108<436 720> 663 108<130 284 284 290 414 720>
LayerCount: 2
Fore
SplineSet
663 720 m 1,0,-1
 771 720 l 1,1,-1
 771 130 l 2,2,3
 771 76 771 76 733 38 c 128,-1,4
 695 0 695 0 641 0 c 2,5,-1
 51 0 l 1,6,-1
 51 108 l 1,7,-1
 641 108 l 2,8,9
 650 108 650 108 656.5 114.5 c 128,-1,10
 663 121 663 121 663 130 c 2,11,-1
 663 284 l 2,12,13
 663 293 663 293 656.5 299.5 c 128,-1,14
 650 306 650 306 641 306 c 2,15,-1
 181 306 l 2,16,17
 127 306 127 306 89 344 c 128,-1,18
 51 382 51 382 51 436 c 2,19,-1
 51 720 l 1,20,-1
 159 720 l 1,21,-1
 159 436 l 2,22,23
 159 427 159 427 165.5 420.5 c 128,-1,24
 172 414 172 414 181 414 c 2,25,-1
 663 414 l 1,26,-1
 663 720 l 1,0,-1
EndSplineSet
EndChar

StartChar: Yacute
Encoding: 221 221 78
Width: 806
Flags: MW
HStem: 0 21G<349 457 349 349> 700 20G<17 144 144 144 661 789 789 789> 820 162<329 477 369 437>
VStem: 349 108<0 270 0 270>
LayerCount: 2
Fore
SplineSet
661 720 m 1,0,-1
 789 720 l 1,1,-1
 457 270 l 1,2,-1
 457 0 l 1,3,-1
 349 0 l 1,4,-1
 349 270 l 1,5,-1
 17 720 l 1,6,-1
 144 720 l 1,7,-1
 403 392 l 1,8,-1
 661 720 l 1,0,-1
329 820 m 1,9,-1
 369 982 l 1,10,-1
 477 982 l 1,11,-1
 437 820 l 1,12,-1
 329 820 l 1,9,-1
EndSplineSet
EndChar

StartChar: Ydieresis
Encoding: 376 376 79
Width: 806
Flags: MW
HStem: 0 21G<349 457 349 349> 700 20G<17 144 144 144 661 789 789 789> 820 108<264 372 264 372 434 542 264 434>
VStem: 264 108<820 928 820 928> 349 108<0 270 0 270> 434 108<820 928 820 928>
LayerCount: 2
Fore
SplineSet
661 720 m 1,0,-1
 789 720 l 1,1,-1
 457 270 l 1,2,-1
 457 0 l 1,3,-1
 349 0 l 1,4,-1
 349 270 l 1,5,-1
 17 720 l 1,6,-1
 144 720 l 1,7,-1
 403 392 l 1,8,-1
 661 720 l 1,0,-1
542 928 m 1,9,-1
 542 820 l 1,10,-1
 434 820 l 1,11,-1
 434 928 l 1,12,-1
 542 928 l 1,9,-1
372 928 m 1,13,-1
 372 820 l 1,14,-1
 264 820 l 1,15,-1
 264 928 l 1,16,-1
 372 928 l 1,13,-1
EndSplineSet
EndChar

StartChar: Z
Encoding: 90 90 80
Width: 821
Flags: MW
HStem: 0 108<195 771 195 771> 612 108<51 771 51 627>
LayerCount: 2
Fore
SplineSet
51 612 m 1,0,-1
 51 720 l 1,1,-1
 771 720 l 1,2,-1
 771 592 l 1,3,-1
 195 108 l 1,4,-1
 771 108 l 1,5,-1
 771 0 l 1,6,-1
 51 0 l 1,7,-1
 51 128 l 1,8,-1
 627 612 l 1,9,-1
 51 612 l 1,0,-1
EndSplineSet
Substitution2: "'salt' Stylistic Alternatives in Latin lookup 2 subtable" Z.alt
Substitution2: "'aalt' Access All Alternates in Latin lookup 0 subtable" Z.alt
EndChar

StartChar: Z.alt
Encoding: 65556 -1 81
Width: 818
Flags: MW
HStem: 0 108<143 769 179 769> 306 108<173 299 179 299 299 639> 612 108<49 639 49 639>
VStem: 49 108<130 284> 661 108<436 590>
CounterMasks: 1 e0
LayerCount: 2
Fore
SplineSet
179 414 m 2,0,-1
 299 414 l 1,1,-1
 639 414 l 2,2,3
 648 414 648 414 654.5 420.5 c 128,-1,4
 661 427 661 427 661 436 c 2,5,-1
 661 590 l 2,6,7
 661 599 661 599 654.5 605.5 c 128,-1,8
 648 612 648 612 639 612 c 2,9,-1
 49 612 l 1,10,-1
 49 720 l 1,11,-1
 639 720 l 2,12,13
 693 720 693 720 731 682 c 128,-1,14
 769 644 769 644 769 590 c 2,15,-1
 769 436 l 2,16,17
 769 382 769 382 731 344 c 128,-1,18
 693 306 693 306 639 306 c 2,19,-1
 179 306 l 2,20,21
 170 306 170 306 163.5 299.5 c 128,-1,22
 157 293 157 293 157 284 c 2,23,-1
 157 130 l 2,24,25
 157 121 157 121 163.5 114.5 c 128,-1,26
 170 108 170 108 179 108 c 2,27,-1
 769 108 l 1,28,-1
 769 0 l 1,29,-1
 179 0 l 2,30,31
 125 0 125 0 87 38 c 128,-1,32
 49 76 49 76 49 130 c 2,33,-1
 49 284 l 2,34,35
 49 338 49 338 87 376 c 128,-1,36
 125 414 125 414 179 414 c 2,0,-1
EndSplineSet
EndChar

StartChar: Zcaron
Encoding: 381 381 82
Width: 821
Flags: MW
HStem: 0 108<195 771 195 771> 612 108<51 771 51 627> 819 21G<373 447 373 373> 940 20G<288 362 362 362 457 532 532 532>
LayerCount: 2
Fore
SplineSet
51 612 m 1,0,-1
 51 720 l 1,1,-1
 771 720 l 1,2,-1
 771 592 l 1,3,-1
 195 108 l 1,4,-1
 771 108 l 1,5,-1
 771 0 l 1,6,-1
 51 0 l 1,7,-1
 51 128 l 1,8,-1
 627 612 l 1,9,-1
 51 612 l 1,0,-1
288 960 m 1,10,-1
 362 960 l 1,11,-1
 410 884 l 1,12,-1
 457 960 l 1,13,-1
 532 960 l 1,14,-1
 447 819 l 1,15,-1
 373 819 l 1,16,-1
 288 960 l 1,10,-1
EndSplineSet
EndChar

StartChar: a
Encoding: 97 97 83
Width: 694
Flags: MW
HStem: 0 108<146 534 182 534 182 642> 236 108<160 534 160 160> 472 108<52 512 52 512>
VStem: 52 108<130 236 124 344> 534 108<108 236 236 236 344 450 0 456>
CounterMasks: 1 e0
LayerCount: 2
Fore
SplineSet
512 580 m 2,0,1
 566 580 566 580 604 542 c 128,-1,2
 642 504 642 504 642 450 c 2,3,-1
 642 0 l 1,4,-1
 182 0 l 2,5,6
 128 0 128 0 90 38 c 128,-1,7
 52 76 52 76 52 130 c 2,8,-1
 52 344 l 1,9,-1
 534 344 l 1,10,-1
 534 450 l 2,11,12
 534 459 534 459 527.5 465.5 c 128,-1,13
 521 472 521 472 512 472 c 2,14,-1
 52 472 l 1,15,-1
 52 580 l 1,16,-1
 512 580 l 2,0,1
534 108 m 1,17,-1
 534 236 l 1,18,-1
 160 236 l 1,19,-1
 160 130 l 2,20,21
 160 121 160 121 166.5 114.5 c 128,-1,22
 173 108 173 108 182 108 c 2,23,-1
 534 108 l 1,17,-1
EndSplineSet
Substitution2: "'smcp' Lowercase to Small Capitals in Latin lookup 3 subtable" a.sc
Substitution2: "'salt' Stylistic Alternatives in Latin lookup 2 subtable" a.alt
AlternateSubs2: "'aalt' Access All Alternates in Latin lookup 1 subtable" a.sc a.alt
EndChar

StartChar: a.alt
Encoding: 65557 -1 84
Width: 693
Flags: MW
HStem: 0 108<145 533 181 533 181 641> 472 108<175 511 181 511>
VStem: 51 108<130 450> 533 108<108 450 0 456>
LayerCount: 2
Fore
SplineSet
511 580 m 2,0,1
 565 580 565 580 603 542 c 128,-1,2
 641 504 641 504 641 450 c 2,3,-1
 641 0 l 1,4,-1
 181 0 l 2,5,6
 127 0 127 0 89 38 c 128,-1,7
 51 76 51 76 51 130 c 2,8,-1
 51 450 l 2,9,10
 51 504 51 504 89 542 c 128,-1,11
 127 580 127 580 181 580 c 2,12,-1
 511 580 l 2,0,1
181 108 m 2,13,-1
 533 108 l 1,14,-1
 533 450 l 2,15,16
 533 459 533 459 526.5 465.5 c 128,-1,17
 520 472 520 472 511 472 c 2,18,-1
 181 472 l 2,19,20
 172 472 172 472 165.5 465.5 c 128,-1,21
 159 459 159 459 159 450 c 2,22,-1
 159 130 l 2,23,24
 159 121 159 121 165.5 114.5 c 128,-1,25
 172 108 172 108 181 108 c 2,13,-1
EndSplineSet
EndChar

StartChar: a.sc
Encoding: 65558 -1 85
Width: 725
Flags: MW
HStem: 0 21G<53 161 53 53 565 673 565 565> 152 108<161 565 161 565> 472 108<177 543 183 543>
VStem: 53 108<0 152 260 450> 565 108<0 152 152 152 260 450 0 456>
LayerCount: 2
Fore
SplineSet
183 580 m 2,0,-1
 543 580 l 2,1,2
 597 580 597 580 635 542 c 128,-1,3
 673 504 673 504 673 450 c 2,4,-1
 673 0 l 1,5,-1
 565 0 l 1,6,-1
 565 152 l 1,7,-1
 161 152 l 1,8,-1
 161 0 l 1,9,-1
 53 0 l 1,10,-1
 53 450 l 2,11,12
 53 504 53 504 91 542 c 128,-1,13
 129 580 129 580 183 580 c 2,0,-1
161 260 m 1,14,-1
 565 260 l 1,15,-1
 565 450 l 2,16,17
 565 459 565 459 558.5 465.5 c 128,-1,18
 552 472 552 472 543 472 c 2,19,-1
 183 472 l 2,20,21
 174 472 174 472 167.5 465.5 c 128,-1,22
 161 459 161 459 161 450 c 2,23,-1
 161 260 l 1,14,-1
EndSplineSet
EndChar

StartChar: aacute
Encoding: 225 225 86
Width: 725
Flags: MW
HStem: 0 108<146 534 182 534 182 642> 236 108<160 534 160 160> 472 108<52 512 52 512> 718 162<288 436 328 396>
VStem: 52 108<130 236 124 344> 534 108<108 236 236 236 344 450 0 456>
LayerCount: 2
Fore
SplineSet
512 580 m 2,0,1
 566 580 566 580 604 542 c 128,-1,2
 642 504 642 504 642 450 c 2,3,-1
 642 0 l 1,4,-1
 182 0 l 2,5,6
 128 0 128 0 90 38 c 128,-1,7
 52 76 52 76 52 130 c 2,8,-1
 52 344 l 1,9,-1
 534 344 l 1,10,-1
 534 450 l 2,11,12
 534 459 534 459 527.5 465.5 c 128,-1,13
 521 472 521 472 512 472 c 2,14,-1
 52 472 l 1,15,-1
 52 580 l 1,16,-1
 512 580 l 2,0,1
534 108 m 1,17,-1
 534 236 l 1,18,-1
 160 236 l 1,19,-1
 160 130 l 2,20,21
 160 121 160 121 166.5 114.5 c 128,-1,22
 173 108 173 108 182 108 c 2,23,-1
 534 108 l 1,17,-1
288 718 m 1,24,-1
 328 880 l 1,25,-1
 436 880 l 1,26,-1
 396 718 l 1,27,-1
 288 718 l 1,24,-1
EndSplineSet
EndChar

StartChar: acircumflex
Encoding: 226 226 87
Width: 725
Flags: MW
HStem: 0 108<146 534 182 534 182 642> 236 108<160 534 160 160> 472 108<52 512 52 512> 718 21G<240 314 240 240 409 409 409 484> 839 20G<325 399 399 399>
VStem: 52 108<130 236 124 344> 534 108<108 236 236 236 344 450 0 456>
LayerCount: 2
Fore
SplineSet
512 580 m 2,0,1
 566 580 566 580 604 542 c 128,-1,2
 642 504 642 504 642 450 c 2,3,-1
 642 0 l 1,4,-1
 182 0 l 2,5,6
 128 0 128 0 90 38 c 128,-1,7
 52 76 52 76 52 130 c 2,8,-1
 52 344 l 1,9,-1
 534 344 l 1,10,-1
 534 450 l 2,11,12
 534 459 534 459 527.5 465.5 c 128,-1,13
 521 472 521 472 512 472 c 2,14,-1
 52 472 l 1,15,-1
 52 580 l 1,16,-1
 512 580 l 2,0,1
534 108 m 1,17,-1
 534 236 l 1,18,-1
 160 236 l 1,19,-1
 160 130 l 2,20,21
 160 121 160 121 166.5 114.5 c 128,-1,22
 173 108 173 108 182 108 c 2,23,-1
 534 108 l 1,17,-1
314 718 m 1,24,-1
 240 718 l 1,25,-1
 325 859 l 1,26,-1
 399 859 l 1,27,-1
 484 718 l 1,28,-1
 409 718 l 1,29,-1
 362 794 l 1,30,-1
 314 718 l 1,24,-1
EndSplineSet
EndChar

StartChar: acute
Encoding: 180 180 88
Width: 213
Flags: MW
HStem: 827 162<33 181 73 141>
LayerCount: 2
Fore
SplineSet
33 827 m 1,0,-1
 73 989 l 1,1,-1
 181 989 l 1,2,-1
 141 827 l 1,3,-1
 33 827 l 1,0,-1
EndSplineSet
EndChar

StartChar: adieresis
Encoding: 228 228 89
Width: 725
Flags: MW
HStem: 0 108<146 534 182 534 182 642> 236 108<160 534 160 160> 472 108<52 512 52 512> 718 108<223 331 223 331 393 501 223 393>
VStem: 52 108<130 236 124 344> 223 108<718 826 718 826> 393 108<718 826 718 826> 534 108<108 236 236 236 344 450 0 456>
LayerCount: 2
Fore
SplineSet
512 580 m 2,0,1
 566 580 566 580 604 542 c 128,-1,2
 642 504 642 504 642 450 c 2,3,-1
 642 0 l 1,4,-1
 182 0 l 2,5,6
 128 0 128 0 90 38 c 128,-1,7
 52 76 52 76 52 130 c 2,8,-1
 52 344 l 1,9,-1
 534 344 l 1,10,-1
 534 450 l 2,11,12
 534 459 534 459 527.5 465.5 c 128,-1,13
 521 472 521 472 512 472 c 2,14,-1
 52 472 l 1,15,-1
 52 580 l 1,16,-1
 512 580 l 2,0,1
534 108 m 1,17,-1
 534 236 l 1,18,-1
 160 236 l 1,19,-1
 160 130 l 2,20,21
 160 121 160 121 166.5 114.5 c 128,-1,22
 173 108 173 108 182 108 c 2,23,-1
 534 108 l 1,17,-1
501 826 m 1,24,-1
 501 718 l 1,25,-1
 393 718 l 1,26,-1
 393 826 l 1,27,-1
 501 826 l 1,24,-1
331 826 m 1,28,-1
 331 718 l 1,29,-1
 223 718 l 1,30,-1
 223 826 l 1,31,-1
 331 826 l 1,28,-1
EndSplineSet
EndChar

StartChar: ae
Encoding: 230 230 90
Width: 1178
Flags: MW
HStem: 0 108<147 535 183 535 665 1125> 236 108<161 535 161 161 643 1017> 472 108<53 513 53 995 659 665 665 995>
VStem: 53 108<130 236 124 344> 535 108<127 236 127 236 127 236 344 450> 1017 108<344 450>
CounterMasks: 1 fc
LayerCount: 2
Fore
SplineSet
995 580 m 2,0,1
 1049 580 1049 580 1087 542 c 128,-1,2
 1125 504 1125 504 1125 450 c 2,3,-1
 1125 236 l 1,4,-1
 643 236 l 1,5,-1
 643 127 l 1,6,7
 645 108 645 108 665 108 c 2,8,-1
 1125 108 l 1,9,-1
 1125 0 l 1,10,-1
 183 0 l 2,11,12
 129 0 129 0 91 38 c 128,-1,13
 53 76 53 76 53 130 c 2,14,-1
 53 344 l 1,15,-1
 535 344 l 1,16,-1
 535 450 l 2,17,18
 535 459 535 459 528.5 465.5 c 128,-1,19
 522 472 522 472 513 472 c 2,20,-1
 53 472 l 1,21,-1
 53 580 l 1,22,-1
 995 580 l 2,0,1
535 108 m 1,23,-1
 535 236 l 1,24,-1
 161 236 l 1,25,-1
 161 130 l 2,26,27
 161 121 161 121 167.5 114.5 c 128,-1,28
 174 108 174 108 183 108 c 2,29,-1
 535 108 l 1,23,-1
643 344 m 1,30,-1
 1017 344 l 1,31,-1
 1017 450 l 2,32,33
 1017 459 1017 459 1010.5 465.5 c 128,-1,34
 1004 472 1004 472 995 472 c 2,35,-1
 665 472 l 2,36,37
 656 472 656 472 649.5 465.5 c 128,-1,38
 643 459 643 459 643 450 c 2,39,-1
 643 344 l 1,30,-1
EndSplineSet
EndChar

StartChar: agrave
Encoding: 224 224 91
Width: 725
Flags: MW
HStem: 0 108<146 534 182 534 182 642> 236 108<160 534 160 160> 472 108<52 512 52 512> 718 162<328 396 288 436 328 328>
VStem: 52 108<130 236 124 344> 534 108<108 236 236 236 344 450 0 456>
LayerCount: 2
Fore
SplineSet
512 580 m 2,0,1
 566 580 566 580 604 542 c 128,-1,2
 642 504 642 504 642 450 c 2,3,-1
 642 0 l 1,4,-1
 182 0 l 2,5,6
 128 0 128 0 90 38 c 128,-1,7
 52 76 52 76 52 130 c 2,8,-1
 52 344 l 1,9,-1
 534 344 l 1,10,-1
 534 450 l 2,11,12
 534 459 534 459 527.5 465.5 c 128,-1,13
 521 472 521 472 512 472 c 2,14,-1
 52 472 l 1,15,-1
 52 580 l 1,16,-1
 512 580 l 2,0,1
534 108 m 1,17,-1
 534 236 l 1,18,-1
 160 236 l 1,19,-1
 160 130 l 2,20,21
 160 121 160 121 166.5 114.5 c 128,-1,22
 173 108 173 108 182 108 c 2,23,-1
 534 108 l 1,17,-1
396 880 m 1,24,-1
 436 718 l 1,25,-1
 328 718 l 1,26,-1
 288 880 l 1,27,-1
 396 880 l 1,24,-1
EndSplineSet
EndChar

StartChar: ampersand
Encoding: 38 38 92
Width: 938
Flags: MW
HStem: 0 108<147 643 183 643> 541 179<635 645 223 743 635 635> 611 109<217 613 223 613>
VStem: 53 108<130 334> 93 108<486 589 457 590 457 626> 635 108<541 589 589 595> 665 108<223 346>
LayerCount: 2
Fore
SplineSet
773 181 m 1,0,-1
 900 107 l 1,1,-1
 900 3 l 1,2,-1
 763 81 l 1,3,4
 749 45 749 45 716.5 22.5 c 128,-1,5
 684 0 684 0 643 0 c 2,6,-1
 183 0 l 2,7,8
 129 0 129 0 91 38 c 128,-1,9
 53 76 53 76 53 130 c 2,10,-1
 53 334 l 2,11,12
 53 359 53 359 71 384.5 c 128,-1,13
 89 410 89 410 118 410 c 1,14,15
 93 429 93 429 93 486 c 2,16,-1
 93 590 l 2,17,18
 93 644 93 644 131 682 c 128,-1,19
 169 720 169 720 223 720 c 2,20,-1
 613 720 l 2,21,22
 661 720 661 720 698 689 c 128,-1,23
 735 658 735 658 743 612 c 1,24,-1
 743 541 l 1,25,-1
 635 541 l 1,26,-1
 635 589 l 2,27,28
 635 598 635 598 628.5 604.5 c 128,-1,29
 622 611 622 611 613 611 c 2,30,-1
 223 611 l 2,31,32
 214 611 214 611 207.5 604.5 c 128,-1,33
 201 598 201 598 201 589 c 2,34,-1
 201 457 l 1,35,-1
 665 223 l 1,36,-1
 665 346 l 1,37,-1
 773 346 l 1,38,-1
 773 181 l 1,0,-1
183 108 m 2,39,-1
 643 108 l 2,40,41
 657 108 657 108 662 120 c 1,42,-1
 194 356 l 1,43,-1
 183 356 l 2,44,45
 174 356 174 356 167.5 349.5 c 128,-1,46
 161 343 161 343 161 334 c 2,47,-1
 161 130 l 2,48,49
 161 121 161 121 167.5 114.5 c 128,-1,50
 174 108 174 108 183 108 c 2,39,-1
EndSplineSet
EndChar

StartChar: aring
Encoding: 229 229 93
Width: 725
Flags: MW
HStem: 0 108<146 534 182 534 182 642> 236 108<160 534 160 160> 472 108<52 512 52 512> 718 40<329 334 334 390> 838 40<326.5 390 334 390 390 395>
VStem: 52 108<130 236 124 344> 280 40<771 825 825 828> 404 40<768 771 771 825> 534 108<108 236 236 236 344 450 0 456>
LayerCount: 2
Fore
SplineSet
512 580 m 2,0,1
 566 580 566 580 604 542 c 128,-1,2
 642 504 642 504 642 450 c 2,3,-1
 642 0 l 1,4,-1
 182 0 l 2,5,6
 128 0 128 0 90 38 c 128,-1,7
 52 76 52 76 52 130 c 2,8,-1
 52 344 l 1,9,-1
 534 344 l 1,10,-1
 534 450 l 2,11,12
 534 459 534 459 527.5 465.5 c 128,-1,13
 521 472 521 472 512 472 c 2,14,-1
 52 472 l 1,15,-1
 52 580 l 1,16,-1
 512 580 l 2,0,1
534 108 m 1,17,-1
 534 236 l 1,18,-1
 160 236 l 1,19,-1
 160 130 l 2,20,21
 160 121 160 121 166.5 114.5 c 128,-1,22
 173 108 173 108 182 108 c 2,23,-1
 534 108 l 1,17,-1
334 878 m 2,24,-1
 390 878 l 2,25,26
 412 878 412 878 428 862.5 c 128,-1,27
 444 847 444 847 444 825 c 2,28,-1
 444 771 l 2,29,30
 444 749 444 749 428 733.5 c 128,-1,31
 412 718 412 718 390 718 c 2,32,-1
 334 718 l 2,33,34
 312 718 312 718 296 733.5 c 128,-1,35
 280 749 280 749 280 771 c 2,36,-1
 280 825 l 2,37,38
 280 847 280 847 296 862.5 c 128,-1,39
 312 878 312 878 334 878 c 2,24,-1
329 758 m 2,40,-1
 395 758 l 2,41,42
 404 758 404 758 404 768 c 2,43,-1
 404 828 l 2,44,45
 404 838 404 838 395 838 c 2,46,-1
 329 838 l 2,47,48
 320 838 320 838 320 828 c 2,49,-1
 320 768 l 2,50,51
 320 758 320 758 329 758 c 2,40,-1
EndSplineSet
EndChar

StartChar: asciitilde
Encoding: 126 126 94
Width: 404
Flags: MW
HStem: 232 134<83 313.5> 300 66<87 135 83 136>
LayerCount: 2
Fore
SplineSet
298 298 m 1,0,1
 337 298 337 298 376 324 c 1,2,-1
 376 250 l 1,3,4
 334 232 334 232 298 232 c 0,5,6
 263 232 263 232 200 266 c 128,-1,7
 137 300 137 300 98 300 c 0,8,9
 38 300 38 300 24 277 c 1,10,-1
 24 352 l 1,11,12
 57 366 57 366 98 366 c 0,13,14
 137 366 137 366 200.5 334 c 128,-1,15
 264 302 264 302 298 298 c 1,0,1
EndSplineSet
EndChar

StartChar: asterisk
Encoding: 42 42 95
Width: 491
Flags: MW
HStem: 300 21G<163 163 328 328> 699 20G<191 299 299 299>
VStem: 191 108<579 719 579 719>
LayerCount: 2
Fore
SplineSet
432 623 m 1,0,-1
 466 520 l 1,1,-1
 333 477 l 1,2,-1
 415 363 l 1,3,-1
 328 300 l 1,4,-1
 245 413 l 1,5,-1
 163 300 l 1,6,-1
 76 363 l 1,7,-1
 158 477 l 1,8,-1
 25 520 l 1,9,-1
 58 623 l 1,10,-1
 191 579 l 1,11,-1
 191 719 l 1,12,-1
 299 719 l 1,13,-1
 299 579 l 1,14,-1
 432 623 l 1,0,-1
EndSplineSet
EndChar

StartChar: at
Encoding: 64 64 96
Width: 831
Flags: MW
HStem: 0 108<151 777 187 777> 190 88<352 372 372 504 592 669> 442 88<346 462 372 462 462 482> 612 108<181 647 187 647>
VStem: 57 108<130 590> 242 88<320 400 400 420> 504 88<278 400 278 420 278 426> 669 108<278 590>
LayerCount: 2
Fore
SplineSet
372 530 m 2,0,-1
 462 530 l 2,1,2
 516 530 516 530 554 492 c 128,-1,3
 592 454 592 454 592 400 c 2,4,-1
 592 278 l 1,5,-1
 669 278 l 1,6,-1
 669 590 l 2,7,8
 669 599 669 599 662.5 605.5 c 128,-1,9
 656 612 656 612 647 612 c 2,10,-1
 187 612 l 2,11,12
 178 612 178 612 171.5 605.5 c 128,-1,13
 165 599 165 599 165 590 c 2,14,-1
 165 130 l 2,15,16
 165 121 165 121 171.5 114.5 c 128,-1,17
 178 108 178 108 187 108 c 2,18,-1
 777 108 l 1,19,-1
 777 0 l 1,20,-1
 187 0 l 2,21,22
 133 0 133 0 95 38 c 128,-1,23
 57 76 57 76 57 130 c 2,24,-1
 57 590 l 2,25,26
 57 644 57 644 95 682 c 128,-1,27
 133 720 133 720 187 720 c 2,28,-1
 647 720 l 2,29,30
 701 720 701 720 739 682 c 128,-1,31
 777 644 777 644 777 590 c 2,32,-1
 777 190 l 1,33,-1
 372 190 l 2,34,35
 318 190 318 190 280 228 c 128,-1,36
 242 266 242 266 242 320 c 2,37,-1
 242 400 l 2,38,39
 242 454 242 454 280 492 c 128,-1,40
 318 530 318 530 372 530 c 2,0,-1
352 278 m 2,41,-1
 504 278 l 1,42,-1
 504 420 l 2,43,44
 504 429 504 429 497.5 435.5 c 128,-1,45
 491 442 491 442 482 442 c 2,46,-1
 352 442 l 2,47,48
 343 442 343 442 336.5 435.5 c 128,-1,49
 330 429 330 429 330 420 c 2,50,-1
 330 300 l 2,51,52
 330 291 330 291 336.5 284.5 c 128,-1,53
 343 278 343 278 352 278 c 2,41,-1
EndSplineSet
EndChar

StartChar: atilde
Encoding: 227 227 97
Width: 725
Flags: MW
HStem: 0 108<146 534 182 534 182 642> 236 108<160 534 160 160> 472 108<52 512 52 512> 721 134<245 475.5> 789 66<249 297 245 298>
VStem: 52 108<130 236 124 344> 534 108<108 236 236 236 344 450 0 456>
LayerCount: 2
Fore
SplineSet
512 580 m 2,0,1
 566 580 566 580 604 542 c 128,-1,2
 642 504 642 504 642 450 c 2,3,-1
 642 0 l 1,4,-1
 182 0 l 2,5,6
 128 0 128 0 90 38 c 128,-1,7
 52 76 52 76 52 130 c 2,8,-1
 52 344 l 1,9,-1
 534 344 l 1,10,-1
 534 450 l 2,11,12
 534 459 534 459 527.5 465.5 c 128,-1,13
 521 472 521 472 512 472 c 2,14,-1
 52 472 l 1,15,-1
 52 580 l 1,16,-1
 512 580 l 2,0,1
534 108 m 1,17,-1
 534 236 l 1,18,-1
 160 236 l 1,19,-1
 160 130 l 2,20,21
 160 121 160 121 166.5 114.5 c 128,-1,22
 173 108 173 108 182 108 c 2,23,-1
 534 108 l 1,17,-1
460 787 m 1,24,25
 499 787 499 787 538 813 c 1,26,-1
 538 739 l 1,27,28
 496 721 496 721 460 721 c 0,29,30
 425 721 425 721 362 755 c 128,-1,31
 299 789 299 789 260 789 c 0,32,33
 200 789 200 789 186 766 c 1,34,-1
 186 841 l 1,35,36
 219 855 219 855 260 855 c 0,37,38
 299 855 299 855 362.5 823 c 128,-1,39
 426 791 426 791 460 787 c 1,24,25
EndSplineSet
EndChar

StartChar: b
Encoding: 98 98 98
Width: 667
Flags: MW
HStem: 0 108<184 514 184 514> 472 108<178 184 184 514> 750 20G<54 162 162 162>
VStem: 54 108<124 130 130 450 580 770> 536 108<130 450>
LayerCount: 2
Fore
SplineSet
514 580 m 2,0,1
 568 580 568 580 606 542 c 128,-1,2
 644 504 644 504 644 450 c 2,3,-1
 644 130 l 2,4,5
 644 76 644 76 606 38 c 128,-1,6
 568 0 568 0 514 0 c 2,7,-1
 54 0 l 1,8,-1
 54 770 l 1,9,-1
 162 770 l 1,10,-1
 162 580 l 1,11,-1
 514 580 l 2,0,1
536 130 m 2,12,-1
 536 450 l 2,13,14
 536 459 536 459 529.5 465.5 c 128,-1,15
 523 472 523 472 514 472 c 2,16,-1
 184 472 l 2,17,18
 175 472 175 472 168.5 465.5 c 128,-1,19
 162 459 162 459 162 450 c 2,20,-1
 162 130 l 2,21,22
 162 121 162 121 168.5 114.5 c 128,-1,23
 175 108 175 108 184 108 c 2,24,-1
 514 108 l 2,25,26
 523 108 523 108 529.5 114.5 c 128,-1,27
 536 121 536 121 536 130 c 2,12,-1
EndSplineSet
Substitution2: "'smcp' Lowercase to Small Capitals in Latin lookup 3 subtable" b.sc
Substitution2: "'aalt' Access All Alternates in Latin lookup 0 subtable" b.sc
EndChar

StartChar: b.sc
Encoding: 65559 -1 99
Width: 700
Flags: MW
HStem: 0 108<184 524 184 524> 233 108<178 494 184 494 494 500 184 524> 473 108<178 184 184 494>
VStem: 54 108<124 130 130 211 357 363 363 451> 516 108<363 451 353 457> 546 108<130 211 94 217>
LayerCount: 2
Fore
SplineSet
611 307 m 1,0,1
 654 269 654 269 654 211 c 2,2,-1
 654 130 l 2,3,4
 654 76 654 76 616 38 c 128,-1,5
 578 0 578 0 524 0 c 2,6,-1
 54 0 l 1,7,-1
 54 581 l 1,8,-1
 494 581 l 2,9,10
 548 581 548 581 586 543 c 128,-1,11
 624 505 624 505 624 451 c 2,12,-1
 624 363 l 2,13,14
 624 335 624 335 611 307 c 1,0,1
494 473 m 2,15,-1
 184 473 l 2,16,17
 175 473 175 473 168.5 466.5 c 128,-1,18
 162 460 162 460 162 451 c 2,19,-1
 162 363 l 2,20,21
 162 354 162 354 168.5 347.5 c 128,-1,22
 175 341 175 341 184 341 c 2,23,-1
 494 341 l 2,24,25
 503 341 503 341 509.5 347.5 c 128,-1,26
 516 354 516 354 516 363 c 2,27,-1
 516 451 l 2,28,29
 516 460 516 460 509.5 466.5 c 128,-1,30
 503 473 503 473 494 473 c 2,15,-1
546 130 m 2,31,-1
 546 211 l 2,32,33
 546 220 546 220 539.5 226.5 c 128,-1,34
 533 233 533 233 524 233 c 2,35,-1
 184 233 l 2,36,37
 175 233 175 233 168.5 226.5 c 128,-1,38
 162 220 162 220 162 211 c 2,39,-1
 162 130 l 2,40,41
 162 121 162 121 168.5 114.5 c 128,-1,42
 175 108 175 108 184 108 c 2,43,-1
 524 108 l 2,44,45
 533 108 533 108 539.5 114.5 c 128,-1,46
 546 121 546 121 546 130 c 2,31,-1
EndSplineSet
EndChar

StartChar: backslash
Encoding: 92 92 100
Width: 520
Flags: MW
HStem: 0 21G<500 515 500 500> 700 20G<5 20 20 20>
LayerCount: 2
Fore
SplineSet
5 720 m 1,0,-1
 20 720 l 1,1,-1
 515 128 l 1,2,-1
 515 0 l 1,3,-1
 500 0 l 1,4,-1
 5 592 l 1,5,-1
 5 720 l 1,0,-1
EndSplineSet
EndChar

StartChar: bar
Encoding: 124 124 101
Width: 214
Flags: MW
HStem: -109 21G<54 54 54 162> 808 20G<54 162 162 162>
VStem: 54 108<-109 828 -109 828>
LayerCount: 2
Fore
SplineSet
54 -109 m 1,0,-1
 54 828 l 1,1,-1
 162 828 l 1,2,-1
 162 -109 l 1,3,-1
 54 -109 l 1,0,-1
EndSplineSet
EndChar

StartChar: braceleft
Encoding: 123 123 102
Width: 289
Flags: MW
HStem: 0 21G<161 197 197 239> 700 20G<197 239 239 239>
VStem: 67 108<130 286 286 286 445 590> 67 172<0 286 612 626>
LayerCount: 2
Fore
SplineSet
175 308 m 1,0,-1
 175 130 l 2,1,2
 175 121 175 121 181.5 114.5 c 128,-1,3
 188 108 188 108 197 108 c 2,4,-1
 239 108 l 1,5,-1
 239 0 l 1,6,-1
 197 0 l 2,7,8
 143 0 143 0 105 38 c 128,-1,9
 67 76 67 76 67 130 c 2,10,-1
 67 286 l 1,11,-1
 23 312 l 1,12,-1
 23 420 l 1,13,-1
 67 445 l 1,14,-1
 67 590 l 2,15,16
 67 644 67 644 105 682 c 128,-1,17
 143 720 143 720 197 720 c 2,18,-1
 239 720 l 1,19,-1
 239 612 l 1,20,-1
 197 612 l 2,21,22
 188 612 188 612 181.5 605.5 c 128,-1,23
 175 599 175 599 175 590 c 2,24,-1
 175 421 l 1,25,-1
 105 366 l 1,26,-1
 175 308 l 1,0,-1
EndSplineSet
EndChar

StartChar: braceright
Encoding: 125 125 103
Width: 289
Flags: MW
HStem: 0 21G<51 93 51 51> 700 20G<51 93 93 129>
VStem: 51 172<94 108 108 108> 115 108<130 286 445 590>
LayerCount: 2
Fore
SplineSet
115 130 m 2,0,-1
 115 308 l 1,1,-1
 185 366 l 1,2,-1
 115 421 l 1,3,-1
 115 590 l 2,4,5
 115 599 115 599 108.5 605.5 c 128,-1,6
 102 612 102 612 93 612 c 2,7,-1
 51 612 l 1,8,-1
 51 720 l 1,9,-1
 93 720 l 2,10,11
 147 720 147 720 185 682 c 128,-1,12
 223 644 223 644 223 590 c 2,13,-1
 223 445 l 1,14,-1
 267 420 l 1,15,-1
 267 312 l 1,16,-1
 223 286 l 1,17,-1
 223 130 l 2,18,19
 223 76 223 76 185 38 c 128,-1,20
 147 0 147 0 93 0 c 2,21,-1
 51 0 l 1,22,-1
 51 108 l 1,23,-1
 93 108 l 2,24,25
 102 108 102 108 108.5 114.5 c 128,-1,26
 115 121 115 121 115 130 c 2,0,-1
EndSplineSet
EndChar

StartChar: bracketleft
Encoding: 91 91 104
Width: 275
Flags: MW
HStem: 0 108<162 226 162 226> 612 108<162 226 162 162>
VStem: 54 108<108 612 108 720> 54 172<0 108 612 720>
LayerCount: 2
Fore
SplineSet
54 0 m 1,0,-1
 54 720 l 1,1,-1
 226 720 l 1,2,-1
 226 612 l 1,3,-1
 162 612 l 1,4,-1
 162 108 l 1,5,-1
 226 108 l 1,6,-1
 226 0 l 1,7,-1
 54 0 l 1,0,-1
EndSplineSet
EndChar

StartChar: bracketright
Encoding: 93 93 105
Width: 276
Flags: MW
HStem: 0 108<51 115 51 223 51 115> 612 108<51 223 51 115>
VStem: 51 172<0 108 108 108 612 720 0 720> 115 108<108 612 612 612>
LayerCount: 2
Fore
SplineSet
51 612 m 1,0,-1
 51 720 l 1,1,-1
 223 720 l 1,2,-1
 223 0 l 1,3,-1
 51 0 l 1,4,-1
 51 108 l 1,5,-1
 115 108 l 1,6,-1
 115 612 l 1,7,-1
 51 612 l 1,0,-1
EndSplineSet
EndChar

StartChar: breve
Encoding: 728 728 106
Width: 287
Flags: MW
HStem: 827 52<105 117 117 169> 827 84<40 117 40 169>
LayerCount: 2
Fore
SplineSet
195 911 m 1,0,-1
 246 911 l 1,1,-1
 246 904 l 2,2,3
 246 872 246 872 224 849.5 c 128,-1,4
 202 827 202 827 169 827 c 2,5,-1
 117 827 l 2,6,7
 84 827 84 827 62 849.5 c 128,-1,8
 40 872 40 872 40 904 c 2,9,-1
 40 911 l 1,10,-1
 91 911 l 1,11,-1
 91 893 l 2,12,13
 91 879 91 879 105 879 c 2,14,-1
 181 879 l 2,15,16
 195 879 195 879 195 893 c 2,17,-1
 195 911 l 1,0,-1
EndSplineSet
EndChar

StartChar: bullet
Encoding: 8226 8226 107
Width: 371
Flags: MW
HStem: 308 104<159.5 196 173 196>
VStem: 131 108<350 370 336.5 383.5>
LayerCount: 2
Fore
SplineSet
173 412 m 2,0,-1
 196 412 l 2,1,2
 239 412 239 412 239 370 c 2,3,-1
 239 350 l 2,4,5
 239 308 239 308 196 308 c 2,6,-1
 173 308 l 2,7,8
 131 308 131 308 131 350 c 2,9,-1
 131 370 l 2,10,11
 131 412 131 412 173 412 c 2,0,-1
EndSplineSet
EndChar

StartChar: c
Encoding: 99 99 108
Width: 695
Flags: MW
HStem: 0 108<145 641 181 641> 472 108<175 639 181 639>
VStem: 51 108<130 450>
LayerCount: 2
Fore
SplineSet
181 108 m 2,0,-1
 641 108 l 1,1,-1
 641 0 l 1,2,-1
 181 0 l 2,3,4
 127 0 127 0 89 38 c 128,-1,5
 51 76 51 76 51 130 c 2,6,-1
 51 450 l 2,7,8
 51 504 51 504 89 542 c 128,-1,9
 127 580 127 580 181 580 c 2,10,-1
 639 580 l 1,11,-1
 639 472 l 1,12,-1
 181 472 l 2,13,14
 172 472 172 472 165.5 465.5 c 128,-1,15
 159 459 159 459 159 450 c 2,16,-1
 159 130 l 2,17,18
 159 121 159 121 165.5 114.5 c 128,-1,19
 172 108 172 108 181 108 c 2,0,-1
EndSplineSet
Substitution2: "'smcp' Lowercase to Small Capitals in Latin lookup 3 subtable" c.sc
Substitution2: "'aalt' Access All Alternates in Latin lookup 0 subtable" c.sc
EndChar

StartChar: c.sc
Encoding: 65560 -1 109
Width: 693
Flags: MW
HStem: 0 108<145 639 181 639> 473 108<175 639 181 639>
VStem: 51 108<130 451>
LayerCount: 2
Fore
SplineSet
639 473 m 1,0,-1
 181 473 l 2,1,2
 172 473 172 473 165.5 466.5 c 128,-1,3
 159 460 159 460 159 451 c 2,4,-1
 159 130 l 2,5,6
 159 121 159 121 165.5 114.5 c 128,-1,7
 172 108 172 108 181 108 c 2,8,-1
 639 108 l 1,9,-1
 639 0 l 1,10,-1
 181 0 l 2,11,12
 127 0 127 0 89 38 c 128,-1,13
 51 76 51 76 51 130 c 2,14,-1
 51 451 l 2,15,16
 51 505 51 505 89 543 c 128,-1,17
 127 581 127 581 181 581 c 2,18,-1
 639 581 l 1,19,-1
 639 473 l 1,0,-1
EndSplineSet
EndChar

StartChar: caron
Encoding: 711 711 110
Width: 297
Flags: MW
HStem: 826 21G<112 186 112 112> 947 20G<27 101 101 101 196 271 271 271>
LayerCount: 2
Fore
SplineSet
27 967 m 1,0,-1
 101 967 l 1,1,-1
 149 891 l 1,2,-1
 196 967 l 1,3,-1
 271 967 l 1,4,-1
 186 826 l 1,5,-1
 112 826 l 1,6,-1
 27 967 l 1,0,-1
EndSplineSet
EndChar

StartChar: ccedilla
Encoding: 231 231 111
Width: 693
Flags: MW
HStem: -162 162<272 272 272 380> 0 108<145 641 181 641 312 420 420 420> 472 108<175 639 181 639>
VStem: 51 108<130 450>
LayerCount: 2
Fore
SplineSet
181 108 m 2,0,-1
 641 108 l 1,1,-1
 641 0 l 1,2,-1
 181 0 l 2,3,4
 127 0 127 0 89 38 c 128,-1,5
 51 76 51 76 51 130 c 2,6,-1
 51 450 l 2,7,8
 51 504 51 504 89 542 c 128,-1,9
 127 580 127 580 181 580 c 2,10,-1
 639 580 l 1,11,-1
 639 472 l 1,12,-1
 181 472 l 2,13,14
 172 472 172 472 165.5 465.5 c 128,-1,15
 159 459 159 459 159 450 c 2,16,-1
 159 130 l 2,17,18
 159 121 159 121 165.5 114.5 c 128,-1,19
 172 108 172 108 181 108 c 2,0,-1
272 -162 m 1,20,-1
 312 0 l 1,21,-1
 420 0 l 1,22,-1
 380 -162 l 1,23,-1
 272 -162 l 1,20,-1
EndSplineSet
EndChar

StartChar: cedilla
Encoding: 184 184 112
Width: 213
Flags: MW
HStem: -162 162<33 181 73 141>
LayerCount: 2
Fore
SplineSet
33 -162 m 1,0,-1
 73 0 l 1,1,-1
 181 0 l 1,2,-1
 141 -162 l 1,3,-1
 33 -162 l 1,0,-1
EndSplineSet
EndChar

StartChar: cent
Encoding: 162 162 113
Width: 636
Flags: MW
HStem: -109 21G<274 382 274 274> 0 108<127 274 163 274 382 621> 482 108<157 274 163 274 382 621> 698 20G<274 382 382 382>
VStem: 33 108<130 460> 274 108<-109 0 -109 0 108 482 590 718>
LayerCount: 2
Fore
SplineSet
621 482 m 1,0,-1
 382 482 l 1,1,-1
 382 108 l 1,2,-1
 621 108 l 1,3,-1
 621 0 l 1,4,-1
 382 0 l 1,5,-1
 382 -109 l 1,6,-1
 274 -109 l 1,7,-1
 274 0 l 1,8,-1
 163 0 l 2,9,10
 109 0 109 0 71 38 c 128,-1,11
 33 76 33 76 33 130 c 2,12,-1
 33 460 l 2,13,14
 33 514 33 514 71 552 c 128,-1,15
 109 590 109 590 163 590 c 2,16,-1
 274 590 l 1,17,-1
 274 718 l 1,18,-1
 382 718 l 1,19,-1
 382 590 l 1,20,-1
 621 590 l 1,21,-1
 621 482 l 1,0,-1
274 108 m 1,22,-1
 274 482 l 1,23,-1
 163 482 l 2,24,25
 154 482 154 482 147.5 475.5 c 128,-1,26
 141 469 141 469 141 460 c 2,27,-1
 141 130 l 2,28,29
 141 121 141 121 147.5 114.5 c 128,-1,30
 154 108 154 108 163 108 c 2,31,-1
 274 108 l 1,22,-1
EndSplineSet
EndChar

StartChar: circumflex
Encoding: 710 710 114
Width: 300
Flags: MW
HStem: 826 21G<28 102 28 28 197 197 197 272> 947 20G<113 187 187 187>
LayerCount: 2
Fore
SplineSet
102 826 m 1,0,-1
 28 826 l 1,1,-1
 113 967 l 1,2,-1
 187 967 l 1,3,-1
 272 826 l 1,4,-1
 197 826 l 1,5,-1
 150 902 l 1,6,-1
 102 826 l 1,0,-1
EndSplineSet
EndChar

StartChar: colon
Encoding: 58 58 115
Width: 214
Flags: MW
HStem: 0 108<54 162 54 162> 480 108<54 162 54 162>
VStem: 54 108<0 108 0 108 480 588>
LayerCount: 2
Fore
SplineSet
54 108 m 1,0,-1
 162 108 l 1,1,-1
 162 0 l 1,2,-1
 54 0 l 1,3,-1
 54 108 l 1,0,-1
162 588 m 1,4,-1
 162 480 l 1,5,-1
 54 480 l 1,6,-1
 54 588 l 1,7,-1
 162 588 l 1,4,-1
EndSplineSet
EndChar

StartChar: comma
Encoding: 44 44 116
Width: 193
Flags: MW
HStem: -128 21G<54 54> 88 20G<54 162 162 162>
VStem: 54 108<-32.5 0 0 108>
LayerCount: 2
Fore
SplineSet
54 108 m 1,0,-1
 162 108 l 1,1,-1
 162 0 l 2,2,3
 162 -48 162 -48 131 -84 c 128,-1,4
 100 -120 100 -120 54 -128 c 1,5,-1
 54 108 l 1,0,-1
EndSplineSet
EndChar

StartChar: d
Encoding: 100 100 117
Width: 667
Flags: MW
HStem: 0 108<117 483 153 483 483 489 153 613> 472 108<147 505 153 483> 750 20G<505 613 613 613>
VStem: 23 108<130 450> 505 108<130 450 450 456 580 770 0 770>
LayerCount: 2
Fore
SplineSet
505 770 m 1,0,-1
 613 770 l 1,1,-1
 613 0 l 1,2,-1
 153 0 l 2,3,4
 99 0 99 0 61 38 c 128,-1,5
 23 76 23 76 23 130 c 2,6,-1
 23 450 l 2,7,8
 23 504 23 504 61 542 c 128,-1,9
 99 580 99 580 153 580 c 2,10,-1
 505 580 l 1,11,-1
 505 770 l 1,0,-1
153 108 m 2,12,-1
 483 108 l 2,13,14
 492 108 492 108 498.5 114.5 c 128,-1,15
 505 121 505 121 505 130 c 2,16,-1
 505 450 l 2,17,18
 505 459 505 459 498.5 465.5 c 128,-1,19
 492 472 492 472 483 472 c 2,20,-1
 153 472 l 2,21,22
 144 472 144 472 137.5 465.5 c 128,-1,23
 131 459 131 459 131 450 c 2,24,-1
 131 130 l 2,25,26
 131 121 131 121 137.5 114.5 c 128,-1,27
 144 108 144 108 153 108 c 2,12,-1
EndSplineSet
Substitution2: "'smcp' Lowercase to Small Capitals in Latin lookup 3 subtable" d.sc
Substitution2: "'aalt' Access All Alternates in Latin lookup 0 subtable" d.sc
EndChar

StartChar: d.sc
Encoding: 65561 -1 118
Width: 705
Flags: MW
HStem: 0 108<184 524 184 524> 473 108<178 184 184 524>
VStem: 54 108<124 130 130 451> 546 108<130 451>
LayerCount: 2
Fore
SplineSet
54 581 m 1,0,-1
 524 581 l 2,1,2
 578 581 578 581 616 543 c 128,-1,3
 654 505 654 505 654 451 c 2,4,-1
 654 130 l 2,5,6
 654 76 654 76 616 38 c 128,-1,7
 578 0 578 0 524 0 c 2,8,-1
 54 0 l 1,9,-1
 54 581 l 1,0,-1
546 130 m 2,10,-1
 546 451 l 2,11,12
 546 460 546 460 539.5 466.5 c 128,-1,13
 533 473 533 473 524 473 c 2,14,-1
 184 473 l 2,15,16
 175 473 175 473 168.5 466.5 c 128,-1,17
 162 460 162 460 162 451 c 2,18,-1
 162 130 l 2,19,20
 162 121 162 121 168.5 114.5 c 128,-1,21
 175 108 175 108 184 108 c 2,22,-1
 524 108 l 2,23,24
 533 108 533 108 539.5 114.5 c 128,-1,25
 546 121 546 121 546 130 c 2,10,-1
EndSplineSet
EndChar

StartChar: degree
Encoding: 176 176 119
Width: 439
Flags: MW
HStem: 380 88<155 175 175 265> 632 88<149 265 175 265 265 285>
VStem: 45 88<510 590 590 610> 307 88<490 510 510 590 474 610>
LayerCount: 2
Fore
SplineSet
175 720 m 2,0,-1
 265 720 l 2,1,2
 319 720 319 720 357 682 c 128,-1,3
 395 644 395 644 395 590 c 2,4,-1
 395 510 l 2,5,6
 395 456 395 456 357 418 c 128,-1,7
 319 380 319 380 265 380 c 2,8,-1
 175 380 l 2,9,10
 121 380 121 380 83 418 c 128,-1,11
 45 456 45 456 45 510 c 2,12,-1
 45 590 l 2,13,14
 45 644 45 644 83 682 c 128,-1,15
 121 720 121 720 175 720 c 2,0,-1
155 468 m 2,16,-1
 285 468 l 2,17,18
 294 468 294 468 300.5 474.5 c 128,-1,19
 307 481 307 481 307 490 c 2,20,-1
 307 610 l 2,21,22
 307 619 307 619 300.5 625.5 c 128,-1,23
 294 632 294 632 285 632 c 2,24,-1
 155 632 l 2,25,26
 146 632 146 632 139.5 625.5 c 128,-1,27
 133 619 133 619 133 610 c 2,28,-1
 133 490 l 2,29,30
 133 481 133 481 139.5 474.5 c 128,-1,31
 146 468 146 468 155 468 c 2,16,-1
EndSplineSet
EndChar

StartChar: dieresis
Encoding: 168 168 120
Width: 385
Flags: MW
HStem: 827 108<54 162 54 162 224 332 54 224>
VStem: 54 108<827 935 827 935> 224 108<827 935 827 935>
LayerCount: 2
Fore
SplineSet
332 935 m 1,0,-1
 332 827 l 1,1,-1
 224 827 l 1,2,-1
 224 935 l 1,3,-1
 332 935 l 1,0,-1
162 935 m 1,4,-1
 162 827 l 1,5,-1
 54 827 l 1,6,-1
 54 935 l 1,7,-1
 162 935 l 1,4,-1
EndSplineSet
EndChar

StartChar: divide
Encoding: 247 247 121
Width: 502
Flags: MW
HStem: 0 108<201 309 201 309> 242 108<18 498 18 498> 480 108<201 309 201 309>
VStem: 201 108<0 108 0 108 480 588>
LayerCount: 2
Fore
SplineSet
498 350 m 1,0,-1
 498 242 l 1,1,-1
 18 242 l 1,2,-1
 18 350 l 1,3,-1
 498 350 l 1,0,-1
201 108 m 1,4,-1
 309 108 l 1,5,-1
 309 0 l 1,6,-1
 201 0 l 1,7,-1
 201 108 l 1,4,-1
309 588 m 1,8,-1
 309 480 l 1,9,-1
 201 480 l 1,10,-1
 201 588 l 1,11,-1
 309 588 l 1,8,-1
EndSplineSet
EndChar

StartChar: dollar
Encoding: 36 36 122
Width: 788
Flags: MW
HStem: -108 21G<340 448 340 340> 0 108<128 340 164 340 448 624> 0 172<128 142 34 164 34 340> 306 108<128 261 164 261 261 340 448 624> 548 172<646 660 646 646> 612 108<158 340 164 340 448 624> 808 20G<340 448 448 448>
VStem: 34 108<130 172 124 172 436 590> 340 108<-108 0 -108 0 108 306 414 612 720 828> 646 108<130 284 548 590>
CounterMasks: 1 01c0
LayerCount: 2
Fore
SplineSet
754 590 m 2,0,-1
 754 548 l 1,1,-1
 646 548 l 1,2,-1
 646 590 l 2,3,4
 646 599 646 599 639.5 605.5 c 128,-1,5
 633 612 633 612 624 612 c 2,6,-1
 448 612 l 1,7,-1
 448 414 l 1,8,-1
 624 414 l 2,9,10
 678 414 678 414 716 376 c 128,-1,11
 754 338 754 338 754 284 c 2,12,-1
 754 130 l 2,13,14
 754 76 754 76 716 38 c 128,-1,15
 678 0 678 0 624 0 c 2,16,-1
 448 0 l 1,17,-1
 448 -108 l 1,18,-1
 340 -108 l 1,19,-1
 340 0 l 1,20,-1
 164 0 l 2,21,22
 110 0 110 0 72 38 c 128,-1,23
 34 76 34 76 34 130 c 2,24,-1
 34 172 l 1,25,-1
 142 172 l 1,26,-1
 142 130 l 2,27,28
 142 121 142 121 148.5 114.5 c 128,-1,29
 155 108 155 108 164 108 c 2,30,-1
 340 108 l 1,31,-1
 340 306 l 1,32,-1
 164 306 l 2,33,34
 110 306 110 306 72 344 c 128,-1,35
 34 382 34 382 34 436 c 2,36,-1
 34 590 l 2,37,38
 34 644 34 644 72 682 c 128,-1,39
 110 720 110 720 164 720 c 2,40,-1
 340 720 l 1,41,-1
 340 828 l 1,42,-1
 448 828 l 1,43,-1
 448 720 l 1,44,-1
 624 720 l 2,45,46
 678 720 678 720 716 682 c 128,-1,47
 754 644 754 644 754 590 c 2,0,-1
624 306 m 2,48,-1
 448 306 l 1,49,-1
 448 108 l 1,50,-1
 624 108 l 2,51,52
 633 108 633 108 639.5 114.5 c 128,-1,53
 646 121 646 121 646 130 c 2,54,-1
 646 284 l 2,55,56
 646 293 646 293 639.5 299.5 c 128,-1,57
 633 306 633 306 624 306 c 2,48,-1
261 414 m 1,58,-1
 340 414 l 1,59,-1
 340 612 l 1,60,-1
 164 612 l 2,61,62
 155 612 155 612 148.5 605.5 c 128,-1,63
 142 599 142 599 142 590 c 2,64,-1
 142 436 l 2,65,66
 142 427 142 427 148.5 420.5 c 128,-1,67
 155 414 155 414 164 414 c 2,68,-1
 261 414 l 1,58,-1
EndSplineSet
EndChar

StartChar: dotaccent
Encoding: 729 729 123
Width: 233
Flags: MW
HStem: 828 140<84 135 99 135>
VStem: 45 144<881 915 866.5 929.5>
LayerCount: 2
Fore
SplineSet
99 968 m 2,0,-1
 135 968 l 2,1,2
 157 968 157 968 173 952.5 c 128,-1,3
 189 937 189 937 189 915 c 2,4,-1
 189 881 l 2,5,6
 189 859 189 859 173 843.5 c 128,-1,7
 157 828 157 828 135 828 c 2,8,-1
 99 828 l 2,9,10
 77 828 77 828 61 843.5 c 128,-1,11
 45 859 45 859 45 881 c 2,12,-1
 45 915 l 2,13,14
 45 937 45 937 61 952.5 c 128,-1,15
 77 968 77 968 99 968 c 2,0,-1
EndSplineSet
EndChar

StartChar: dotlessi
Encoding: 305 305 124
Width: 214
Flags: MW
HStem: 0 21G<52 52 52 160> 560 20G<52 160 160 160>
VStem: 52 108<0 580 0 580>
LayerCount: 2
Fore
SplineSet
52 0 m 1,0,-1
 52 580 l 1,1,-1
 160 580 l 1,2,-1
 160 0 l 1,3,-1
 52 0 l 1,0,-1
EndSplineSet
EndChar

StartChar: e
Encoding: 101 101 125
Width: 692
Flags: MW
HStem: 0 108<145 641 181 641> 236 108<159 533 159 641 159 533> 472 108<175 511 181 511>
VStem: 51 108<130 236 344 450> 533 108<344 450>
CounterMasks: 1 e0
LayerCount: 2
Fore
SplineSet
511 580 m 2,0,1
 565 580 565 580 603 542 c 128,-1,2
 641 504 641 504 641 450 c 2,3,-1
 641 236 l 1,4,-1
 159 236 l 1,5,-1
 159 130 l 2,6,7
 159 121 159 121 165.5 114.5 c 128,-1,8
 172 108 172 108 181 108 c 2,9,-1
 641 108 l 1,10,-1
 641 0 l 1,11,-1
 181 0 l 2,12,13
 127 0 127 0 89 38 c 128,-1,14
 51 76 51 76 51 130 c 2,15,-1
 51 450 l 2,16,17
 51 504 51 504 89 542 c 128,-1,18
 127 580 127 580 181 580 c 2,19,-1
 511 580 l 2,0,1
159 344 m 1,20,-1
 533 344 l 1,21,-1
 533 450 l 2,22,23
 533 459 533 459 526.5 465.5 c 128,-1,24
 520 472 520 472 511 472 c 2,25,-1
 181 472 l 2,26,27
 172 472 172 472 165.5 465.5 c 128,-1,28
 159 459 159 459 159 450 c 2,29,-1
 159 344 l 1,20,-1
EndSplineSet
Substitution2: "'smcp' Lowercase to Small Capitals in Latin lookup 3 subtable" e.sc
Substitution2: "'aalt' Access All Alternates in Latin lookup 0 subtable" e.sc
EndChar

StartChar: e.sc
Encoding: 65562 -1 126
Width: 638
Flags: MW
HStem: 0 108<162 584 162 584> 236 108<162 476 162 476> 473 108<162 584 162 162>
VStem: 54 108<108 236 344 473>
LayerCount: 2
Fore
SplineSet
584 581 m 1,0,-1
 584 473 l 1,1,-1
 162 473 l 1,2,-1
 162 344 l 1,3,-1
 476 344 l 1,4,-1
 476 236 l 1,5,-1
 162 236 l 1,6,-1
 162 108 l 1,7,-1
 584 108 l 1,8,-1
 584 0 l 1,9,-1
 54 0 l 1,10,-1
 54 581 l 1,11,-1
 584 581 l 1,0,-1
EndSplineSet
EndChar

StartChar: eacute
Encoding: 233 233 127
Width: 638
Flags: MW
HStem: 0 108<145 641 181 641> 236 108<159 533 159 641 159 533> 472 108<175 511 181 511> 719 162<245 393 285 353>
VStem: 51 108<130 236 344 450> 533 108<344 450>
LayerCount: 2
Fore
SplineSet
511 580 m 2,0,1
 565 580 565 580 603 542 c 128,-1,2
 641 504 641 504 641 450 c 2,3,-1
 641 236 l 1,4,-1
 159 236 l 1,5,-1
 159 130 l 2,6,7
 159 121 159 121 165.5 114.5 c 128,-1,8
 172 108 172 108 181 108 c 2,9,-1
 641 108 l 1,10,-1
 641 0 l 1,11,-1
 181 0 l 2,12,13
 127 0 127 0 89 38 c 128,-1,14
 51 76 51 76 51 130 c 2,15,-1
 51 450 l 2,16,17
 51 504 51 504 89 542 c 128,-1,18
 127 580 127 580 181 580 c 2,19,-1
 511 580 l 2,0,1
159 344 m 1,20,-1
 533 344 l 1,21,-1
 533 450 l 2,22,23
 533 459 533 459 526.5 465.5 c 128,-1,24
 520 472 520 472 511 472 c 2,25,-1
 181 472 l 2,26,27
 172 472 172 472 165.5 465.5 c 128,-1,28
 159 459 159 459 159 450 c 2,29,-1
 159 344 l 1,20,-1
245 719 m 1,30,-1
 285 881 l 1,31,-1
 393 881 l 1,32,-1
 353 719 l 1,33,-1
 245 719 l 1,30,-1
EndSplineSet
EndChar

StartChar: ecircumflex
Encoding: 234 234 128
Width: 638
Flags: MW
HStem: 0 108<145 641 181 641> 236 108<159 533 159 641 159 533> 472 108<175 511 181 511> 718 21G<197 271 197 197 366 366 366 441> 839 20G<282 356 356 356>
VStem: 51 108<130 236 344 450> 533 108<344 450>
LayerCount: 2
Fore
SplineSet
511 580 m 2,0,1
 565 580 565 580 603 542 c 128,-1,2
 641 504 641 504 641 450 c 2,3,-1
 641 236 l 1,4,-1
 159 236 l 1,5,-1
 159 130 l 2,6,7
 159 121 159 121 165.5 114.5 c 128,-1,8
 172 108 172 108 181 108 c 2,9,-1
 641 108 l 1,10,-1
 641 0 l 1,11,-1
 181 0 l 2,12,13
 127 0 127 0 89 38 c 128,-1,14
 51 76 51 76 51 130 c 2,15,-1
 51 450 l 2,16,17
 51 504 51 504 89 542 c 128,-1,18
 127 580 127 580 181 580 c 2,19,-1
 511 580 l 2,0,1
159 344 m 1,20,-1
 533 344 l 1,21,-1
 533 450 l 2,22,23
 533 459 533 459 526.5 465.5 c 128,-1,24
 520 472 520 472 511 472 c 2,25,-1
 181 472 l 2,26,27
 172 472 172 472 165.5 465.5 c 128,-1,28
 159 459 159 459 159 450 c 2,29,-1
 159 344 l 1,20,-1
271 718 m 1,30,-1
 197 718 l 1,31,-1
 282 859 l 1,32,-1
 356 859 l 1,33,-1
 441 718 l 1,34,-1
 366 718 l 1,35,-1
 319 794 l 1,36,-1
 271 718 l 1,30,-1
EndSplineSet
EndChar

StartChar: edieresis
Encoding: 235 235 129
Width: 638
Flags: MW
HStem: 0 108<145 641 181 641> 236 108<159 533 159 641 159 533> 472 108<175 511 181 511> 718 108<180 288 180 288 350 458 180 350>
VStem: 51 108<130 236 344 450> 180 108<718 826 718 826> 350 108<718 826 718 826> 533 108<344 450>
LayerCount: 2
Fore
SplineSet
511 580 m 2,0,1
 565 580 565 580 603 542 c 128,-1,2
 641 504 641 504 641 450 c 2,3,-1
 641 236 l 1,4,-1
 159 236 l 1,5,-1
 159 130 l 2,6,7
 159 121 159 121 165.5 114.5 c 128,-1,8
 172 108 172 108 181 108 c 2,9,-1
 641 108 l 1,10,-1
 641 0 l 1,11,-1
 181 0 l 2,12,13
 127 0 127 0 89 38 c 128,-1,14
 51 76 51 76 51 130 c 2,15,-1
 51 450 l 2,16,17
 51 504 51 504 89 542 c 128,-1,18
 127 580 127 580 181 580 c 2,19,-1
 511 580 l 2,0,1
159 344 m 1,20,-1
 533 344 l 1,21,-1
 533 450 l 2,22,23
 533 459 533 459 526.5 465.5 c 128,-1,24
 520 472 520 472 511 472 c 2,25,-1
 181 472 l 2,26,27
 172 472 172 472 165.5 465.5 c 128,-1,28
 159 459 159 459 159 450 c 2,29,-1
 159 344 l 1,20,-1
458 826 m 1,30,-1
 458 718 l 1,31,-1
 350 718 l 1,32,-1
 350 826 l 1,33,-1
 458 826 l 1,30,-1
288 826 m 1,34,-1
 288 718 l 1,35,-1
 180 718 l 1,36,-1
 180 826 l 1,37,-1
 288 826 l 1,34,-1
EndSplineSet
EndChar

StartChar: egrave
Encoding: 232 232 130
Width: 638
Flags: MW
HStem: 0 108<145 641 181 641> 236 108<159 533 159 641 159 533> 472 108<175 511 181 511> 718 162<285 353 245 393 285 285>
VStem: 51 108<130 236 344 450> 533 108<344 450>
LayerCount: 2
Fore
SplineSet
511 580 m 2,0,1
 565 580 565 580 603 542 c 128,-1,2
 641 504 641 504 641 450 c 2,3,-1
 641 236 l 1,4,-1
 159 236 l 1,5,-1
 159 130 l 2,6,7
 159 121 159 121 165.5 114.5 c 128,-1,8
 172 108 172 108 181 108 c 2,9,-1
 641 108 l 1,10,-1
 641 0 l 1,11,-1
 181 0 l 2,12,13
 127 0 127 0 89 38 c 128,-1,14
 51 76 51 76 51 130 c 2,15,-1
 51 450 l 2,16,17
 51 504 51 504 89 542 c 128,-1,18
 127 580 127 580 181 580 c 2,19,-1
 511 580 l 2,0,1
159 344 m 1,20,-1
 533 344 l 1,21,-1
 533 450 l 2,22,23
 533 459 533 459 526.5 465.5 c 128,-1,24
 520 472 520 472 511 472 c 2,25,-1
 181 472 l 2,26,27
 172 472 172 472 165.5 465.5 c 128,-1,28
 159 459 159 459 159 450 c 2,29,-1
 159 344 l 1,20,-1
353 880 m 1,30,-1
 393 718 l 1,31,-1
 285 718 l 1,32,-1
 245 880 l 1,33,-1
 353 880 l 1,30,-1
EndSplineSet
EndChar

StartChar: eight
Encoding: 56 56 131
Width: 834
Flags: MW
HStem: 0 108<151 647 187 647> 316 97<181 647 187 647> 611 109<181 647 187 647>
VStem: 57 108<130 294 446 589> 669 108<130 294 435 446 446 589 589 595>
LayerCount: 2
Fore
SplineSet
777 612 m 1,0,-1
 777 446 l 2,1,2
 777 403 777 403 752 370 c 1,3,4
 777 337 777 337 777 294 c 2,5,-1
 777 130 l 2,6,7
 777 76 777 76 739 38 c 128,-1,8
 701 0 701 0 647 0 c 2,9,-1
 187 0 l 2,10,11
 133 0 133 0 95 38 c 128,-1,12
 57 76 57 76 57 130 c 2,13,-1
 57 294 l 2,14,15
 57 337 57 337 82 370 c 1,16,17
 57 403 57 403 57 446 c 2,18,-1
 57 590 l 2,19,20
 57 644 57 644 95 682 c 128,-1,21
 133 720 133 720 187 720 c 2,22,-1
 647 720 l 2,23,24
 695 720 695 720 732 689 c 128,-1,25
 769 658 769 658 777 612 c 1,0,-1
669 130 m 2,26,-1
 669 294 l 2,27,28
 669 303 669 303 662.5 309.5 c 128,-1,29
 656 316 656 316 647 316 c 2,30,-1
 187 316 l 2,31,32
 178 316 178 316 171.5 309.5 c 128,-1,33
 165 303 165 303 165 294 c 2,34,-1
 165 130 l 2,35,36
 165 121 165 121 171.5 114.5 c 128,-1,37
 178 108 178 108 187 108 c 2,38,-1
 647 108 l 2,39,40
 656 108 656 108 662.5 114.5 c 128,-1,41
 669 121 669 121 669 130 c 2,26,-1
669 435 m 2,42,-1
 669 589 l 2,43,44
 669 598 669 598 662.5 604.5 c 128,-1,45
 656 611 656 611 647 611 c 2,46,-1
 187 611 l 2,47,48
 178 611 178 611 171.5 604.5 c 128,-1,49
 165 598 165 598 165 589 c 2,50,-1
 165 435 l 2,51,52
 165 426 165 426 171.5 419.5 c 128,-1,53
 178 413 178 413 187 413 c 2,54,-1
 647 413 l 2,55,56
 656 413 656 413 662.5 419.5 c 128,-1,57
 669 426 669 426 669 435 c 2,42,-1
EndSplineSet
EndChar

StartChar: ellipsis
Encoding: 8230 8230 132
Width: 574
Flags: MW
HStem: 0 108<54 162 54 162 54 233 233 341 412 520>
VStem: 54 108<0 108 0 108> 233 108<0 108 0 108> 412 108<0 108 0 108>
CounterMasks: 1 70
LayerCount: 2
Fore
SplineSet
162 108 m 1,0,-1
 162 0 l 1,1,-1
 54 0 l 1,2,-1
 54 108 l 1,3,-1
 162 108 l 1,0,-1
520 108 m 1,4,-1
 520 0 l 1,5,-1
 412 0 l 1,6,-1
 412 108 l 1,7,-1
 520 108 l 1,4,-1
341 108 m 1,8,-1
 341 0 l 1,9,-1
 233 0 l 1,10,-1
 233 108 l 1,11,-1
 341 108 l 1,8,-1
EndSplineSet
EndChar

StartChar: emdash
Encoding: 8212 8212 133
Width: 822
Flags: MW
HStem: 241 108<54 768 54 768>
LayerCount: 2
Fore
SplineSet
768 349 m 1,0,-1
 768 241 l 1,1,-1
 54 241 l 1,2,-1
 54 349 l 1,3,-1
 768 349 l 1,0,-1
EndSplineSet
EndChar

StartChar: endash
Encoding: 8211 8211 134
Width: 708
Flags: MW
HStem: 241 108<54 654 54 654>
LayerCount: 2
Fore
SplineSet
654 349 m 1,0,-1
 654 241 l 1,1,-1
 54 241 l 1,2,-1
 54 349 l 1,3,-1
 654 349 l 1,0,-1
EndSplineSet
EndChar

StartChar: equal
Encoding: 61 61 135
Width: 638
Flags: MW
HStem: 143 108<59 579 59 579> 333 108<59 579 59 579>
LayerCount: 2
Fore
SplineSet
579 251 m 1,0,-1
 579 143 l 1,1,-1
 59 143 l 1,2,-1
 59 251 l 1,3,-1
 579 251 l 1,0,-1
579 441 m 1,4,-1
 579 333 l 1,5,-1
 59 333 l 1,6,-1
 59 441 l 1,7,-1
 579 441 l 1,4,-1
EndSplineSet
EndChar

StartChar: exclam
Encoding: 33 33 136
Width: 220
Flags: MW
HStem: 0 108<58 166 58 166> 700 20G<58 166 166 166>
VStem: 58 108<0 108 200 720>
LayerCount: 2
Fore
SplineSet
166 0 m 1,0,-1
 58 0 l 1,1,-1
 58 108 l 1,2,-1
 166 108 l 1,3,-1
 166 0 l 1,0,-1
58 200 m 1,4,-1
 58 720 l 1,5,-1
 166 720 l 1,6,-1
 166 200 l 1,7,-1
 58 200 l 1,4,-1
EndSplineSet
EndChar

StartChar: exclamdown
Encoding: 161 161 137
Width: 210
Flags: MW
HStem: 0 21G<53 161 53 53> 612 108<53 161 53 161>
VStem: 53 108<0 520 612 720>
LayerCount: 2
Fore
SplineSet
161 720 m 1,0,-1
 161 612 l 1,1,-1
 53 612 l 1,2,-1
 53 720 l 1,3,-1
 161 720 l 1,0,-1
161 0 m 1,4,-1
 53 0 l 1,5,-1
 53 520 l 1,6,-1
 161 520 l 1,7,-1
 161 0 l 1,4,-1
EndSplineSet
EndChar

StartChar: f
Encoding: 102 102 138
Width: 407
Flags: MW
HStem: 0 21G<53 161 53 53> 472 108<161 399 161 399> 662 108<177 399 183 399>
VStem: 53 108<0 320 320 472 580 640 320 320>
LayerCount: 2
Fore
SplineSet
183 662 m 2,0,1
 174 662 174 662 167.5 655.5 c 128,-1,2
 161 649 161 649 161 640 c 2,3,-1
 161 580 l 1,4,-1
 399 580 l 1,5,-1
 399 472 l 1,6,-1
 161 472 l 1,7,-1
 161 0 l 1,8,-1
 53 0 l 1,9,-1
 53 320 l 1,10,-1
 53 640 l 2,11,12
 53 694 53 694 91 732 c 128,-1,13
 129 770 129 770 183 770 c 2,14,-1
 399 770 l 1,15,-1
 399 662 l 1,16,-1
 183 662 l 2,0,1
EndSplineSet
Substitution2: "'smcp' Lowercase to Small Capitals in Latin lookup 3 subtable" f.sc
Substitution2: "'aalt' Access All Alternates in Latin lookup 0 subtable" f.sc
EndChar

StartChar: f.sc
Encoding: 65563 -1 139
Width: 591
Flags: MW
HStem: 0 21G<54 162 54 54> 236 108<162 476 162 476> 473 108<162 584 162 162>
VStem: 54 108<0 236 344 473>
LayerCount: 2
Fore
SplineSet
54 581 m 1,0,-1
 584 581 l 1,1,-1
 584 473 l 1,2,-1
 162 473 l 1,3,-1
 162 344 l 1,4,-1
 476 344 l 1,5,-1
 476 236 l 1,6,-1
 162 236 l 1,7,-1
 162 0 l 1,8,-1
 54 0 l 1,9,-1
 54 581 l 1,0,-1
EndSplineSet
EndChar

StartChar: five
Encoding: 53 53 140
Width: 830
Flags: MW
HStem: 0 108<151 647 187 647> 0 172<151 165 57 187 57 647> 316 108<57 59 187 647 57 59> 612 108<181 187 187 777>
VStem: 57 108<130 172 124 172 446 590> 669 108<130 294>
LayerCount: 2
Fore
SplineSet
165 590 m 2,0,-1
 165 446 l 2,1,2
 165 437 165 437 171.5 430.5 c 128,-1,3
 178 424 178 424 187 424 c 2,4,-1
 647 424 l 2,5,6
 701 424 701 424 739 386 c 128,-1,7
 777 348 777 348 777 294 c 2,8,-1
 777 130 l 2,9,10
 777 76 777 76 739 38 c 128,-1,11
 701 0 701 0 647 0 c 2,12,-1
 187 0 l 2,13,14
 133 0 133 0 95 38 c 128,-1,15
 57 76 57 76 57 130 c 2,16,-1
 57 172 l 1,17,-1
 165 172 l 1,18,-1
 165 130 l 2,19,20
 165 121 165 121 171.5 114.5 c 128,-1,21
 178 108 178 108 187 108 c 2,22,-1
 647 108 l 2,23,24
 656 108 656 108 662.5 114.5 c 128,-1,25
 669 121 669 121 669 130 c 2,26,-1
 669 294 l 2,27,28
 669 303 669 303 662.5 309.5 c 128,-1,29
 656 316 656 316 647 316 c 2,30,-1
 57 316 l 1,31,-1
 57 424 l 1,32,-1
 59 424 l 1,33,34
 57 438 57 438 57 446 c 2,35,-1
 57 720 l 1,36,-1
 777 720 l 1,37,-1
 777 612 l 1,38,-1
 187 612 l 2,39,40
 178 612 178 612 171.5 605.5 c 128,-1,41
 165 599 165 599 165 590 c 2,0,-1
EndSplineSet
EndChar

StartChar: four
Encoding: 52 52 141
Width: 730
Flags: MW
HStem: 0 21G<482 590 482 482> 183 108<163 482 6 6 590 696> 700 20G<482 590 590 590>
VStem: 482 108<0 183 0 183 291 550 550 550>
LayerCount: 2
Fore
SplineSet
590 291 m 1,0,-1
 696 291 l 1,1,-1
 696 183 l 1,2,-1
 590 183 l 1,3,-1
 590 0 l 1,4,-1
 482 0 l 1,5,-1
 482 183 l 1,6,-1
 6 183 l 1,7,-1
 6 291 l 1,8,-1
 482 720 l 1,9,-1
 590 720 l 1,10,-1
 590 291 l 1,0,-1
482 550 m 1,11,-1
 163 291 l 1,12,-1
 482 291 l 1,13,-1
 482 550 l 1,11,-1
EndSplineSet
Substitution2: "'ss03' Style Set 3 in Latin lookup 6 subtable" four.alt
Substitution2: "'aalt' Access All Alternates in Latin lookup 0 subtable" four.alt
EndChar

StartChar: four.alt
Encoding: 57351 57351 142
Width: 723
Flags: MW
HStem: 0 21G<485 593 485 485> 183 108<140 485 9 9 593 699> 700 20G<375 483 483 483>
VStem: 485 108<0 183 0 183 291 440>
LayerCount: 2
Fore
SplineSet
593 291 m 1,0,-1
 699 291 l 1,1,-1
 699 183 l 1,2,-1
 593 183 l 1,3,-1
 593 0 l 1,4,-1
 485 0 l 1,5,-1
 485 183 l 1,6,-1
 9 183 l 1,7,-1
 9 291 l 1,8,-1
 375 720 l 1,9,-1
 483 720 l 1,10,-1
 483 670 l 1,11,-1
 140 291 l 1,12,-1
 485 291 l 1,13,-1
 485 440 l 1,14,-1
 593 440 l 1,15,-1
 593 291 l 1,0,-1
EndSplineSet
EndChar

StartChar: g
Encoding: 103 103 143
Width: 683
Flags: MW
HStem: -230 108<143 501 143 501> 0 108<135 501 171 501 501 507 171 523> 472 108<165 501 171 501>
VStem: 41 108<130 450> 523 108<-100 0 0 0 130 220 220 221 221 450>
LayerCount: 2
Fore
SplineSet
631 221 m 1,0,-1
 631 220 l 1,1,-1
 631 -100 l 2,2,3
 631 -154 631 -154 593 -192 c 128,-1,4
 555 -230 555 -230 501 -230 c 2,5,-1
 143 -230 l 1,6,-1
 143 -122 l 1,7,-1
 501 -122 l 2,8,9
 510 -122 510 -122 516.5 -115.5 c 128,-1,10
 523 -109 523 -109 523 -100 c 2,11,-1
 523 0 l 1,12,-1
 171 0 l 2,13,14
 117 0 117 0 79 38 c 128,-1,15
 41 76 41 76 41 130 c 2,16,-1
 41 450 l 2,17,18
 41 504 41 504 79 542 c 128,-1,19
 117 580 117 580 171 580 c 2,20,-1
 501 580 l 2,21,22
 555 580 555 580 593 542 c 128,-1,23
 631 504 631 504 631 450 c 2,24,-1
 631 221 l 1,0,-1
171 108 m 2,25,-1
 501 108 l 2,26,27
 510 108 510 108 516.5 114.5 c 128,-1,28
 523 121 523 121 523 130 c 2,29,-1
 523 450 l 2,30,31
 523 459 523 459 516.5 465.5 c 128,-1,32
 510 472 510 472 501 472 c 2,33,-1
 171 472 l 2,34,35
 162 472 162 472 155.5 465.5 c 128,-1,36
 149 459 149 459 149 450 c 2,37,-1
 149 130 l 2,38,39
 149 121 149 121 155.5 114.5 c 128,-1,40
 162 108 162 108 171 108 c 2,25,-1
EndSplineSet
Substitution2: "'smcp' Lowercase to Small Capitals in Latin lookup 3 subtable" g.sc
Substitution2: "'aalt' Access All Alternates in Latin lookup 0 subtable" g.sc
EndChar

StartChar: g.sc
Encoding: 65564 -1 144
Width: 690
Flags: MW
HStem: 0 108<145 511 181 511> 206 108<363 533 363 641> 423 158<533 547 181 641 533 533> 473 108<175 511 181 511>
VStem: 51 108<130 451> 533 108<130 206 206 206 423 451>
LayerCount: 2
Fore
SplineSet
641 451 m 2,0,-1
 641 423 l 1,1,-1
 533 423 l 1,2,-1
 533 451 l 2,3,4
 533 460 533 460 526.5 466.5 c 128,-1,5
 520 473 520 473 511 473 c 2,6,-1
 181 473 l 2,7,8
 172 473 172 473 165.5 466.5 c 128,-1,9
 159 460 159 460 159 451 c 2,10,-1
 159 130 l 2,11,12
 159 121 159 121 165.5 114.5 c 128,-1,13
 172 108 172 108 181 108 c 2,14,-1
 511 108 l 2,15,16
 520 108 520 108 526.5 114.5 c 128,-1,17
 533 121 533 121 533 130 c 2,18,-1
 533 206 l 1,19,-1
 363 206 l 1,20,-1
 363 314 l 1,21,-1
 641 314 l 1,22,-1
 641 130 l 2,23,24
 641 76 641 76 603 38 c 128,-1,25
 565 0 565 0 511 0 c 2,26,-1
 181 0 l 2,27,28
 127 0 127 0 89 38 c 128,-1,29
 51 76 51 76 51 130 c 2,30,-1
 51 451 l 2,31,32
 51 505 51 505 89 543 c 128,-1,33
 127 581 127 581 181 581 c 2,34,-1
 511 581 l 2,35,36
 565 581 565 581 603 543 c 128,-1,37
 641 505 641 505 641 451 c 2,0,-1
EndSplineSet
EndChar

StartChar: germandbls
Encoding: 223 223 145
Width: 833
Flags: MW
HStem: 0 108<273 647 273 647> 316 97<273 647 273 647> 611 109<181 647 187 647>
VStem: 57 108<0 589 0 590 0 626> 669 108<130 294 435 446 446 589 589 595>
LayerCount: 2
Fore
SplineSet
777 612 m 1,0,-1
 777 446 l 2,1,2
 777 403 777 403 752 370 c 1,3,4
 777 337 777 337 777 294 c 2,5,-1
 777 130 l 2,6,7
 777 76 777 76 739 38 c 128,-1,8
 701 0 701 0 647 0 c 2,9,-1
 273 0 l 1,10,-1
 273 108 l 1,11,-1
 647 108 l 2,12,13
 656 108 656 108 662.5 114.5 c 128,-1,14
 669 121 669 121 669 130 c 2,15,-1
 669 294 l 2,16,17
 669 303 669 303 662.5 309.5 c 128,-1,18
 656 316 656 316 647 316 c 2,19,-1
 273 316 l 1,20,-1
 273 413 l 1,21,-1
 647 413 l 2,22,23
 656 413 656 413 662.5 419.5 c 128,-1,24
 669 426 669 426 669 435 c 2,25,-1
 669 589 l 2,26,27
 669 598 669 598 662.5 604.5 c 128,-1,28
 656 611 656 611 647 611 c 2,29,-1
 187 611 l 2,30,31
 178 611 178 611 171.5 604.5 c 128,-1,32
 165 598 165 598 165 589 c 2,33,-1
 165 0 l 1,34,-1
 57 0 l 1,35,-1
 57 590 l 2,36,37
 57 644 57 644 95 682 c 128,-1,38
 133 720 133 720 187 720 c 2,39,-1
 647 720 l 2,40,41
 695 720 695 720 732 689 c 128,-1,42
 769 658 769 658 777 612 c 1,0,-1
EndSplineSet
EndChar

StartChar: grave
Encoding: 96 96 146
Width: 213
Flags: MW
HStem: 827 162<72 140 32 180 72 72>
LayerCount: 2
Fore
SplineSet
140 989 m 1,0,-1
 180 827 l 1,1,-1
 72 827 l 1,2,-1
 32 989 l 1,3,-1
 140 989 l 1,0,-1
EndSplineSet
EndChar

StartChar: greater
Encoding: 62 62 147
Width: 475
Flags: MW
HStem: 2 21G<59 59> 565 20G<59 59>
LayerCount: 2
Fore
SplineSet
59 2 m 1,0,-1
 59 127 l 1,1,-1
 348 294 l 1,2,-1
 59 460 l 1,3,-1
 59 585 l 1,4,-1
 470 348 l 1,5,-1
 470 240 l 1,6,-1
 59 2 l 1,0,-1
EndSplineSet
EndChar

StartChar: h
Encoding: 104 104 148
Width: 668
Flags: MW
HStem: 0 21G<54 162 54 54 536 644 536 536> 472 108<178 184 184 514> 750 20G<54 162 162 162>
VStem: 54 108<0 450 580 770> 536 108<0 450 0 456>
LayerCount: 2
Fore
SplineSet
514 580 m 2,0,1
 567 580 567 580 605.5 542 c 128,-1,2
 644 504 644 504 644 450 c 2,3,-1
 644 0 l 1,4,-1
 536 0 l 1,5,-1
 536 450 l 2,6,7
 536 459 536 459 529.5 465.5 c 128,-1,8
 523 472 523 472 514 472 c 2,9,-1
 184 472 l 2,10,11
 175 472 175 472 168.5 465.5 c 128,-1,12
 162 459 162 459 162 450 c 2,13,-1
 162 0 l 1,14,-1
 54 0 l 1,15,-1
 54 770 l 1,16,-1
 162 770 l 1,17,-1
 162 580 l 1,18,-1
 514 580 l 2,0,1
EndSplineSet
Substitution2: "'smcp' Lowercase to Small Capitals in Latin lookup 3 subtable" h.sc
Substitution2: "'aalt' Access All Alternates in Latin lookup 0 subtable" h.sc
EndChar

StartChar: h.sc
Encoding: 65565 -1 149
Width: 715
Flags: MW
HStem: 0 21G<54 162 54 54 553 661 553 553> 236 108<162 553 162 553> 560 20G<54 162 162 162 553 661 661 661>
VStem: 54 108<0 236 344 580> 553 108<0 236 236 236 344 580 0 580>
LayerCount: 2
Fore
SplineSet
553 580 m 1,0,-1
 661 580 l 1,1,-1
 661 0 l 1,2,-1
 553 0 l 1,3,-1
 553 236 l 1,4,-1
 162 236 l 1,5,-1
 162 0 l 1,6,-1
 54 0 l 1,7,-1
 54 580 l 1,8,-1
 162 580 l 1,9,-1
 162 344 l 1,10,-1
 553 344 l 1,11,-1
 553 580 l 1,0,-1
EndSplineSet
EndChar

StartChar: hyphen
Encoding: 45 45 150
Width: 517
Flags: MW
HStem: 242 108<59 459 59 459>
LayerCount: 2
Fore
SplineSet
459 350 m 1,0,-1
 459 242 l 1,1,-1
 59 242 l 1,2,-1
 59 350 l 1,3,-1
 459 350 l 1,0,-1
EndSplineSet
EndChar

StartChar: i
Encoding: 105 105 151
Width: 208
Flags: MW
HStem: 0 21G<52 52 52 160> 662 108<52 160 52 160>
VStem: 52 108<0 580 0 580 662 770>
LayerCount: 2
Fore
SplineSet
52 0 m 1,0,-1
 52 580 l 1,1,-1
 160 580 l 1,2,-1
 160 0 l 1,3,-1
 52 0 l 1,0,-1
52 770 m 1,4,-1
 160 770 l 1,5,-1
 160 662 l 1,6,-1
 52 662 l 1,7,-1
 52 770 l 1,4,-1
EndSplineSet
Substitution2: "'smcp' Lowercase to Small Capitals in Latin lookup 3 subtable" i.sc
Substitution2: "'aalt' Access All Alternates in Latin lookup 0 subtable" i.sc
EndChar

StartChar: i.sc
Encoding: 65566 -1 152
Width: 214
Flags: MW
HStem: 0 21G<54 54 54 162> 560 20G<54 162 162 162>
VStem: 54 108<0 580 0 580>
LayerCount: 2
Fore
SplineSet
54 0 m 1,0,-1
 54 580 l 1,1,-1
 162 580 l 1,2,-1
 162 0 l 1,3,-1
 54 0 l 1,0,-1
EndSplineSet
EndChar

StartChar: iacute
Encoding: 237 237 153
Width: 214
Flags: MW
HStem: 0 21G<51 51 51 159> 560 20G<51 159 159 159> 718 162<49 197 89 157>
VStem: 51 108<0 580 0 580>
LayerCount: 2
Fore
SplineSet
51 0 m 1,0,-1
 51 580 l 1,1,-1
 159 580 l 1,2,-1
 159 0 l 1,3,-1
 51 0 l 1,0,-1
49 718 m 1,4,-1
 89 880 l 1,5,-1
 197 880 l 1,6,-1
 157 718 l 1,7,-1
 49 718 l 1,4,-1
EndSplineSet
EndChar

StartChar: icircumflex
Encoding: 238 238 154
Width: 214
Flags: MW
HStem: 0 21G<51 51 51 159> 560 20G<51 159 159 159> 718 21G<-15 59 -15 -15 154 154 154 229> 839 20G<70 144 144 144>
VStem: 51 108<0 580 0 580>
LayerCount: 2
Fore
SplineSet
51 0 m 1,0,-1
 51 580 l 1,1,-1
 159 580 l 1,2,-1
 159 0 l 1,3,-1
 51 0 l 1,0,-1
59 718 m 1,4,-1
 -15 718 l 1,5,-1
 70 859 l 1,6,-1
 144 859 l 1,7,-1
 229 718 l 1,8,-1
 154 718 l 1,9,-1
 107 794 l 1,10,-1
 59 718 l 1,4,-1
EndSplineSet
EndChar

StartChar: idieresis
Encoding: 239 239 155
Width: 214
Flags: MW
HStem: 0 21G<55 55 55 163> 560 20G<55 163 163 163> 720 108<-32 76 -32 76 138 246 -32 138>
VStem: -32 108<720 828 720 828> 55 108<0 580 0 580> 138 108<720 828 720 828>
LayerCount: 2
Fore
SplineSet
55 0 m 1,0,-1
 55 580 l 1,1,-1
 163 580 l 1,2,-1
 163 0 l 1,3,-1
 55 0 l 1,0,-1
246 828 m 1,4,-1
 246 720 l 1,5,-1
 138 720 l 1,6,-1
 138 828 l 1,7,-1
 246 828 l 1,4,-1
76 828 m 1,8,-1
 76 720 l 1,9,-1
 -32 720 l 1,10,-1
 -32 828 l 1,11,-1
 76 828 l 1,8,-1
EndSplineSet
EndChar

StartChar: igrave
Encoding: 236 236 156
Width: 214
Flags: MW
HStem: 0 21G<56 56 56 164> 560 20G<56 164 164 164> 719 162<56 124 16 164 56 56>
VStem: 56 108<0 580 0 580>
LayerCount: 2
Fore
SplineSet
56 0 m 1,0,-1
 56 580 l 1,1,-1
 164 580 l 1,2,-1
 164 0 l 1,3,-1
 56 0 l 1,0,-1
124 881 m 1,4,-1
 164 719 l 1,5,-1
 56 719 l 1,6,-1
 16 881 l 1,7,-1
 124 881 l 1,4,-1
EndSplineSet
EndChar

StartChar: j
Encoding: 106 106 157
Width: 239
Flags: MW
HStem: -230 108<-187 61 -187 61> 662 108<83 191 83 191>
VStem: 83 108<-100 220 220 578 662 770>
LayerCount: 2
Fore
SplineSet
83 770 m 1,0,-1
 191 770 l 1,1,-1
 191 662 l 1,2,-1
 83 662 l 1,3,-1
 83 770 l 1,0,-1
191 578 m 1,4,-1
 191 220 l 1,5,-1
 191 -100 l 2,6,7
 191 -154 191 -154 153 -192 c 128,-1,8
 115 -230 115 -230 61 -230 c 2,9,-1
 -187 -230 l 1,10,-1
 -187 -122 l 1,11,-1
 61 -122 l 2,12,13
 70 -122 70 -122 76.5 -115.5 c 128,-1,14
 83 -109 83 -109 83 -100 c 2,15,-1
 83 578 l 1,16,-1
 191 578 l 1,4,-1
EndSplineSet
Substitution2: "'smcp' Lowercase to Small Capitals in Latin lookup 3 subtable" j.sc
Substitution2: "'aalt' Access All Alternates in Latin lookup 0 subtable" j.sc
EndChar

StartChar: j.sc
Encoding: 65567 -1 158
Width: 657
Flags: MW
HStem: 0 108<99 475 135 475> 0 190<99 113 5 135 5 475> 560 20G<497 605 605 605>
VStem: 5 108<130 190 124 190> 497 108<130 580>
LayerCount: 2
Fore
SplineSet
497 130 m 2,0,-1
 497 580 l 1,1,-1
 605 580 l 1,2,-1
 605 130 l 2,3,4
 605 76 605 76 567 38 c 128,-1,5
 529 0 529 0 475 0 c 2,6,-1
 135 0 l 2,7,8
 81 0 81 0 43 38 c 128,-1,9
 5 76 5 76 5 130 c 2,10,-1
 5 190 l 1,11,-1
 113 190 l 1,12,-1
 113 130 l 2,13,14
 113 121 113 121 119.5 114.5 c 128,-1,15
 126 108 126 108 135 108 c 2,16,-1
 475 108 l 2,17,18
 484 108 484 108 490.5 114.5 c 128,-1,19
 497 121 497 121 497 130 c 2,0,-1
EndSplineSet
EndChar

StartChar: k
Encoding: 107 107 159
Width: 646
Flags: MW
HStem: 0 21G<54 162 54 54 509 637 509 509> 236 108<162 292 162 292> 750 20G<54 162 162 162>
VStem: 54 108<0 236 344 770>
LayerCount: 2
Fore
SplineSet
509 580 m 1,0,-1
 637 580 l 1,1,-1
 637 565 l 1,2,-1
 388 290 l 1,3,-1
 637 15 l 1,4,-1
 637 0 l 1,5,-1
 509 0 l 1,6,-1
 292 236 l 1,7,-1
 162 236 l 1,8,-1
 162 0 l 1,9,-1
 54 0 l 1,10,-1
 54 770 l 1,11,-1
 162 770 l 1,12,-1
 162 344 l 1,13,-1
 292 344 l 1,14,-1
 509 580 l 1,0,-1
EndSplineSet
Substitution2: "'smcp' Lowercase to Small Capitals in Latin lookup 3 subtable" k.sc
Substitution2: "'salt' Stylistic Alternatives in Latin lookup 2 subtable" k.alt
AlternateSubs2: "'aalt' Access All Alternates in Latin lookup 1 subtable" k.sc k.alt
EndChar

StartChar: k.alt
Encoding: 65568 -1 160
Width: 669
Flags: MW
HStem: 0 21G<54 162 54 54 536 644 536 536> 236 108<162 514 162 514> 750 20G<54 162 162 162>
VStem: 54 108<0 236 344 770> 536 108<0 214 0 220 366 580>
LayerCount: 2
Fore
SplineSet
644 580 m 1,0,-1
 644 366 l 2,1,2
 644 324 644 324 620 290 c 1,3,4
 644 256 644 256 644 214 c 2,5,-1
 644 0 l 1,6,-1
 536 0 l 1,7,-1
 536 214 l 2,8,9
 536 223 536 223 529.5 229.5 c 128,-1,10
 523 236 523 236 514 236 c 2,11,-1
 162 236 l 1,12,-1
 162 0 l 1,13,-1
 54 0 l 1,14,-1
 54 770 l 1,15,-1
 162 770 l 1,16,-1
 162 344 l 1,17,-1
 514 344 l 2,18,19
 523 344 523 344 529.5 350.5 c 128,-1,20
 536 357 536 357 536 366 c 2,21,-1
 536 580 l 1,22,-1
 644 580 l 1,0,-1
EndSplineSet
EndChar

StartChar: k.sc
Encoding: 65569 -1 161
Width: 682
Flags: MW
HStem: 0 21G<54 162 54 54 509 637 509 509> 236 108<162 292 162 292> 560 20G<54 162 162 162 509 637 637 637>
VStem: 54 108<0 236 344 580>
LayerCount: 2
Fore
SplineSet
509 580 m 1,0,-1
 637 580 l 1,1,-1
 637 565 l 1,2,-1
 388 290 l 1,3,-1
 637 15 l 1,4,-1
 637 0 l 1,5,-1
 509 0 l 1,6,-1
 292 236 l 1,7,-1
 162 236 l 1,8,-1
 162 0 l 1,9,-1
 54 0 l 1,10,-1
 54 580 l 1,11,-1
 162 580 l 1,12,-1
 162 344 l 1,13,-1
 292 344 l 1,14,-1
 509 580 l 1,0,-1
EndSplineSet
EndChar

StartChar: l
Encoding: 108 108 162
Width: 302
Flags: MW
HStem: 0 108<146 290 182 290> 750 20G<52 160 160 160>
VStem: 52 108<130 450 450 450 450 770> 52 238<0 450>
LayerCount: 2
Fore
SplineSet
52 450 m 1,0,-1
 52 770 l 1,1,-1
 160 770 l 1,2,-1
 160 130 l 2,3,4
 160 121 160 121 166.5 114.5 c 128,-1,5
 173 108 173 108 182 108 c 2,6,-1
 290 108 l 1,7,-1
 290 0 l 1,8,-1
 182 0 l 2,9,10
 128 0 128 0 90 38 c 128,-1,11
 52 76 52 76 52 130 c 2,12,-1
 52 450 l 1,0,-1
EndSplineSet
Substitution2: "'smcp' Lowercase to Small Capitals in Latin lookup 3 subtable" l.sc
Substitution2: "'aalt' Access All Alternates in Latin lookup 0 subtable" l.sc
EndChar

StartChar: l.sc
Encoding: 65570 -1 163
Width: 659
Flags: MW
HStem: 0 108<162 654 162 654> 560 20G<54 162 162 162>
VStem: 54 108<108 580 108 580 108 580>
LayerCount: 2
Fore
SplineSet
54 0 m 1,0,-1
 54 580 l 1,1,-1
 162 580 l 1,2,-1
 162 108 l 1,3,-1
 654 108 l 1,4,-1
 654 0 l 1,5,-1
 54 0 l 1,0,-1
EndSplineSet
EndChar

StartChar: less
Encoding: 60 60 164
Width: 473
Flags: MW
HStem: 4 21G<416 416> 567 20G<416 416>
LayerCount: 2
Fore
SplineSet
127 296 m 1,0,-1
 416 129 l 1,1,-1
 416 4 l 1,2,-1
 5 242 l 1,3,-1
 5 350 l 1,4,-1
 416 587 l 1,5,-1
 416 462 l 1,6,-1
 127 296 l 1,0,-1
EndSplineSet
EndChar

StartChar: m
Encoding: 109 109 165
Width: 978
Flags: MW
HStem: 0 21G<54 162 54 54 436 544 436 436 818 925 818 818> 472 108<178 184 184 414 560 566 566 795>
VStem: 54 108<0 450 0 580> 436 108<0 450 0 456> 818 107<0 450 0 456>
LayerCount: 2
Fore
SplineSet
795 580 m 2,0,1
 849 580 849 580 887 542 c 128,-1,2
 925 504 925 504 925 450 c 2,3,-1
 925 0 l 1,4,-1
 818 0 l 1,5,-1
 818 450 l 2,6,7
 818 459 818 459 811.5 465.5 c 128,-1,8
 805 472 805 472 795 472 c 2,9,-1
 566 472 l 2,10,11
 557 472 557 472 550.5 465.5 c 128,-1,12
 544 459 544 459 544 450 c 2,13,-1
 544 0 l 1,14,-1
 436 0 l 1,15,-1
 436 450 l 2,16,17
 436 459 436 459 429.5 465.5 c 128,-1,18
 423 472 423 472 414 472 c 2,19,-1
 184 472 l 2,20,21
 175 472 175 472 168.5 465.5 c 128,-1,22
 162 459 162 459 162 450 c 2,23,-1
 162 0 l 1,24,-1
 54 0 l 1,25,-1
 54 580 l 1,26,-1
 795 580 l 2,0,1
EndSplineSet
Substitution2: "'smcp' Lowercase to Small Capitals in Latin lookup 3 subtable" m.sc
Substitution2: "'aalt' Access All Alternates in Latin lookup 0 subtable" m.sc
EndChar

StartChar: m.sc
Encoding: 65571 -1 166
Width: 824
Flags: MW
HStem: 0 21G<54 162 54 54 662 770 662 662> 561 20G<54 182 182 182 641 770 770 770>
VStem: 54 108<0 446 0 581> 662 108<0 446 446 446>
LayerCount: 2
Fore
SplineSet
412 252 m 1,0,-1
 641 581 l 1,1,-1
 770 581 l 1,2,-1
 770 0 l 1,3,-1
 662 0 l 1,4,-1
 662 446 l 1,5,-1
 412 89 l 1,6,-1
 162 446 l 1,7,-1
 162 0 l 1,8,-1
 54 0 l 1,9,-1
 54 581 l 1,10,-1
 182 581 l 1,11,-1
 412 252 l 1,0,-1
EndSplineSet
EndChar

StartChar: minus
Encoding: 8722 8722 167
Width: 517
Flags: MW
HStem: 242 108<59 459 59 459>
LayerCount: 2
Fore
SplineSet
459 350 m 1,0,-1
 459 242 l 1,1,-1
 59 242 l 1,2,-1
 59 350 l 1,3,-1
 459 350 l 1,0,-1
EndSplineSet
EndChar

StartChar: multiply
Encoding: 215 215 168
Width: 546
Flags: MW
HStem: 90 21G<53 181 53 53 365 493 365 365> 490 20G<53 181 181 181 365 493 493 493>
LayerCount: 2
Fore
SplineSet
493 510 m 1,0,-1
 493 495 l 1,1,-1
 343 300 l 1,2,-1
 493 105 l 1,3,-1
 493 90 l 1,4,-1
 365 90 l 1,5,-1
 273 216 l 1,6,-1
 181 90 l 1,7,-1
 53 90 l 1,8,-1
 53 105 l 1,9,-1
 202 300 l 1,10,-1
 53 495 l 1,11,-1
 53 510 l 1,12,-1
 181 510 l 1,13,-1
 273 384 l 1,14,-1
 365 510 l 1,15,-1
 493 510 l 1,0,-1
EndSplineSet
EndChar

StartChar: n
Encoding: 110 110 169
Width: 696
Flags: MW
HStem: 0 21G<54 162 54 54 536 644 536 536> 472 108<178 184 184 514>
VStem: 54 108<0 450 0 580> 536 108<0 450 0 456>
LayerCount: 2
Fore
SplineSet
514 580 m 2,0,1
 568 580 568 580 606 542 c 128,-1,2
 644 504 644 504 644 450 c 2,3,-1
 644 0 l 1,4,-1
 536 0 l 1,5,-1
 536 450 l 2,6,7
 536 459 536 459 529.5 465.5 c 128,-1,8
 523 472 523 472 514 472 c 2,9,-1
 184 472 l 2,10,11
 175 472 175 472 168.5 465.5 c 128,-1,12
 162 459 162 459 162 450 c 2,13,-1
 162 0 l 1,14,-1
 54 0 l 1,15,-1
 54 580 l 1,16,-1
 514 580 l 2,0,1
EndSplineSet
Substitution2: "'smcp' Lowercase to Small Capitals in Latin lookup 3 subtable" n.sc
Substitution2: "'aalt' Access All Alternates in Latin lookup 0 subtable" n.sc
EndChar

StartChar: n.sc
Encoding: 65572 -1 170
Width: 708
Flags: MW
HStem: 0 21G<54 162 54 54 526 654 526 526> 560 20G<54 182 182 182 546 654 654 654>
VStem: 54 108<0 437 0 580> 546 108<144 580 0 580>
LayerCount: 2
Fore
SplineSet
546 144 m 1,0,-1
 546 580 l 1,1,-1
 654 580 l 1,2,-1
 654 0 l 1,3,-1
 526 0 l 1,4,-1
 162 437 l 1,5,-1
 162 0 l 1,6,-1
 54 0 l 1,7,-1
 54 580 l 1,8,-1
 182 580 l 1,9,-1
 546 144 l 1,0,-1
EndSplineSet
EndChar

StartChar: nine
Encoding: 57 57 171
Width: 828
Flags: MW
HStem: 0 108<149 181 181 641> 296 108<145 663 181 301 301 641> 612 108<175 641 181 641>
VStem: 51 108<426 590> 663 108<130 274 274 280 404 590>
LayerCount: 2
Fore
SplineSet
301 296 m 1,0,-1
 181 296 l 2,1,2
 127 296 127 296 89 334 c 128,-1,3
 51 372 51 372 51 426 c 2,4,-1
 51 590 l 2,5,6
 51 644 51 644 89 682 c 128,-1,7
 127 720 127 720 181 720 c 2,8,-1
 641 720 l 2,9,10
 695 720 695 720 733 682 c 128,-1,11
 771 644 771 644 771 590 c 2,12,-1
 771 130 l 2,13,14
 771 76 771 76 733 38 c 128,-1,15
 695 0 695 0 641 0 c 2,16,-1
 181 0 l 2,17,18
 133 0 133 0 97 31 c 128,-1,19
 61 62 61 62 53 108 c 1,20,-1
 641 108 l 2,21,22
 650 108 650 108 656.5 114.5 c 128,-1,23
 663 121 663 121 663 130 c 2,24,-1
 663 274 l 2,25,26
 663 283 663 283 656.5 289.5 c 128,-1,27
 650 296 650 296 641 296 c 2,28,-1
 301 296 l 1,0,-1
159 590 m 2,29,-1
 159 426 l 2,30,31
 159 417 159 417 165.5 410.5 c 128,-1,32
 172 404 172 404 181 404 c 2,33,-1
 663 404 l 1,34,-1
 663 590 l 2,35,36
 663 599 663 599 656.5 605.5 c 128,-1,37
 650 612 650 612 641 612 c 2,38,-1
 181 612 l 2,39,40
 172 612 172 612 165.5 605.5 c 128,-1,41
 159 599 159 599 159 590 c 2,29,-1
EndSplineSet
Substitution2: "'ss03' Style Set 3 in Latin lookup 6 subtable" nine.alt
Substitution2: "'aalt' Access All Alternates in Latin lookup 0 subtable" nine.alt
EndChar

StartChar: nine.alt
Encoding: 57347 57347 172
Width: 784
Flags: MW
HStem: 0 21G<624 732 624 652> 294 108<106 437 142 437 437 602> 610 108<136 602 142 602>
VStem: 12 108<424 588> 624 108<0 272 272 278 402 588 0 594>
LayerCount: 2
Fore
SplineSet
142 718 m 2,0,-1
 602 718 l 2,1,2
 656 718 656 718 694 680 c 128,-1,3
 732 642 732 642 732 588 c 2,4,-1
 732 0 l 1,5,-1
 624 0 l 1,6,-1
 624 272 l 2,7,8
 624 281 624 281 617.5 287.5 c 128,-1,9
 611 294 611 294 602 294 c 2,10,-1
 142 294 l 2,11,12
 88 294 88 294 50 332 c 128,-1,13
 12 370 12 370 12 424 c 2,14,-1
 12 588 l 2,15,16
 12 642 12 642 50 680 c 128,-1,17
 88 718 88 718 142 718 c 2,0,-1
437 402 m 1,18,-1
 624 402 l 1,19,-1
 624 588 l 2,20,21
 624 597 624 597 617.5 603.5 c 128,-1,22
 611 610 611 610 602 610 c 2,23,-1
 142 610 l 2,24,25
 133 610 133 610 126.5 603.5 c 128,-1,26
 120 597 120 597 120 588 c 2,27,-1
 120 424 l 2,28,29
 120 415 120 415 126.5 408.5 c 128,-1,30
 133 402 133 402 142 402 c 2,31,-1
 437 402 l 1,18,-1
EndSplineSet
EndChar

StartChar: ntilde
Encoding: 241 241 173
Width: 708
Flags: MW
HStem: 0 21G<54 162 54 54 536 644 536 536> 472 108<178 184 184 514> 720 134<237 467.5> 788 66<241 289 237 290>
VStem: 54 108<0 450 0 580> 536 108<0 450 0 456>
LayerCount: 2
Fore
SplineSet
514 580 m 2,0,1
 568 580 568 580 606 542 c 128,-1,2
 644 504 644 504 644 450 c 2,3,-1
 644 0 l 1,4,-1
 536 0 l 1,5,-1
 536 450 l 2,6,7
 536 459 536 459 529.5 465.5 c 128,-1,8
 523 472 523 472 514 472 c 2,9,-1
 184 472 l 2,10,11
 175 472 175 472 168.5 465.5 c 128,-1,12
 162 459 162 459 162 450 c 2,13,-1
 162 0 l 1,14,-1
 54 0 l 1,15,-1
 54 580 l 1,16,-1
 514 580 l 2,0,1
452 786 m 1,17,18
 491 786 491 786 530 812 c 1,19,-1
 530 738 l 1,20,21
 488 720 488 720 452 720 c 0,22,23
 417 720 417 720 354 754 c 128,-1,24
 291 788 291 788 252 788 c 0,25,26
 192 788 192 788 178 765 c 1,27,-1
 178 840 l 1,28,29
 211 854 211 854 252 854 c 0,30,31
 291 854 291 854 354.5 822 c 128,-1,32
 418 790 418 790 452 786 c 1,17,18
EndSplineSet
EndChar

StartChar: numbersign
Encoding: 35 35 174
Width: 797
Flags: MW
HStem: 0 21G<73 181 73 73 396 504 396 396> 164 108<32 123 32 157 265 446 32 231 588 734> 450 108<63 215 63 249 63 323 357 538 680 765> 697 20G<303 411 411 411 626 734 734 734>
LayerCount: 2
Fore
SplineSet
765 558 m 1,0,-1
 765 450 l 1,1,-1
 646 450 l 1,2,-1
 588 272 l 1,3,-1
 734 272 l 1,4,-1
 734 164 l 1,5,-1
 554 164 l 1,6,-1
 504 0 l 1,7,-1
 396 0 l 1,8,-1
 446 164 l 1,9,-1
 231 164 l 1,10,-1
 181 0 l 1,11,-1
 73 0 l 1,12,-1
 123 164 l 1,13,-1
 32 164 l 1,14,-1
 32 272 l 1,15,-1
 157 272 l 1,16,-1
 215 450 l 1,17,-1
 63 450 l 1,18,-1
 63 558 l 1,19,-1
 249 558 l 1,20,-1
 303 717 l 1,21,-1
 411 717 l 1,22,-1
 357 558 l 1,23,-1
 572 558 l 1,24,-1
 626 717 l 1,25,-1
 734 717 l 1,26,-1
 680 558 l 1,27,-1
 765 558 l 1,0,-1
265 272 m 1,28,-1
 480 272 l 1,29,-1
 538 450 l 1,30,-1
 323 450 l 1,31,-1
 265 272 l 1,28,-1
EndSplineSet
EndChar

StartChar: o
Encoding: 111 111 175
Width: 692
Flags: MW
HStem: 0 108<145 511 181 511> 472 108<175 511 181 511>
VStem: 51 108<130 450> 533 108<130 450>
LayerCount: 2
Fore
SplineSet
181 580 m 2,0,-1
 511 580 l 2,1,2
 565 580 565 580 603 542 c 128,-1,3
 641 504 641 504 641 450 c 2,4,-1
 641 130 l 2,5,6
 641 76 641 76 603 38 c 128,-1,7
 565 0 565 0 511 0 c 2,8,-1
 181 0 l 2,9,10
 127 0 127 0 89 38 c 128,-1,11
 51 76 51 76 51 130 c 2,12,-1
 51 450 l 2,13,14
 51 504 51 504 89 542 c 128,-1,15
 127 580 127 580 181 580 c 2,0,-1
511 472 m 2,16,-1
 181 472 l 2,17,18
 172 472 172 472 165.5 465.5 c 128,-1,19
 159 459 159 459 159 450 c 2,20,-1
 159 130 l 2,21,22
 159 121 159 121 165.5 114.5 c 128,-1,23
 172 108 172 108 181 108 c 2,24,-1
 511 108 l 2,25,26
 520 108 520 108 526.5 114.5 c 128,-1,27
 533 121 533 121 533 130 c 2,28,-1
 533 450 l 2,29,30
 533 459 533 459 526.5 465.5 c 128,-1,31
 520 472 520 472 511 472 c 2,16,-1
EndSplineSet
Substitution2: "'smcp' Lowercase to Small Capitals in Latin lookup 3 subtable" o.sc
Substitution2: "'aalt' Access All Alternates in Latin lookup 0 subtable" o.sc
EndChar

StartChar: o.sc
Encoding: 65573 -1 176
Width: 692
Flags: MW
HStem: 0 108<145 511 181 511> 472 108<175 511 181 511>
VStem: 51 108<130 450> 533 108<130 450>
LayerCount: 2
Fore
SplineSet
181 580 m 2,0,-1
 511 580 l 2,1,2
 565 580 565 580 603 542 c 128,-1,3
 641 504 641 504 641 450 c 2,4,-1
 641 130 l 2,5,6
 641 76 641 76 603 38 c 128,-1,7
 565 0 565 0 511 0 c 2,8,-1
 181 0 l 2,9,10
 127 0 127 0 89 38 c 128,-1,11
 51 76 51 76 51 130 c 2,12,-1
 51 450 l 2,13,14
 51 504 51 504 89 542 c 128,-1,15
 127 580 127 580 181 580 c 2,0,-1
181 108 m 2,16,-1
 511 108 l 2,17,18
 520 108 520 108 526.5 114.5 c 128,-1,19
 533 121 533 121 533 130 c 2,20,-1
 533 450 l 2,21,22
 533 459 533 459 526.5 465.5 c 128,-1,23
 520 472 520 472 511 472 c 2,24,-1
 181 472 l 2,25,26
 172 472 172 472 165.5 465.5 c 128,-1,27
 159 459 159 459 159 450 c 2,28,-1
 159 130 l 2,29,30
 159 121 159 121 165.5 114.5 c 128,-1,31
 172 108 172 108 181 108 c 2,16,-1
EndSplineSet
EndChar

StartChar: oacute
Encoding: 243 243 177
Width: 692
Flags: MW
HStem: 0 108<145 511 181 511> 472 108<175 511 181 511> 719 162<272 420 312 380>
VStem: 51 108<130 450> 533 108<130 450>
LayerCount: 2
Fore
SplineSet
181 580 m 2,0,-1
 511 580 l 2,1,2
 565 580 565 580 603 542 c 128,-1,3
 641 504 641 504 641 450 c 2,4,-1
 641 130 l 2,5,6
 641 76 641 76 603 38 c 128,-1,7
 565 0 565 0 511 0 c 2,8,-1
 181 0 l 2,9,10
 127 0 127 0 89 38 c 128,-1,11
 51 76 51 76 51 130 c 2,12,-1
 51 450 l 2,13,14
 51 504 51 504 89 542 c 128,-1,15
 127 580 127 580 181 580 c 2,0,-1
511 472 m 2,16,-1
 181 472 l 2,17,18
 172 472 172 472 165.5 465.5 c 128,-1,19
 159 459 159 459 159 450 c 2,20,-1
 159 130 l 2,21,22
 159 121 159 121 165.5 114.5 c 128,-1,23
 172 108 172 108 181 108 c 2,24,-1
 511 108 l 2,25,26
 520 108 520 108 526.5 114.5 c 128,-1,27
 533 121 533 121 533 130 c 2,28,-1
 533 450 l 2,29,30
 533 459 533 459 526.5 465.5 c 128,-1,31
 520 472 520 472 511 472 c 2,16,-1
272 719 m 1,32,-1
 312 881 l 1,33,-1
 420 881 l 1,34,-1
 380 719 l 1,35,-1
 272 719 l 1,32,-1
EndSplineSet
EndChar

StartChar: ocircumflex
Encoding: 244 244 178
Width: 692
Flags: MW
HStem: 0 108<145 511 181 511> 472 108<175 511 181 511> 718 21G<224 298 224 224 393 393 393 468> 839 20G<309 383 383 383>
VStem: 51 108<130 450> 533 108<130 450>
LayerCount: 2
Fore
SplineSet
181 580 m 2,0,-1
 511 580 l 2,1,2
 565 580 565 580 603 542 c 128,-1,3
 641 504 641 504 641 450 c 2,4,-1
 641 130 l 2,5,6
 641 76 641 76 603 38 c 128,-1,7
 565 0 565 0 511 0 c 2,8,-1
 181 0 l 2,9,10
 127 0 127 0 89 38 c 128,-1,11
 51 76 51 76 51 130 c 2,12,-1
 51 450 l 2,13,14
 51 504 51 504 89 542 c 128,-1,15
 127 580 127 580 181 580 c 2,0,-1
511 472 m 2,16,-1
 181 472 l 2,17,18
 172 472 172 472 165.5 465.5 c 128,-1,19
 159 459 159 459 159 450 c 2,20,-1
 159 130 l 2,21,22
 159 121 159 121 165.5 114.5 c 128,-1,23
 172 108 172 108 181 108 c 2,24,-1
 511 108 l 2,25,26
 520 108 520 108 526.5 114.5 c 128,-1,27
 533 121 533 121 533 130 c 2,28,-1
 533 450 l 2,29,30
 533 459 533 459 526.5 465.5 c 128,-1,31
 520 472 520 472 511 472 c 2,16,-1
298 718 m 1,32,-1
 224 718 l 1,33,-1
 309 859 l 1,34,-1
 383 859 l 1,35,-1
 468 718 l 1,36,-1
 393 718 l 1,37,-1
 346 794 l 1,38,-1
 298 718 l 1,32,-1
EndSplineSet
EndChar

StartChar: odieresis
Encoding: 246 246 179
Width: 692
Flags: MW
HStem: 0 108<145 511 181 511> 472 108<175 511 181 511> 720 108<207 315 207 315 377 485 207 377>
VStem: 51 108<130 450> 207 108<720 828 720 828> 377 108<720 828 720 828> 533 108<130 450>
LayerCount: 2
Fore
SplineSet
181 580 m 2,0,-1
 511 580 l 2,1,2
 565 580 565 580 603 542 c 128,-1,3
 641 504 641 504 641 450 c 2,4,-1
 641 130 l 2,5,6
 641 76 641 76 603 38 c 128,-1,7
 565 0 565 0 511 0 c 2,8,-1
 181 0 l 2,9,10
 127 0 127 0 89 38 c 128,-1,11
 51 76 51 76 51 130 c 2,12,-1
 51 450 l 2,13,14
 51 504 51 504 89 542 c 128,-1,15
 127 580 127 580 181 580 c 2,0,-1
511 472 m 2,16,-1
 181 472 l 2,17,18
 172 472 172 472 165.5 465.5 c 128,-1,19
 159 459 159 459 159 450 c 2,20,-1
 159 130 l 2,21,22
 159 121 159 121 165.5 114.5 c 128,-1,23
 172 108 172 108 181 108 c 2,24,-1
 511 108 l 2,25,26
 520 108 520 108 526.5 114.5 c 128,-1,27
 533 121 533 121 533 130 c 2,28,-1
 533 450 l 2,29,30
 533 459 533 459 526.5 465.5 c 128,-1,31
 520 472 520 472 511 472 c 2,16,-1
485 828 m 1,32,-1
 485 720 l 1,33,-1
 377 720 l 1,34,-1
 377 828 l 1,35,-1
 485 828 l 1,32,-1
315 828 m 1,36,-1
 315 720 l 1,37,-1
 207 720 l 1,38,-1
 207 828 l 1,39,-1
 315 828 l 1,36,-1
EndSplineSet
EndChar

StartChar: oe
Encoding: 339 339 180
Width: 1177
Flags: MW
HStem: 0 108<146 512 182 512 512 518 664 1124> 236 108<642 1016 642 1124 642 1016> 472 108<176 994 182 512 658 664 664 994>
VStem: 52 108<130 450> 534 108<130 236 344 450> 1016 108<344 450>
CounterMasks: 1 fc
LayerCount: 2
Fore
SplineSet
1124 236 m 1,0,-1
 642 236 l 1,1,-1
 642 130 l 2,2,3
 642 121 642 121 648.5 114.5 c 128,-1,4
 655 108 655 108 664 108 c 2,5,-1
 1124 108 l 1,6,-1
 1124 0 l 1,7,-1
 182 0 l 2,8,9
 128 0 128 0 90 38 c 128,-1,10
 52 76 52 76 52 130 c 2,11,-1
 52 450 l 2,12,13
 52 504 52 504 90 542 c 128,-1,14
 128 580 128 580 182 580 c 2,15,-1
 994 580 l 2,16,17
 1048 580 1048 580 1086 542 c 128,-1,18
 1124 504 1124 504 1124 450 c 2,19,-1
 1124 236 l 1,0,-1
664 472 m 2,20,21
 655 472 655 472 648.5 465.5 c 128,-1,22
 642 459 642 459 642 450 c 2,23,-1
 642 344 l 1,24,-1
 1016 344 l 1,25,-1
 1016 450 l 2,26,27
 1016 459 1016 459 1009.5 465.5 c 128,-1,28
 1003 472 1003 472 994 472 c 2,29,-1
 664 472 l 2,20,21
512 108 m 2,30,31
 521 108 521 108 527.5 114.5 c 128,-1,32
 534 121 534 121 534 130 c 2,33,-1
 534 450 l 2,34,35
 534 459 534 459 527.5 465.5 c 128,-1,36
 521 472 521 472 512 472 c 2,37,-1
 182 472 l 2,38,39
 173 472 173 472 166.5 465.5 c 128,-1,40
 160 459 160 459 160 450 c 2,41,-1
 160 130 l 2,42,43
 160 121 160 121 166.5 114.5 c 128,-1,44
 173 108 173 108 182 108 c 2,45,-1
 512 108 l 2,30,31
EndSplineSet
EndChar

StartChar: ograve
Encoding: 242 242 181
Width: 692
Flags: MW
HStem: 0 108<145 511 181 511> 472 108<175 511 181 511> 719 162<312 380 272 420 312 312>
VStem: 51 108<130 450> 533 108<130 450>
LayerCount: 2
Fore
SplineSet
181 580 m 2,0,-1
 511 580 l 2,1,2
 565 580 565 580 603 542 c 128,-1,3
 641 504 641 504 641 450 c 2,4,-1
 641 130 l 2,5,6
 641 76 641 76 603 38 c 128,-1,7
 565 0 565 0 511 0 c 2,8,-1
 181 0 l 2,9,10
 127 0 127 0 89 38 c 128,-1,11
 51 76 51 76 51 130 c 2,12,-1
 51 450 l 2,13,14
 51 504 51 504 89 542 c 128,-1,15
 127 580 127 580 181 580 c 2,0,-1
511 472 m 2,16,-1
 181 472 l 2,17,18
 172 472 172 472 165.5 465.5 c 128,-1,19
 159 459 159 459 159 450 c 2,20,-1
 159 130 l 2,21,22
 159 121 159 121 165.5 114.5 c 128,-1,23
 172 108 172 108 181 108 c 2,24,-1
 511 108 l 2,25,26
 520 108 520 108 526.5 114.5 c 128,-1,27
 533 121 533 121 533 130 c 2,28,-1
 533 450 l 2,29,30
 533 459 533 459 526.5 465.5 c 128,-1,31
 520 472 520 472 511 472 c 2,16,-1
380 881 m 1,32,-1
 420 719 l 1,33,-1
 312 719 l 1,34,-1
 272 881 l 1,35,-1
 380 881 l 1,32,-1
EndSplineSet
EndChar

StartChar: one
Encoding: 49 49 182
Width: 391
Flags: MW
HStem: 0 21G<225 333 225 225> 700 20G<204 333 333 333>
VStem: 225 108<0 576 576 576>
LayerCount: 2
Fore
SplineSet
1 477 m 1,0,-1
 204 720 l 1,1,-1
 333 720 l 1,2,-1
 333 0 l 1,3,-1
 225 0 l 1,4,-1
 225 576 l 1,5,-1
 142 477 l 1,6,-1
 1 477 l 1,0,-1
EndSplineSet
EndChar

StartChar: otilde
Encoding: 245 245 183
Width: 692
Flags: MW
HStem: 0 108<145 511 181 511> 472 108<175 511 181 511> 720 134<229 459.5> 788 66<233 281 229 282>
VStem: 51 108<130 450> 533 108<130 450>
LayerCount: 2
Fore
SplineSet
181 580 m 2,0,-1
 511 580 l 2,1,2
 565 580 565 580 603 542 c 128,-1,3
 641 504 641 504 641 450 c 2,4,-1
 641 130 l 2,5,6
 641 76 641 76 603 38 c 128,-1,7
 565 0 565 0 511 0 c 2,8,-1
 181 0 l 2,9,10
 127 0 127 0 89 38 c 128,-1,11
 51 76 51 76 51 130 c 2,12,-1
 51 450 l 2,13,14
 51 504 51 504 89 542 c 128,-1,15
 127 580 127 580 181 580 c 2,0,-1
511 472 m 2,16,-1
 181 472 l 2,17,18
 172 472 172 472 165.5 465.5 c 128,-1,19
 159 459 159 459 159 450 c 2,20,-1
 159 130 l 2,21,22
 159 121 159 121 165.5 114.5 c 128,-1,23
 172 108 172 108 181 108 c 2,24,-1
 511 108 l 2,25,26
 520 108 520 108 526.5 114.5 c 128,-1,27
 533 121 533 121 533 130 c 2,28,-1
 533 450 l 2,29,30
 533 459 533 459 526.5 465.5 c 128,-1,31
 520 472 520 472 511 472 c 2,16,-1
444 786 m 1,32,33
 483 786 483 786 522 812 c 1,34,-1
 522 738 l 1,35,36
 480 720 480 720 444 720 c 0,37,38
 409 720 409 720 346 754 c 128,-1,39
 283 788 283 788 244 788 c 0,40,41
 184 788 184 788 170 765 c 1,42,-1
 170 840 l 1,43,44
 203 854 203 854 244 854 c 0,45,46
 283 854 283 854 346.5 822 c 128,-1,47
 410 790 410 790 444 786 c 1,32,33
EndSplineSet
EndChar

StartChar: p
Encoding: 112 112 184
Width: 664
Flags: MW
HStem: -230 21G<54 162 54 54> 0 108<184 514 184 514 162 514> 472 108<178 184 184 514>
VStem: 54 108<-230 0 124 130 130 450> 536 108<130 450>
LayerCount: 2
Fore
SplineSet
514 580 m 2,0,1
 568 580 568 580 606 542 c 128,-1,2
 644 504 644 504 644 450 c 2,3,-1
 644 130 l 2,4,5
 644 76 644 76 606 38 c 128,-1,6
 568 0 568 0 514 0 c 2,7,-1
 162 0 l 1,8,-1
 162 -230 l 1,9,-1
 54 -230 l 1,10,-1
 54 580 l 1,11,-1
 514 580 l 2,0,1
536 130 m 2,12,-1
 536 450 l 2,13,14
 536 459 536 459 529.5 465.5 c 128,-1,15
 523 472 523 472 514 472 c 2,16,-1
 184 472 l 2,17,18
 175 472 175 472 168.5 465.5 c 128,-1,19
 162 459 162 459 162 450 c 2,20,-1
 162 130 l 2,21,22
 162 121 162 121 168.5 114.5 c 128,-1,23
 175 108 175 108 184 108 c 2,24,-1
 514 108 l 2,25,26
 523 108 523 108 529.5 114.5 c 128,-1,27
 536 121 536 121 536 130 c 2,12,-1
EndSplineSet
Substitution2: "'smcp' Lowercase to Small Capitals in Latin lookup 3 subtable" p.sc
Substitution2: "'aalt' Access All Alternates in Latin lookup 0 subtable" p.sc
EndChar

StartChar: p.sc
Encoding: 65574 -1 185
Width: 660
Flags: MW
HStem: 0 21G<54 162 54 54> 197 108<180 514 184 514> 472 108<178 184 184 514>
VStem: 54 108<0 199 321 327 327 450> 536 108<327 450>
LayerCount: 2
Fore
SplineSet
54 580 m 1,0,-1
 514 580 l 2,1,2
 568 580 568 580 606 541.5 c 128,-1,3
 644 503 644 503 644 450 c 2,4,-1
 644 327 l 2,5,6
 644 274 644 274 606 235.5 c 128,-1,7
 568 197 568 197 514 197 c 2,8,-1
 184 197 l 2,9,10
 176 197 176 197 162 199 c 1,11,-1
 162 0 l 1,12,-1
 54 0 l 1,13,-1
 54 580 l 1,0,-1
536 327 m 2,14,-1
 536 450 l 2,15,16
 536 459 536 459 529.5 465.5 c 128,-1,17
 523 472 523 472 514 472 c 2,18,-1
 184 472 l 2,19,20
 175 472 175 472 168.5 465.5 c 128,-1,21
 162 459 162 459 162 450 c 2,22,-1
 162 327 l 2,23,24
 162 318 162 318 168.5 311.5 c 128,-1,25
 175 305 175 305 184 305 c 2,26,-1
 514 305 l 2,27,28
 523 305 523 305 529.5 311.5 c 128,-1,29
 536 318 536 318 536 327 c 2,14,-1
EndSplineSet
EndChar

StartChar: paragraph
Encoding: 182 182 186
Width: 833
Flags: MW
HStem: 0 21G<459 567 459 459 668 776 668 668> 257 108<150 459 186 459 567 668> 611 108<180 776 186 459 567 567 567 668>
VStem: 56 108<387 589> 459 108<0 257 0 257 365 611> 668 108<0 257 257 257 365 611 611 611>
LayerCount: 2
Fore
SplineSet
56 589 m 2,0,1
 56 642 56 642 94 680.5 c 128,-1,2
 132 719 132 719 186 719 c 2,3,-1
 776 719 l 1,4,-1
 776 0 l 1,5,-1
 668 0 l 1,6,-1
 668 257 l 1,7,-1
 567 257 l 1,8,-1
 567 0 l 1,9,-1
 459 0 l 1,10,-1
 459 257 l 1,11,-1
 186 257 l 2,12,13
 132 257 132 257 94 295.5 c 128,-1,14
 56 334 56 334 56 387 c 2,15,-1
 56 589 l 2,0,1
567 611 m 1,16,-1
 567 365 l 1,17,-1
 668 365 l 1,18,-1
 668 611 l 1,19,-1
 567 611 l 1,16,-1
164 589 m 2,20,-1
 164 387 l 2,21,22
 164 378 164 378 170.5 371.5 c 128,-1,23
 177 365 177 365 186 365 c 2,24,-1
 459 365 l 1,25,-1
 459 611 l 1,26,-1
 186 611 l 2,27,28
 177 611 177 611 170.5 604.5 c 128,-1,29
 164 598 164 598 164 589 c 2,20,-1
EndSplineSet
EndChar

StartChar: parenleft
Encoding: 40 40 187
Width: 277
Flags: MW
HStem: 0 21G<146 182 182 224> 700 20G<182 224 224 224>
VStem: 52 108<130 590> 52 172<0 590 612 626>
LayerCount: 2
Fore
SplineSet
182 108 m 2,0,-1
 224 108 l 1,1,-1
 224 0 l 1,2,-1
 182 0 l 2,3,4
 128 0 128 0 90 38 c 128,-1,5
 52 76 52 76 52 130 c 2,6,-1
 52 590 l 2,7,8
 52 644 52 644 90 682 c 128,-1,9
 128 720 128 720 182 720 c 2,10,-1
 224 720 l 1,11,-1
 224 612 l 1,12,-1
 182 612 l 2,13,14
 173 612 173 612 166.5 605.5 c 128,-1,15
 160 599 160 599 160 590 c 2,16,-1
 160 130 l 2,17,18
 160 121 160 121 166.5 114.5 c 128,-1,19
 173 108 173 108 182 108 c 2,0,-1
EndSplineSet
EndChar

StartChar: parenright
Encoding: 41 41 188
Width: 278
Flags: MW
HStem: 0 21G<56 56 56 98> 700 20G<56 98 98 133.5>
VStem: 56 172<94 108 108 108> 120 108<130 590>
LayerCount: 2
Fore
SplineSet
56 0 m 1,0,-1
 56 108 l 1,1,-1
 98 108 l 2,2,3
 107 108 107 108 113.5 114.5 c 128,-1,4
 120 121 120 121 120 130 c 2,5,-1
 120 590 l 2,6,7
 120 599 120 599 113.5 605.5 c 128,-1,8
 107 612 107 612 98 612 c 2,9,-1
 56 612 l 1,10,-1
 56 720 l 1,11,-1
 98 720 l 2,12,13
 151 720 151 720 189.5 682 c 128,-1,14
 228 644 228 644 228 590 c 2,15,-1
 228 130 l 2,16,17
 228 76 228 76 189.5 38 c 128,-1,18
 151 0 151 0 98 0 c 2,19,-1
 56 0 l 1,0,-1
EndSplineSet
EndChar

StartChar: percent
Encoding: 37 37 189
Width: 966
Flags: MW
HStem: -20 20G<132 147 132 132> -1 88<676 696 696 786> 251 88<670 786 696 786 786 806> 380 88<158 178 178 268> 632 88<152 268 178 268 268 288>
VStem: 48 88<510 590 590 610> 310 88<490 510 510 590 474 610> 566 88<129 209 209 229> 828 88<109 129 129 209 93 229>
LayerCount: 2
Fore
SplineSet
837 720 m 1,0,-1
 852 720 l 1,1,-1
 852 592 l 1,2,-1
 147 0 l 1,3,-1
 132 0 l 1,4,-1
 132 128 l 1,5,-1
 837 720 l 1,0,-1
178 720 m 2,6,-1
 268 720 l 2,7,8
 322 720 322 720 360 682 c 128,-1,9
 398 644 398 644 398 590 c 2,10,-1
 398 510 l 2,11,12
 398 456 398 456 360 418 c 128,-1,13
 322 380 322 380 268 380 c 2,14,-1
 178 380 l 2,15,16
 124 380 124 380 86 418 c 128,-1,17
 48 456 48 456 48 510 c 2,18,-1
 48 590 l 2,19,20
 48 644 48 644 86 682 c 128,-1,21
 124 720 124 720 178 720 c 2,6,-1
158 468 m 2,22,-1
 288 468 l 2,23,24
 297 468 297 468 303.5 474.5 c 128,-1,25
 310 481 310 481 310 490 c 2,26,-1
 310 610 l 2,27,28
 310 619 310 619 303.5 625.5 c 128,-1,29
 297 632 297 632 288 632 c 2,30,-1
 158 632 l 2,31,32
 149 632 149 632 142.5 625.5 c 128,-1,33
 136 619 136 619 136 610 c 2,34,-1
 136 490 l 2,35,36
 136 481 136 481 142.5 474.5 c 128,-1,37
 149 468 149 468 158 468 c 2,22,-1
696 339 m 2,38,-1
 786 339 l 2,39,40
 840 339 840 339 878 301 c 128,-1,41
 916 263 916 263 916 209 c 2,42,-1
 916 129 l 2,43,44
 916 75 916 75 878 37 c 128,-1,45
 840 -1 840 -1 786 -1 c 2,46,-1
 696 -1 l 2,47,48
 642 -1 642 -1 604 37 c 128,-1,49
 566 75 566 75 566 129 c 2,50,-1
 566 209 l 2,51,52
 566 263 566 263 604 301 c 128,-1,53
 642 339 642 339 696 339 c 2,38,-1
676 87 m 2,54,-1
 806 87 l 2,55,56
 815 87 815 87 821.5 93.5 c 128,-1,57
 828 100 828 100 828 109 c 2,58,-1
 828 229 l 2,59,60
 828 238 828 238 821.5 244.5 c 128,-1,61
 815 251 815 251 806 251 c 2,62,-1
 676 251 l 2,63,64
 667 251 667 251 660.5 244.5 c 128,-1,65
 654 238 654 238 654 229 c 2,66,-1
 654 109 l 2,67,68
 654 100 654 100 660.5 93.5 c 128,-1,69
 667 87 667 87 676 87 c 2,54,-1
EndSplineSet
EndChar

StartChar: period
Encoding: 46 46 190
Width: 214
Flags: MW
HStem: 0 108<54 162 54 162>
VStem: 54 108<0 108 0 108>
LayerCount: 2
Fore
SplineSet
162 108 m 1,0,-1
 162 0 l 1,1,-1
 54 0 l 1,2,-1
 54 108 l 1,3,-1
 162 108 l 1,0,-1
EndSplineSet
EndChar

StartChar: plus
Encoding: 43 43 191
Width: 433
Flags: MW
HStem: 95 21G<161 269 161 161> 242 108<17 161 17 161 269 417> 475 20G<161 269 269 269>
VStem: 161 108<95 242 95 242 350 495>
LayerCount: 2
Fore
SplineSet
161 495 m 1,0,-1
 269 495 l 1,1,-1
 269 350 l 1,2,-1
 417 350 l 1,3,-1
 417 242 l 1,4,-1
 269 242 l 1,5,-1
 269 95 l 1,6,-1
 161 95 l 1,7,-1
 161 242 l 1,8,-1
 17 242 l 1,9,-1
 17 350 l 1,10,-1
 161 350 l 1,11,-1
 161 495 l 1,0,-1
EndSplineSet
EndChar

StartChar: q
Encoding: 113 113 192
Width: 664
Flags: MW
HStem: -230 21G<502 610 502 502> 0 108<114 480 150 480 480 486 150 502> 472 108<144 610 150 480>
VStem: 20 108<130 450> 502 108<-230 0 0 0 130 450 450 456>
LayerCount: 2
Fore
SplineSet
20 450 m 2,0,1
 20 504 20 504 58 542 c 128,-1,2
 96 580 96 580 150 580 c 2,3,-1
 610 580 l 1,4,-1
 610 -230 l 1,5,-1
 502 -230 l 1,6,-1
 502 0 l 1,7,-1
 150 0 l 2,8,9
 96 0 96 0 58 38 c 128,-1,10
 20 76 20 76 20 130 c 2,11,-1
 20 450 l 2,0,1
128 450 m 2,12,-1
 128 130 l 2,13,14
 128 121 128 121 134.5 114.5 c 128,-1,15
 141 108 141 108 150 108 c 2,16,-1
 480 108 l 2,17,18
 489 108 489 108 495.5 114.5 c 128,-1,19
 502 121 502 121 502 130 c 2,20,-1
 502 450 l 2,21,22
 502 459 502 459 495.5 465.5 c 128,-1,23
 489 472 489 472 480 472 c 2,24,-1
 150 472 l 2,25,26
 141 472 141 472 134.5 465.5 c 128,-1,27
 128 459 128 459 128 450 c 2,12,-1
EndSplineSet
Substitution2: "'smcp' Lowercase to Small Capitals in Latin lookup 3 subtable" q.sc
Substitution2: "'aalt' Access All Alternates in Latin lookup 0 subtable" q.sc
EndChar

StartChar: q.sc
Encoding: 65575 -1 193
Width: 770
Flags: MW
HStem: 0 108<146 512 182 512 512 518 640 732> 472 108<176 512 182 512>
VStem: 52 108<130 450> 534 108<130 450>
LayerCount: 2
Fore
SplineSet
640 108 m 1,0,-1
 732 108 l 1,1,-1
 732 0 l 1,2,-1
 182 0 l 2,3,4
 128 0 128 0 90 38 c 128,-1,5
 52 76 52 76 52 130 c 2,6,-1
 52 450 l 2,7,8
 52 504 52 504 90 542 c 128,-1,9
 128 580 128 580 182 580 c 2,10,-1
 512 580 l 2,11,12
 566 580 566 580 604 542 c 128,-1,13
 642 504 642 504 642 450 c 2,14,-1
 642 130 l 2,15,16
 642 122 642 122 640 108 c 1,0,-1
182 108 m 2,17,-1
 512 108 l 2,18,19
 521 108 521 108 527.5 114.5 c 128,-1,20
 534 121 534 121 534 130 c 2,21,-1
 534 450 l 2,22,23
 534 459 534 459 527.5 465.5 c 128,-1,24
 521 472 521 472 512 472 c 2,25,-1
 182 472 l 2,26,27
 173 472 173 472 166.5 465.5 c 128,-1,28
 160 459 160 459 160 450 c 2,29,-1
 160 130 l 2,30,31
 160 121 160 121 166.5 114.5 c 128,-1,32
 173 108 173 108 182 108 c 2,17,-1
EndSplineSet
EndChar

StartChar: question
Encoding: 63 63 194
Width: 678
Flags: MW
HStem: 0 108<139 247 139 247> 199 185<139 528 139 528> 276 108<263 528 269 528> 612 108<31 528 31 528>
VStem: 139 108<0 108 199 254> 550 108<406 590>
LayerCount: 2
Fore
SplineSet
31 720 m 1,0,-1
 528 720 l 2,1,2
 582 720 582 720 620 682 c 128,-1,3
 658 644 658 644 658 590 c 2,4,-1
 658 406 l 2,5,6
 658 352 658 352 620 314 c 128,-1,7
 582 276 582 276 528 276 c 2,8,-1
 269 276 l 2,9,10
 260 276 260 276 253.5 269.5 c 128,-1,11
 247 263 247 263 247 254 c 2,12,-1
 247 199 l 1,13,-1
 139 199 l 1,14,-1
 139 254 l 2,15,16
 139 308 139 308 177 346 c 128,-1,17
 215 384 215 384 269 384 c 2,18,-1
 528 384 l 2,19,20
 537 384 537 384 543.5 390.5 c 128,-1,21
 550 397 550 397 550 406 c 2,22,-1
 550 590 l 2,23,24
 550 599 550 599 543.5 605.5 c 128,-1,25
 537 612 537 612 528 612 c 2,26,-1
 31 612 l 1,27,-1
 31 720 l 1,0,-1
247 0 m 1,28,-1
 139 0 l 1,29,-1
 139 108 l 1,30,-1
 247 108 l 1,31,-1
 247 0 l 1,28,-1
EndSplineSet
Substitution2: "'salt' Stylistic Alternatives in Latin lookup 2 subtable" question.alt
Substitution2: "'aalt' Access All Alternates in Latin lookup 0 subtable" question.alt
EndChar

StartChar: question.alt
Encoding: 57350 57350 195
Width: 667
Flags: MW
HStem: 0 108<195 303 195 303> 151 233<195 515 195 515> 276 108<319 515 325 515> 504 216<27 515 27 515> 612 108<155 515 155 515 135 515>
VStem: 27 108<504 612 504 612> 195 108<0 108 151 254> 537 108<406 590>
LayerCount: 2
Fore
SplineSet
435 384 m 1,0,-1
 428 384 l 1,1,-1
 435 384 l 1,0,-1
155 720 m 2,2,-1
 515 720 l 2,3,4
 569 720 569 720 607 682 c 128,-1,5
 645 644 645 644 645 590 c 2,6,-1
 645 406 l 2,7,8
 645 352 645 352 607 314 c 128,-1,9
 569 276 569 276 515 276 c 2,10,-1
 325 276 l 2,11,12
 316 276 316 276 309.5 269.5 c 128,-1,13
 303 263 303 263 303 254 c 2,14,-1
 303 151 l 1,15,-1
 195 151 l 1,16,-1
 195 254 l 2,17,18
 195 308 195 308 233 346 c 128,-1,19
 271 384 271 384 325 384 c 2,20,-1
 515 384 l 2,21,22
 524 384 524 384 530.5 390.5 c 128,-1,23
 537 397 537 397 537 406 c 2,24,-1
 537 590 l 2,25,26
 537 599 537 599 530.5 605.5 c 128,-1,27
 524 612 524 612 515 612 c 2,28,-1
 135 612 l 1,29,-1
 135 504 l 1,30,-1
 27 504 l 1,31,-1
 27 612 l 1,32,33
 35 658 35 658 71 689 c 128,-1,34
 107 720 107 720 155 720 c 2,2,-1
303 0 m 1,35,-1
 195 0 l 1,36,-1
 195 108 l 1,37,-1
 303 108 l 1,38,-1
 303 0 l 1,35,-1
EndSplineSet
EndChar

StartChar: questiondown
Encoding: 191 191 196
Width: 675
Flags: MW
HStem: 0 108<113 646 149 646> 336 108<143 408 149 408> 336 191<149 538> 612 108<430 538 430 538>
VStem: 19 108<130 314> 430 108<466 527 430 527 612 720>
LayerCount: 2
Fore
SplineSet
646 0 m 1,0,-1
 149 0 l 2,1,2
 95 0 95 0 57 38 c 128,-1,3
 19 76 19 76 19 130 c 2,4,-1
 19 314 l 2,5,6
 19 368 19 368 57 406 c 128,-1,7
 95 444 95 444 149 444 c 2,8,-1
 408 444 l 2,9,10
 417 444 417 444 423.5 450.5 c 128,-1,11
 430 457 430 457 430 466 c 2,12,-1
 430 527 l 1,13,-1
 538 527 l 1,14,-1
 538 466 l 2,15,16
 538 412 538 412 500 374 c 128,-1,17
 462 336 462 336 408 336 c 2,18,-1
 149 336 l 2,19,20
 140 336 140 336 133.5 329.5 c 128,-1,21
 127 323 127 323 127 314 c 2,22,-1
 127 130 l 2,23,24
 127 121 127 121 133.5 114.5 c 128,-1,25
 140 108 140 108 149 108 c 2,26,-1
 646 108 l 1,27,-1
 646 0 l 1,0,-1
538 720 m 1,28,-1
 538 612 l 1,29,-1
 430 612 l 1,30,-1
 430 720 l 1,31,-1
 538 720 l 1,28,-1
EndSplineSet
EndChar

StartChar: quotedbl
Encoding: 34 34 197
Width: 372
Flags: MW
HStem: 557 162<59 167 59 167 59 206 206 314>
VStem: 59 108<557 719 557 719> 206 108<557 719 557 719>
LayerCount: 2
Fore
SplineSet
167 719 m 1,0,-1
 167 557 l 1,1,-1
 59 557 l 1,2,-1
 59 719 l 1,3,-1
 167 719 l 1,0,-1
314 719 m 1,4,-1
 314 557 l 1,5,-1
 206 557 l 1,6,-1
 206 719 l 1,7,-1
 314 719 l 1,4,-1
EndSplineSet
EndChar

StartChar: quotedblleft
Encoding: 8220 8220 198
Width: 378
Flags: MW
HStem: 484 21G<46 154 46 46 217 217 217 325> 700 20G<154 154 325 325>
VStem: 46 108<484 592 592 624.5> 217 108<484 592 592 624.5>
LayerCount: 2
Fore
SplineSet
154 484 m 1,0,-1
 46 484 l 1,1,-1
 46 592 l 2,2,3
 46 640 46 640 77 676 c 128,-1,4
 108 712 108 712 154 720 c 1,5,-1
 154 484 l 1,0,-1
325 484 m 1,6,-1
 217 484 l 1,7,-1
 217 592 l 2,8,9
 217 640 217 640 248 676 c 128,-1,10
 279 712 279 712 325 720 c 1,11,-1
 325 484 l 1,6,-1
EndSplineSet
EndChar

StartChar: quotedblright
Encoding: 8221 8221 199
Width: 378
Flags: MW
HStem: 484 21G<54 54 225 225> 700 20G<54 162 162 162 225 333 333 333>
VStem: 54 108<579.5 612 612 720> 225 108<579.5 612 612 720>
LayerCount: 2
Fore
SplineSet
225 720 m 1,0,-1
 333 720 l 1,1,-1
 333 612 l 2,2,3
 333 564 333 564 302 528 c 128,-1,4
 271 492 271 492 225 484 c 1,5,-1
 225 720 l 1,0,-1
54 720 m 1,6,-1
 162 720 l 1,7,-1
 162 612 l 2,8,9
 162 564 162 564 131 528 c 128,-1,10
 100 492 100 492 54 484 c 1,11,-1
 54 720 l 1,6,-1
EndSplineSet
EndChar

StartChar: quoteleft
Encoding: 8216 8216 200
Width: 194
Flags: MW
HStem: 484 21G<34 142 34 34> 700 20G<142 142>
VStem: 34 108<484 592 592 624.5>
LayerCount: 2
Fore
SplineSet
142 484 m 1,0,-1
 34 484 l 1,1,-1
 34 592 l 2,2,3
 34 640 34 640 65 676 c 128,-1,4
 96 712 96 712 142 720 c 1,5,-1
 142 484 l 1,0,-1
EndSplineSet
EndChar

StartChar: quoteright
Encoding: 8217 8217 201
Width: 193
Flags: MW
HStem: 484 21G<54 54> 700 20G<54 162 162 162>
VStem: 54 108<579.5 612 612 720>
LayerCount: 2
Fore
SplineSet
54 720 m 1,0,-1
 162 720 l 1,1,-1
 162 612 l 2,2,3
 162 564 162 564 131 528 c 128,-1,4
 100 492 100 492 54 484 c 1,5,-1
 54 720 l 1,0,-1
EndSplineSet
EndChar

StartChar: quotesingle
Encoding: 39 39 202
Width: 224
Flags: MW
HStem: 557 162<59 167 59 167>
VStem: 59 108<557 719 557 719>
LayerCount: 2
Fore
SplineSet
167 719 m 1,0,-1
 167 557 l 1,1,-1
 59 557 l 1,2,-1
 59 719 l 1,3,-1
 167 719 l 1,0,-1
EndSplineSet
EndChar

StartChar: r
Encoding: 114 114 203
Width: 512
Flags: MW
HStem: 0 21G<52 160 52 52> 472 108<176 506 182 506>
VStem: 52 108<0 130 130 450 130 130 0 486>
LayerCount: 2
Fore
SplineSet
182 580 m 2,0,-1
 506 580 l 1,1,-1
 506 472 l 1,2,-1
 182 472 l 2,3,4
 173 472 173 472 166.5 465.5 c 128,-1,5
 160 459 160 459 160 450 c 2,6,-1
 160 0 l 1,7,-1
 52 0 l 1,8,-1
 52 130 l 1,9,-1
 52 450 l 2,10,11
 52 504 52 504 90 542 c 128,-1,12
 128 580 128 580 182 580 c 2,0,-1
EndSplineSet
Substitution2: "'smcp' Lowercase to Small Capitals in Latin lookup 3 subtable" r.sc
Substitution2: "'aalt' Access All Alternates in Latin lookup 0 subtable" r.sc
EndChar

StartChar: r.sc
Encoding: 65576 -1 204
Width: 700
Flags: MW
HStem: 0 21G<54 162 54 54 526 654 526 526> 197 108<184 310 162 514 451 514 451 451> 472 108<178 184 184 514>
VStem: 54 108<0 197 321 327 327 450> 536 108<327 450>
LayerCount: 2
Fore
SplineSet
644 450 m 2,0,-1
 644 327 l 2,1,2
 644 274 644 274 606 235.5 c 128,-1,3
 568 197 568 197 514 197 c 2,4,-1
 451 197 l 1,5,-1
 654 15 l 1,6,-1
 654 0 l 1,7,-1
 526 0 l 1,8,-1
 310 197 l 1,9,-1
 162 197 l 1,10,-1
 162 0 l 1,11,-1
 54 0 l 1,12,-1
 54 580 l 1,13,-1
 514 580 l 2,14,15
 568 580 568 580 606 541.5 c 128,-1,16
 644 503 644 503 644 450 c 2,0,-1
184 305 m 2,17,-1
 514 305 l 2,18,19
 523 305 523 305 529.5 311.5 c 128,-1,20
 536 318 536 318 536 327 c 2,21,-1
 536 450 l 2,22,23
 536 459 536 459 529.5 465.5 c 128,-1,24
 523 472 523 472 514 472 c 2,25,-1
 184 472 l 2,26,27
 175 472 175 472 168.5 465.5 c 128,-1,28
 162 459 162 459 162 450 c 2,29,-1
 162 327 l 2,30,31
 162 318 162 318 168.5 311.5 c 128,-1,32
 175 305 175 305 184 305 c 2,17,-1
EndSplineSet
EndChar

StartChar: ring
Encoding: 730 730 205
Width: 233
Flags: MW
HStem: 828 40<84 89 89 145> 948 40<81.5 145 89 145 145 150>
VStem: 35 40<881 935 935 938> 159 40<878 881 881 935>
LayerCount: 2
Fore
SplineSet
89 988 m 2,0,-1
 145 988 l 2,1,2
 167 988 167 988 183 972.5 c 128,-1,3
 199 957 199 957 199 935 c 2,4,-1
 199 881 l 2,5,6
 199 859 199 859 183 843.5 c 128,-1,7
 167 828 167 828 145 828 c 2,8,-1
 89 828 l 2,9,10
 67 828 67 828 51 843.5 c 128,-1,11
 35 859 35 859 35 881 c 2,12,-1
 35 935 l 2,13,14
 35 957 35 957 51 972.5 c 128,-1,15
 67 988 67 988 89 988 c 2,0,-1
84 868 m 2,16,-1
 150 868 l 2,17,18
 159 868 159 868 159 878 c 2,19,-1
 159 938 l 2,20,21
 159 948 159 948 150 948 c 2,22,-1
 84 948 l 2,23,24
 75 948 75 948 75 938 c 2,25,-1
 75 878 l 2,26,27
 75 868 75 868 84 868 c 2,16,-1
EndSplineSet
EndChar

StartChar: s
Encoding: 115 115 206
Width: 686
Flags: MW
HStem: 0 108<142 508 178 508> 0 152<142 156 48 178 48 508> 236 108<142 508 178 508> 428 152<530 544 178 638 530 530> 472 108<172 508 178 508>
VStem: 48 108<130 152 124 152 366 450> 530 108<130 214 94 220 428 450>
LayerCount: 2
Fore
SplineSet
638 450 m 2,0,-1
 638 428 l 1,1,-1
 530 428 l 1,2,-1
 530 450 l 2,3,4
 530 459 530 459 523.5 465.5 c 128,-1,5
 517 472 517 472 508 472 c 2,6,-1
 178 472 l 2,7,8
 169 472 169 472 162.5 465.5 c 128,-1,9
 156 459 156 459 156 450 c 2,10,-1
 156 366 l 2,11,12
 156 357 156 357 162.5 350.5 c 128,-1,13
 169 344 169 344 178 344 c 2,14,-1
 508 344 l 2,15,16
 562 344 562 344 600 306 c 128,-1,17
 638 268 638 268 638 214 c 2,18,-1
 638 130 l 2,19,20
 638 76 638 76 600 38 c 128,-1,21
 562 0 562 0 508 0 c 2,22,-1
 178 0 l 2,23,24
 124 0 124 0 86 38 c 128,-1,25
 48 76 48 76 48 130 c 2,26,-1
 48 152 l 1,27,-1
 156 152 l 1,28,-1
 156 130 l 2,29,30
 156 121 156 121 162.5 114.5 c 128,-1,31
 169 108 169 108 178 108 c 2,32,-1
 508 108 l 2,33,34
 517 108 517 108 523.5 114.5 c 128,-1,35
 530 121 530 121 530 130 c 2,36,-1
 530 214 l 2,37,38
 530 223 530 223 523.5 229.5 c 128,-1,39
 517 236 517 236 508 236 c 2,40,-1
 178 236 l 2,41,42
 124 236 124 236 86 274 c 128,-1,43
 48 312 48 312 48 366 c 2,44,-1
 48 450 l 2,45,46
 48 504 48 504 86 542 c 128,-1,47
 124 580 124 580 178 580 c 2,48,-1
 508 580 l 2,49,50
 562 580 562 580 600 542 c 128,-1,51
 638 504 638 504 638 450 c 2,0,-1
EndSplineSet
Substitution2: "'smcp' Lowercase to Small Capitals in Latin lookup 3 subtable" s.sc
Substitution2: "'aalt' Access All Alternates in Latin lookup 0 subtable" s.sc
EndChar

StartChar: s.sc
Encoding: 65577 -1 207
Width: 687
Flags: MW
HStem: 0 108<143 509 179 509> 0 162<143 157 49 179 49 509> 236 108<143 509 179 509> 418 162<531 545 179 639 531 531> 472 108<173 509 179 509>
VStem: 49 108<130 162 124 162 366 450> 531 108<130 214 94 220 418 450>
LayerCount: 2
Fore
SplineSet
639 450 m 2,0,-1
 639 418 l 1,1,-1
 531 418 l 1,2,-1
 531 450 l 2,3,4
 531 459 531 459 524.5 465.5 c 128,-1,5
 518 472 518 472 509 472 c 2,6,-1
 179 472 l 2,7,8
 170 472 170 472 163.5 465.5 c 128,-1,9
 157 459 157 459 157 450 c 2,10,-1
 157 366 l 2,11,12
 157 357 157 357 163.5 350.5 c 128,-1,13
 170 344 170 344 179 344 c 2,14,-1
 509 344 l 2,15,16
 563 344 563 344 601 306 c 128,-1,17
 639 268 639 268 639 214 c 2,18,-1
 639 130 l 2,19,20
 639 76 639 76 601 38 c 128,-1,21
 563 0 563 0 509 0 c 2,22,-1
 179 0 l 2,23,24
 125 0 125 0 87 38 c 128,-1,25
 49 76 49 76 49 130 c 2,26,-1
 49 162 l 1,27,-1
 157 162 l 1,28,-1
 157 130 l 2,29,30
 157 121 157 121 163.5 114.5 c 128,-1,31
 170 108 170 108 179 108 c 2,32,-1
 509 108 l 2,33,34
 518 108 518 108 524.5 114.5 c 128,-1,35
 531 121 531 121 531 130 c 2,36,-1
 531 214 l 2,37,38
 531 223 531 223 524.5 229.5 c 128,-1,39
 518 236 518 236 509 236 c 2,40,-1
 179 236 l 2,41,42
 125 236 125 236 87 274 c 128,-1,43
 49 312 49 312 49 366 c 2,44,-1
 49 450 l 2,45,46
 49 504 49 504 87 542 c 128,-1,47
 125 580 125 580 179 580 c 2,48,-1
 509 580 l 2,49,50
 563 580 563 580 601 542 c 128,-1,51
 639 504 639 504 639 450 c 2,0,-1
EndSplineSet
EndChar

StartChar: scaron
Encoding: 353 353 208
Width: 687
Flags: MW
HStem: 0 108<142 508 178 508> 0 152<142 156 48 178 48 508> 236 108<142 508 178 508> 428 152<530 544 178 638 530 530> 472 108<172 508 178 508> 718 21G<306 380 306 306> 839 20G<221 295 295 295 390 465 465 465>
VStem: 48 108<130 152 124 152 366 450> 530 108<130 214 94 220 428 450>
LayerCount: 2
Fore
SplineSet
638 450 m 2,0,-1
 638 428 l 1,1,-1
 530 428 l 1,2,-1
 530 450 l 2,3,4
 530 459 530 459 523.5 465.5 c 128,-1,5
 517 472 517 472 508 472 c 2,6,-1
 178 472 l 2,7,8
 169 472 169 472 162.5 465.5 c 128,-1,9
 156 459 156 459 156 450 c 2,10,-1
 156 366 l 2,11,12
 156 357 156 357 162.5 350.5 c 128,-1,13
 169 344 169 344 178 344 c 2,14,-1
 508 344 l 2,15,16
 562 344 562 344 600 306 c 128,-1,17
 638 268 638 268 638 214 c 2,18,-1
 638 130 l 2,19,20
 638 76 638 76 600 38 c 128,-1,21
 562 0 562 0 508 0 c 2,22,-1
 178 0 l 2,23,24
 124 0 124 0 86 38 c 128,-1,25
 48 76 48 76 48 130 c 2,26,-1
 48 152 l 1,27,-1
 156 152 l 1,28,-1
 156 130 l 2,29,30
 156 121 156 121 162.5 114.5 c 128,-1,31
 169 108 169 108 178 108 c 2,32,-1
 508 108 l 2,33,34
 517 108 517 108 523.5 114.5 c 128,-1,35
 530 121 530 121 530 130 c 2,36,-1
 530 214 l 2,37,38
 530 223 530 223 523.5 229.5 c 128,-1,39
 517 236 517 236 508 236 c 2,40,-1
 178 236 l 2,41,42
 124 236 124 236 86 274 c 128,-1,43
 48 312 48 312 48 366 c 2,44,-1
 48 450 l 2,45,46
 48 504 48 504 86 542 c 128,-1,47
 124 580 124 580 178 580 c 2,48,-1
 508 580 l 2,49,50
 562 580 562 580 600 542 c 128,-1,51
 638 504 638 504 638 450 c 2,0,-1
221 859 m 1,52,-1
 295 859 l 1,53,-1
 343 783 l 1,54,-1
 390 859 l 1,55,-1
 465 859 l 1,56,-1
 380 718 l 1,57,-1
 306 718 l 1,58,-1
 221 859 l 1,52,-1
EndSplineSet
EndChar

StartChar: semicolon
Encoding: 59 59 209
Width: 193
Flags: MW
HStem: -128 21G<51 51> 480 108<51 159 51 159>
VStem: 51 108<-32.5 0 0 108 480 588>
LayerCount: 2
Fore
SplineSet
159 588 m 1,0,-1
 159 480 l 1,1,-1
 51 480 l 1,2,-1
 51 588 l 1,3,-1
 159 588 l 1,0,-1
51 108 m 1,4,-1
 159 108 l 1,5,-1
 159 0 l 2,6,7
 159 -48 159 -48 128 -84 c 128,-1,8
 97 -120 97 -120 51 -128 c 1,9,-1
 51 108 l 1,4,-1
EndSplineSet
EndChar

StartChar: seven
Encoding: 55 55 210
Width: 660
Flags: MW
HStem: 0 21G<495 603 495 495> 612 108<3 13 13 473 3 13>
VStem: 495 108<0 590 0 596>
LayerCount: 2
Fore
SplineSet
13 720 m 1,0,-1
 473 720 l 2,1,2
 527 720 527 720 565 682 c 128,-1,3
 603 644 603 644 603 590 c 2,4,-1
 603 0 l 1,5,-1
 495 0 l 1,6,-1
 495 590 l 2,7,8
 495 599 495 599 488.5 605.5 c 128,-1,9
 482 612 482 612 473 612 c 2,10,-1
 3 612 l 1,11,-1
 3 720 l 1,12,-1
 13 720 l 1,0,-1
EndSplineSet
Substitution2: "'ss03' Style Set 3 in Latin lookup 6 subtable" seven.alt
Substitution2: "'aalt' Access All Alternates in Latin lookup 0 subtable" seven.alt
EndChar

StartChar: seven.alt
Encoding: 57346 57346 211
Width: 771
Flags: MW
HStem: 0 21G<46 174 46 46> 612 108<46 547 46 638>
LayerCount: 2
Fore
SplineSet
46 720 m 1,0,-1
 638 720 l 1,1,-1
 766 720 l 1,2,-1
 766 705 l 1,3,-1
 174 0 l 1,4,-1
 46 0 l 1,5,-1
 46 15 l 1,6,-1
 547 612 l 1,7,-1
 46 612 l 1,8,-1
 46 720 l 1,0,-1
EndSplineSet
EndChar

StartChar: six
Encoding: 54 54 212
Width: 820
Flags: MW
HStem: 0 108<151 647 187 647> 316 108<187 527 527 647 165 527> 612 108<181 657 187 657>
VStem: 57 108<130 316 440 446 446 590> 669 108<130 294>
LayerCount: 2
Fore
SplineSet
527 424 m 1,0,-1
 647 424 l 2,1,2
 701 424 701 424 739 386 c 128,-1,3
 777 348 777 348 777 294 c 2,4,-1
 777 130 l 2,5,6
 777 76 777 76 739 38 c 128,-1,7
 701 0 701 0 647 0 c 2,8,-1
 187 0 l 2,9,10
 133 0 133 0 95 38 c 128,-1,11
 57 76 57 76 57 130 c 2,12,-1
 57 590 l 2,13,14
 57 644 57 644 95 682 c 128,-1,15
 133 720 133 720 187 720 c 2,16,-1
 657 720 l 1,17,-1
 657 612 l 1,18,-1
 187 612 l 2,19,20
 178 612 178 612 171.5 605.5 c 128,-1,21
 165 599 165 599 165 590 c 2,22,-1
 165 446 l 2,23,24
 165 437 165 437 171.5 430.5 c 128,-1,25
 178 424 178 424 187 424 c 2,26,-1
 527 424 l 1,0,-1
669 130 m 2,27,-1
 669 294 l 2,28,29
 669 303 669 303 662.5 309.5 c 128,-1,30
 656 316 656 316 647 316 c 2,31,-1
 165 316 l 1,32,-1
 165 130 l 2,33,34
 165 121 165 121 171.5 114.5 c 128,-1,35
 178 108 178 108 187 108 c 2,36,-1
 647 108 l 2,37,38
 656 108 656 108 662.5 114.5 c 128,-1,39
 669 121 669 121 669 130 c 2,27,-1
EndSplineSet
EndChar

StartChar: slash
Encoding: 47 47 213
Width: 521
Flags: MW
HStem: 0 21G<6 21 6 6> 700 20G<501 516 516 516>
LayerCount: 2
Fore
SplineSet
6 128 m 1,0,-1
 501 720 l 1,1,-1
 516 720 l 1,2,-1
 516 592 l 1,3,-1
 21 0 l 1,4,-1
 6 0 l 1,5,-1
 6 128 l 1,0,-1
EndSplineSet
EndChar

StartChar: A.alt2
Encoding: 57356 57356 214
Width: 774
Flags: MW
HStem: 0 21G<54 162 54 54 646 774 646 646> 192 108<162 394 162 484 162 394> 700 20G<54 182 182 182>
VStem: 54 108<0 192 300 576>
LayerCount: 2
Fore
SplineSet
54 720 m 1,0,-1
 182 720 l 1,1,-1
 774 15 l 1,2,-1
 774 0 l 1,3,-1
 646 0 l 1,4,-1
 484 192 l 1,5,-1
 162 192 l 1,6,-1
 162 0 l 1,7,-1
 54 0 l 1,8,-1
 54 720 l 1,0,-1
162 576 m 1,9,-1
 162 300 l 1,10,-1
 394 300 l 1,11,-1
 162 576 l 1,9,-1
EndSplineSet
EndChar

StartChar: sterling
Encoding: 163 163 215
Width: 734
Flags: MW
HStem: 0 108<39 139 247 687 39 139> 306 108<39 139 39 139 247 581> 560 160<579 593 269 687 579 579> 612 108<263 557 269 557>
VStem: 139 108<108 306 108 306 414 590>
LayerCount: 2
Fore
SplineSet
687 560 m 1,0,-1
 579 560 l 1,1,-1
 579 590 l 2,2,3
 579 599 579 599 572.5 605.5 c 128,-1,4
 566 612 566 612 557 612 c 2,5,-1
 269 612 l 2,6,7
 260 612 260 612 253.5 605.5 c 128,-1,8
 247 599 247 599 247 590 c 2,9,-1
 247 414 l 1,10,-1
 581 414 l 1,11,-1
 581 306 l 1,12,-1
 247 306 l 1,13,-1
 247 108 l 1,14,-1
 687 108 l 1,15,-1
 687 0 l 1,16,-1
 39 0 l 1,17,-1
 39 108 l 1,18,-1
 139 108 l 1,19,-1
 139 306 l 1,20,-1
 39 306 l 1,21,-1
 39 414 l 1,22,-1
 139 414 l 1,23,-1
 139 590 l 2,24,25
 139 644 139 644 177 682 c 128,-1,26
 215 720 215 720 269 720 c 2,27,-1
 557 720 l 2,28,29
 611 720 611 720 649 682 c 128,-1,30
 687 644 687 644 687 590 c 2,31,-1
 687 560 l 1,0,-1
EndSplineSet
EndChar

StartChar: t
Encoding: 116 116 216
Width: 410
Flags: MW
HStem: 0 108<147 399 183 399> 472 108<161 399 161 399> 750 20G<53 161 161 161>
VStem: 53 108<130 450 450 472 580 770 450 450>
LayerCount: 2
Fore
SplineSet
399 472 m 1,0,-1
 161 472 l 1,1,-1
 161 130 l 2,2,3
 161 121 161 121 167.5 114.5 c 128,-1,4
 174 108 174 108 183 108 c 2,5,-1
 399 108 l 1,6,-1
 399 0 l 1,7,-1
 183 0 l 2,8,9
 129 0 129 0 91 38 c 128,-1,10
 53 76 53 76 53 130 c 2,11,-1
 53 450 l 1,12,-1
 53 770 l 1,13,-1
 161 770 l 1,14,-1
 161 580 l 1,15,-1
 399 580 l 1,16,-1
 399 472 l 1,0,-1
EndSplineSet
Substitution2: "'smcp' Lowercase to Small Capitals in Latin lookup 3 subtable" t.sc
Substitution2: "'aalt' Access All Alternates in Latin lookup 0 subtable" t.sc
EndChar

StartChar: t.sc
Encoding: 65578 -1 217
Width: 644
Flags: MW
HStem: 0 21G<268 376 268 268> 472 108<22 268 22 622 376 622 376 376>
VStem: 268 108<0 472 0 472>
LayerCount: 2
Fore
SplineSet
22 580 m 1,0,-1
 622 580 l 1,1,-1
 622 472 l 1,2,-1
 376 472 l 1,3,-1
 376 0 l 1,4,-1
 268 0 l 1,5,-1
 268 472 l 1,6,-1
 22 472 l 1,7,-1
 22 580 l 1,0,-1
EndSplineSet
EndChar

StartChar: three
Encoding: 51 51 218
Width: 826
Flags: MW
HStem: 0 108<147 643 183 643> 0 160<147 161 53 183 53 643> 313 108<183 613 613 619 183 643 183 613> 550 170<53 613 53 613> 612 108<177 613 183 613>
VStem: 53 108<130 160 124 160 550 590> 635 108<443 590> 665 108<130 291>
LayerCount: 2
Fore
SplineSet
730 387 m 1,0,1
 773 349 773 349 773 291 c 2,2,-1
 773 130 l 2,3,4
 773 76 773 76 735 38 c 128,-1,5
 697 0 697 0 643 0 c 2,6,-1
 183 0 l 2,7,8
 129 0 129 0 91 38 c 128,-1,9
 53 76 53 76 53 130 c 2,10,-1
 53 160 l 1,11,-1
 161 160 l 1,12,-1
 161 130 l 2,13,14
 161 121 161 121 167.5 114.5 c 128,-1,15
 174 108 174 108 183 108 c 2,16,-1
 643 108 l 2,17,18
 652 108 652 108 658.5 114.5 c 128,-1,19
 665 121 665 121 665 130 c 2,20,-1
 665 291 l 2,21,22
 665 300 665 300 658.5 306.5 c 128,-1,23
 652 313 652 313 643 313 c 2,24,-1
 183 313 l 1,25,-1
 183 421 l 1,26,-1
 613 421 l 2,27,28
 622 421 622 421 628.5 427.5 c 128,-1,29
 635 434 635 434 635 443 c 2,30,-1
 635 590 l 2,31,32
 635 599 635 599 628.5 605.5 c 128,-1,33
 622 612 622 612 613 612 c 2,34,-1
 183 612 l 2,35,36
 174 612 174 612 167.5 605.5 c 128,-1,37
 161 599 161 599 161 590 c 2,38,-1
 161 550 l 1,39,-1
 53 550 l 1,40,-1
 53 590 l 2,41,42
 53 644 53 644 91 682 c 128,-1,43
 129 720 129 720 183 720 c 2,44,-1
 613 720 l 2,45,46
 667 720 667 720 705 682 c 128,-1,47
 743 644 743 644 743 590 c 2,48,-1
 743 443 l 2,49,50
 743 415 743 415 730 387 c 1,0,1
EndSplineSet
EndChar

StartChar: tilde
Encoding: 732 732 219
Width: 403
Flags: MW
HStem: 831 134<82 312.5> 899 66<86 134 82 135>
LayerCount: 2
Fore
SplineSet
297 897 m 1,0,1
 336 897 336 897 375 923 c 1,2,-1
 375 849 l 1,3,4
 333 831 333 831 297 831 c 0,5,6
 262 831 262 831 199 865 c 128,-1,7
 136 899 136 899 97 899 c 0,8,9
 37 899 37 899 23 876 c 1,10,-1
 23 951 l 1,11,12
 56 965 56 965 97 965 c 0,13,14
 136 965 136 965 199.5 933 c 128,-1,15
 263 901 263 901 297 897 c 1,0,1
EndSplineSet
EndChar

StartChar: two
Encoding: 50 50 220
Width: 830
Flags: MW
HStem: 0 108<187 777 187 777> 296 108<181 647 187 647> 548 172<57 647 57 647>
VStem: 57 108<124 130 130 274 548 590> 669 108<426 590>
LayerCount: 2
Fore
SplineSet
187 720 m 2,0,-1
 647 720 l 2,1,2
 701 720 701 720 739 682 c 128,-1,3
 777 644 777 644 777 590 c 2,4,-1
 777 426 l 2,5,6
 777 372 777 372 739 334 c 128,-1,7
 701 296 701 296 647 296 c 2,8,-1
 187 296 l 2,9,10
 178 296 178 296 171.5 289.5 c 128,-1,11
 165 283 165 283 165 274 c 2,12,-1
 165 130 l 2,13,14
 165 121 165 121 171.5 114.5 c 128,-1,15
 178 108 178 108 187 108 c 2,16,-1
 777 108 l 1,17,-1
 777 0 l 1,18,-1
 57 0 l 1,19,-1
 57 274 l 2,20,21
 57 328 57 328 95 366 c 128,-1,22
 133 404 133 404 187 404 c 2,23,-1
 647 404 l 2,24,25
 656 404 656 404 662.5 410.5 c 128,-1,26
 669 417 669 417 669 426 c 2,27,-1
 669 590 l 2,28,29
 669 599 669 599 662.5 605.5 c 128,-1,30
 656 612 656 612 647 612 c 2,31,-1
 187 612 l 2,32,33
 178 612 178 612 171.5 605.5 c 128,-1,34
 165 599 165 599 165 590 c 2,35,-1
 165 548 l 1,36,-1
 57 548 l 1,37,-1
 57 590 l 2,38,39
 57 644 57 644 95 682 c 128,-1,40
 133 720 133 720 187 720 c 2,0,-1
EndSplineSet
Substitution2: "'ss03' Style Set 3 in Latin lookup 6 subtable" two.alt
Substitution2: "'aalt' Access All Alternates in Latin lookup 0 subtable" two.alt
EndChar

StartChar: two.alt
Encoding: 57349 57349 221
Width: 815
Flags: MW
HStem: 0 108<157 177 177 767> 535 185<49 639 49 639> 612 108<173 639 179 639 639 659>
VStem: 49 108<108 224 535 590> 659 108<541 612>
LayerCount: 2
Fore
SplineSet
767 475 m 1,0,-1
 659 419 l 1,1,-1
 157 158 l 1,2,-1
 157 108 l 1,3,-1
 767 108 l 1,4,-1
 767 0 l 1,5,-1
 177 0 l 2,6,7
 131 0 131 0 95.5 29 c 128,-1,8
 60 58 60 58 50 102 c 1,9,-1
 49 224 l 1,10,-1
 659 541 l 1,11,-1
 659 612 l 1,12,-1
 179 612 l 2,13,14
 170 612 170 612 163.5 605.5 c 128,-1,15
 157 599 157 599 157 590 c 2,16,-1
 157 535 l 1,17,-1
 49 535 l 1,18,-1
 49 590 l 2,19,20
 49 644 49 644 87 682 c 128,-1,21
 125 720 125 720 179 720 c 2,22,-1
 639 720 l 2,23,24
 687 720 687 720 723 689 c 128,-1,25
 759 658 759 658 767 612 c 1,26,-1
 767 475 l 1,0,-1
EndSplineSet
EndChar

StartChar: u
Encoding: 117 117 222
Width: 695
Flags: MW
HStem: 0 108<147 513 183 513> 560 20G<53 161 161 161 535 643 643 643>
VStem: 53 108<130 580> 535 108<130 580>
LayerCount: 2
Fore
SplineSet
535 580 m 1,0,-1
 643 580 l 1,1,-1
 643 130 l 2,2,3
 643 76 643 76 605 38 c 128,-1,4
 567 0 567 0 513 0 c 2,5,-1
 183 0 l 2,6,7
 129 0 129 0 91 38 c 128,-1,8
 53 76 53 76 53 130 c 2,9,-1
 53 580 l 1,10,-1
 161 580 l 1,11,-1
 161 130 l 2,12,13
 161 121 161 121 167.5 114.5 c 128,-1,14
 174 108 174 108 183 108 c 2,15,-1
 513 108 l 2,16,17
 522 108 522 108 528.5 114.5 c 128,-1,18
 535 121 535 121 535 130 c 2,19,-1
 535 580 l 1,0,-1
EndSplineSet
Substitution2: "'smcp' Lowercase to Small Capitals in Latin lookup 3 subtable" u.sc
Substitution2: "'aalt' Access All Alternates in Latin lookup 0 subtable" u.sc
EndChar

StartChar: u.sc
Encoding: 65579 -1 223
Width: 695
Flags: MW
HStem: 0 108<147 513 183 513> 560 20G<53 161 161 161 535 643 643 643>
VStem: 53 108<130 580> 535 108<130 580>
LayerCount: 2
Fore
SplineSet
535 130 m 2,0,-1
 535 580 l 1,1,-1
 643 580 l 1,2,-1
 643 130 l 2,3,4
 643 76 643 76 605 38 c 128,-1,5
 567 0 567 0 513 0 c 2,6,-1
 183 0 l 2,7,8
 129 0 129 0 91 38 c 128,-1,9
 53 76 53 76 53 130 c 2,10,-1
 53 580 l 1,11,-1
 161 580 l 1,12,-1
 161 130 l 2,13,14
 161 121 161 121 167.5 114.5 c 128,-1,15
 174 108 174 108 183 108 c 2,16,-1
 513 108 l 2,17,18
 522 108 522 108 528.5 114.5 c 128,-1,19
 535 121 535 121 535 130 c 2,0,-1
EndSplineSet
EndChar

StartChar: uacute
Encoding: 250 250 224
Width: 695
Flags: MW
HStem: 0 108<147 513 183 513> 560 20G<53 161 161 161 535 643 643 643> 719 162<273 421 313 381>
VStem: 53 108<130 580> 535 108<130 580>
LayerCount: 2
Fore
SplineSet
535 580 m 1,0,-1
 643 580 l 1,1,-1
 643 130 l 2,2,3
 643 76 643 76 605 38 c 128,-1,4
 567 0 567 0 513 0 c 2,5,-1
 183 0 l 2,6,7
 129 0 129 0 91 38 c 128,-1,8
 53 76 53 76 53 130 c 2,9,-1
 53 580 l 1,10,-1
 161 580 l 1,11,-1
 161 130 l 2,12,13
 161 121 161 121 167.5 114.5 c 128,-1,14
 174 108 174 108 183 108 c 2,15,-1
 513 108 l 2,16,17
 522 108 522 108 528.5 114.5 c 128,-1,18
 535 121 535 121 535 130 c 2,19,-1
 535 580 l 1,0,-1
273 719 m 1,20,-1
 313 881 l 1,21,-1
 421 881 l 1,22,-1
 381 719 l 1,23,-1
 273 719 l 1,20,-1
EndSplineSet
EndChar

StartChar: ucircumflex
Encoding: 251 251 225
Width: 695
Flags: MW
HStem: 0 108<147 513 183 513> 560 20G<53 161 161 161 535 643 643 643> 719 21G<225 299 225 225 394 394 394 469> 840 20G<310 384 384 384>
VStem: 53 108<130 580> 535 108<130 580>
LayerCount: 2
Fore
SplineSet
535 580 m 1,0,-1
 643 580 l 1,1,-1
 643 130 l 2,2,3
 643 76 643 76 605 38 c 128,-1,4
 567 0 567 0 513 0 c 2,5,-1
 183 0 l 2,6,7
 129 0 129 0 91 38 c 128,-1,8
 53 76 53 76 53 130 c 2,9,-1
 53 580 l 1,10,-1
 161 580 l 1,11,-1
 161 130 l 2,12,13
 161 121 161 121 167.5 114.5 c 128,-1,14
 174 108 174 108 183 108 c 2,15,-1
 513 108 l 2,16,17
 522 108 522 108 528.5 114.5 c 128,-1,18
 535 121 535 121 535 130 c 2,19,-1
 535 580 l 1,0,-1
299 719 m 1,20,-1
 225 719 l 1,21,-1
 310 860 l 1,22,-1
 384 860 l 1,23,-1
 469 719 l 1,24,-1
 394 719 l 1,25,-1
 347 795 l 1,26,-1
 299 719 l 1,20,-1
EndSplineSet
EndChar

StartChar: udieresis
Encoding: 252 252 226
Width: 695
Flags: MW
HStem: 0 108<147 513 183 513> 560 20G<53 161 161 161 535 643 643 643> 718 108<208 316 208 316 378 486 208 378>
VStem: 53 108<130 580> 208 108<718 826 718 826> 378 108<718 826 718 826> 535 108<130 580>
LayerCount: 2
Fore
SplineSet
535 580 m 1,0,-1
 643 580 l 1,1,-1
 643 130 l 2,2,3
 643 76 643 76 605 38 c 128,-1,4
 567 0 567 0 513 0 c 2,5,-1
 183 0 l 2,6,7
 129 0 129 0 91 38 c 128,-1,8
 53 76 53 76 53 130 c 2,9,-1
 53 580 l 1,10,-1
 161 580 l 1,11,-1
 161 130 l 2,12,13
 161 121 161 121 167.5 114.5 c 128,-1,14
 174 108 174 108 183 108 c 2,15,-1
 513 108 l 2,16,17
 522 108 522 108 528.5 114.5 c 128,-1,18
 535 121 535 121 535 130 c 2,19,-1
 535 580 l 1,0,-1
486 826 m 1,20,-1
 486 718 l 1,21,-1
 378 718 l 1,22,-1
 378 826 l 1,23,-1
 486 826 l 1,20,-1
316 826 m 1,24,-1
 316 718 l 1,25,-1
 208 718 l 1,26,-1
 208 826 l 1,27,-1
 316 826 l 1,24,-1
EndSplineSet
EndChar

StartChar: ugrave
Encoding: 249 249 227
Width: 695
Flags: MW
HStem: 0 108<147 513 183 513> 560 20G<53 161 161 161 535 643 643 643> 719 162<313 381 273 421 313 313>
VStem: 53 108<130 580> 535 108<130 580>
LayerCount: 2
Fore
SplineSet
535 580 m 1,0,-1
 643 580 l 1,1,-1
 643 130 l 2,2,3
 643 76 643 76 605 38 c 128,-1,4
 567 0 567 0 513 0 c 2,5,-1
 183 0 l 2,6,7
 129 0 129 0 91 38 c 128,-1,8
 53 76 53 76 53 130 c 2,9,-1
 53 580 l 1,10,-1
 161 580 l 1,11,-1
 161 130 l 2,12,13
 161 121 161 121 167.5 114.5 c 128,-1,14
 174 108 174 108 183 108 c 2,15,-1
 513 108 l 2,16,17
 522 108 522 108 528.5 114.5 c 128,-1,18
 535 121 535 121 535 130 c 2,19,-1
 535 580 l 1,0,-1
381 881 m 1,20,-1
 421 719 l 1,21,-1
 313 719 l 1,22,-1
 273 881 l 1,23,-1
 381 881 l 1,20,-1
EndSplineSet
EndChar

StartChar: underscore
Encoding: 95 95 228
Width: 828
Flags: MW
HStem: -108 108<54 774 54 774>
LayerCount: 2
Fore
SplineSet
774 0 m 1,0,-1
 774 -108 l 1,1,-1
 54 -108 l 1,2,-1
 54 0 l 1,3,-1
 774 0 l 1,0,-1
EndSplineSet
EndChar

StartChar: v
Encoding: 118 118 230
Width: 790
Flags: MW
HStem: 0 21G<341 449 341 341> 560 20G<21 146 146 146 645 769 769 769>
LayerCount: 2
Fore
SplineSet
645 580 m 1,0,-1
 769 580 l 1,1,-1
 449 0 l 1,2,-1
 341 0 l 1,3,-1
 21 580 l 1,4,-1
 146 580 l 1,5,-1
 395 122 l 1,6,-1
 645 580 l 1,0,-1
EndSplineSet
Substitution2: "'smcp' Lowercase to Small Capitals in Latin lookup 3 subtable" v.sc
Substitution2: "'salt' Stylistic Alternatives in Latin lookup 2 subtable" v.alt
AlternateSubs2: "'aalt' Access All Alternates in Latin lookup 1 subtable" v.sc v.alt
EndChar

StartChar: v.alt
Encoding: 65580 -1 231
Width: 697
Flags: MW
HStem: 0 108<147 535 183 535 183 643> 560 20G<53 161 161 161 535 643 643 643>
VStem: 53 108<130 580> 535 108<108 580 0 580>
LayerCount: 2
Fore
SplineSet
535 580 m 1,0,-1
 643 580 l 1,1,-1
 643 0 l 1,2,-1
 183 0 l 2,3,4
 129 0 129 0 91 38 c 128,-1,5
 53 76 53 76 53 130 c 2,6,-1
 53 580 l 1,7,-1
 161 580 l 1,8,-1
 161 130 l 2,9,10
 161 121 161 121 167.5 114.5 c 128,-1,11
 174 108 174 108 183 108 c 2,12,-1
 535 108 l 1,13,-1
 535 580 l 1,0,-1
EndSplineSet
EndChar

StartChar: v.sc
Encoding: 65581 -1 232
Width: 801
Flags: MW
HStem: 0 21G<347 455 347 347> 560 20G<21 146 146 146 656 780 780 780>
LayerCount: 2
Fore
SplineSet
401 122 m 1,0,-1
 656 580 l 1,1,-1
 780 580 l 1,2,-1
 455 0 l 1,3,-1
 347 0 l 1,4,-1
 21 580 l 1,5,-1
 146 580 l 1,6,-1
 401 122 l 1,0,-1
EndSplineSet
EndChar

StartChar: w
Encoding: 119 119 233
Width: 1060
Flags: MW
HStem: 0 21G<263 350 263 263 351 351 730 818 730 730> 560 20G<35 150 150 150 474 597 597 597 921 1036 1036 1036>
LayerCount: 2
Fore
SplineSet
921 580 m 1,0,-1
 1036 580 l 1,1,-1
 818 0 l 1,2,-1
 730 0 l 1,3,-1
 535 431 l 1,4,-1
 351 0 l 1,5,-1
 349 1 l 1,6,-1
 350 0 l 1,7,-1
 263 0 l 1,8,-1
 35 580 l 1,9,-1
 150 580 l 1,10,-1
 307 195 l 1,11,-1
 474 580 l 1,12,-1
 597 580 l 1,13,-1
 774 195 l 1,14,-1
 921 580 l 1,0,-1
EndSplineSet
Substitution2: "'smcp' Lowercase to Small Capitals in Latin lookup 3 subtable" w.sc
Substitution2: "'salt' Stylistic Alternatives in Latin lookup 2 subtable" w.alt
AlternateSubs2: "'aalt' Access All Alternates in Latin lookup 1 subtable" w.sc w.alt
EndChar

StartChar: w.alt
Encoding: 65582 -1 234
Width: 978
Flags: MW
HStem: 0 108<147 412 183 412 412 418 564 794 794 800> 560 20G<53 160 160 160 434 542 542 542 816 924 924 924>
VStem: 53 107<130 580> 434 108<130 580> 816 108<130 580 0 580>
LayerCount: 2
Fore
SplineSet
183 0 m 2,0,1
 129 0 129 0 91 38 c 128,-1,2
 53 76 53 76 53 130 c 2,3,-1
 53 580 l 1,4,-1
 160 580 l 1,5,-1
 160 130 l 2,6,7
 160 121 160 121 166.5 114.5 c 128,-1,8
 173 108 173 108 183 108 c 2,9,-1
 412 108 l 2,10,11
 421 108 421 108 427.5 114.5 c 128,-1,12
 434 121 434 121 434 130 c 2,13,-1
 434 580 l 1,14,-1
 542 580 l 1,15,-1
 542 130 l 2,16,17
 542 121 542 121 548.5 114.5 c 128,-1,18
 555 108 555 108 564 108 c 2,19,-1
 794 108 l 2,20,21
 803 108 803 108 809.5 114.5 c 128,-1,22
 816 121 816 121 816 130 c 2,23,-1
 816 580 l 1,24,-1
 924 580 l 1,25,-1
 924 0 l 1,26,-1
 183 0 l 2,0,1
EndSplineSet
EndChar

StartChar: w.sc
Encoding: 65583 -1 235
Width: 1078
Flags: MW
HStem: 0 21G<266 353 266 266 354 354 733 821 733 733> 560 20G<34 149 149 149 481 596 596 596 928 1043 1043 1043>
LayerCount: 2
Fore
SplineSet
928 580 m 1,0,-1
 1043 580 l 1,1,-1
 821 0 l 1,2,-1
 733 0 l 1,3,-1
 538 421 l 1,4,-1
 354 0 l 1,5,-1
 352 1 l 1,6,-1
 353 0 l 1,7,-1
 266 0 l 1,8,-1
 34 580 l 1,9,-1
 149 580 l 1,10,-1
 310 195 l 1,11,-1
 481 580 l 1,12,-1
 596 580 l 1,13,-1
 777 195 l 1,14,-1
 928 580 l 1,0,-1
EndSplineSet
EndChar

StartChar: x
Encoding: 120 120 236
Width: 692
Flags: MW
HStem: 0 21G<46 174 46 46 518 646 518 518> 560 20G<46 174 174 174 518 646 646 646>
LayerCount: 2
Fore
SplineSet
518 580 m 1,0,-1
 646 580 l 1,1,-1
 646 565 l 1,2,-1
 416 295 l 1,3,-1
 646 15 l 1,4,-1
 646 0 l 1,5,-1
 518 0 l 1,6,-1
 346 211 l 1,7,-1
 174 0 l 1,8,-1
 46 0 l 1,9,-1
 46 15 l 1,10,-1
 275 295 l 1,11,-1
 46 565 l 1,12,-1
 46 580 l 1,13,-1
 174 580 l 1,14,-1
 346 379 l 1,15,-1
 518 580 l 1,0,-1
EndSplineSet
Substitution2: "'smcp' Lowercase to Small Capitals in Latin lookup 3 subtable" x.sc
Substitution2: "'salt' Stylistic Alternatives in Latin lookup 2 subtable" x.alt
AlternateSubs2: "'aalt' Access All Alternates in Latin lookup 1 subtable" x.sc x.alt
EndChar

StartChar: x.alt
Encoding: 65584 -1 237
Width: 698
Flags: MW
HStem: 0 21G<54 162 54 54 536 644 536 536> 236 108<178 514 184 514> 560 20G<54 162 162 162 536 644 644 644>
VStem: 54 108<0 214 0 228 366 580> 536 108<0 214 0 220 366 580>
LayerCount: 2
Fore
SplineSet
644 580 m 1,0,-1
 644 366 l 2,1,2
 644 324 644 324 620 290 c 1,3,4
 644 256 644 256 644 214 c 2,5,-1
 644 0 l 1,6,-1
 536 0 l 1,7,-1
 536 214 l 2,8,9
 536 223 536 223 529.5 229.5 c 128,-1,10
 523 236 523 236 514 236 c 2,11,-1
 184 236 l 2,12,13
 175 236 175 236 168.5 229.5 c 128,-1,14
 162 223 162 223 162 214 c 2,15,-1
 162 0 l 1,16,-1
 54 0 l 1,17,-1
 54 214 l 2,18,19
 54 256 54 256 78 290 c 1,20,21
 54 324 54 324 54 366 c 2,22,-1
 54 580 l 1,23,-1
 162 580 l 1,24,-1
 162 366 l 2,25,26
 162 357 162 357 168.5 350.5 c 128,-1,27
 175 344 175 344 184 344 c 2,28,-1
 514 344 l 2,29,30
 523 344 523 344 529.5 350.5 c 128,-1,31
 536 357 536 357 536 366 c 2,32,-1
 536 580 l 1,33,-1
 644 580 l 1,0,-1
EndSplineSet
EndChar

StartChar: x.sc
Encoding: 65585 -1 238
Width: 692
Flags: MW
HStem: 0 21G<46 174 46 46 518 646 518 518> 560 20G<46 174 174 174 518 646 646 646>
LayerCount: 2
Fore
SplineSet
518 580 m 1,0,-1
 646 580 l 1,1,-1
 646 565 l 1,2,-1
 416 296 l 1,3,-1
 646 15 l 1,4,-1
 646 0 l 1,5,-1
 518 0 l 1,6,-1
 346 212 l 1,7,-1
 174 0 l 1,8,-1
 46 0 l 1,9,-1
 46 15 l 1,10,-1
 275 296 l 1,11,-1
 46 565 l 1,12,-1
 46 580 l 1,13,-1
 174 580 l 1,14,-1
 346 380 l 1,15,-1
 518 580 l 1,0,-1
EndSplineSet
EndChar

StartChar: y
Encoding: 121 121 239
Width: 685
Flags: MW
HStem: -230 108<144 502 144 502> 0 108<136 502 172 502 502 508 172 524> 558 20G<42 150 150 150 524 632 632 632>
VStem: 42 108<130 578> 524 108<-100 0 0 0 130 220 220 222 222 578>
LayerCount: 2
Fore
SplineSet
632 222 m 1,0,-1
 632 220 l 1,1,-1
 632 -100 l 2,2,3
 632 -154 632 -154 594 -192 c 128,-1,4
 556 -230 556 -230 502 -230 c 2,5,-1
 144 -230 l 1,6,-1
 144 -122 l 1,7,-1
 502 -122 l 2,8,9
 511 -122 511 -122 517.5 -115.5 c 128,-1,10
 524 -109 524 -109 524 -100 c 2,11,-1
 524 0 l 1,12,-1
 172 0 l 2,13,14
 118 0 118 0 80 38 c 128,-1,15
 42 76 42 76 42 130 c 2,16,-1
 42 578 l 1,17,-1
 150 578 l 1,18,-1
 150 130 l 2,19,20
 150 121 150 121 156.5 114.5 c 128,-1,21
 163 108 163 108 172 108 c 2,22,-1
 502 108 l 2,23,24
 511 108 511 108 517.5 114.5 c 128,-1,25
 524 121 524 121 524 130 c 2,26,-1
 524 578 l 1,27,-1
 632 578 l 1,28,-1
 632 222 l 1,0,-1
EndSplineSet
Substitution2: "'smcp' Lowercase to Small Capitals in Latin lookup 3 subtable" y.sc
Substitution2: "'aalt' Access All Alternates in Latin lookup 0 subtable" y.sc
EndChar

StartChar: y.sc
Encoding: 65586 -1 240
Width: 688
Flags: MW
HStem: 0 21G<290 398 290 290> 560 20G<18 145 145 145 542 670 670 670>
VStem: 290 108<0 200 0 200>
LayerCount: 2
Fore
SplineSet
542 580 m 1,0,-1
 670 580 l 1,1,-1
 398 200 l 1,2,-1
 398 0 l 1,3,-1
 290 0 l 1,4,-1
 290 200 l 1,5,-1
 18 580 l 1,6,-1
 145 580 l 1,7,-1
 344 322 l 1,8,-1
 542 580 l 1,0,-1
EndSplineSet
EndChar

StartChar: yacute
Encoding: 253 253 241
Width: 688
Flags: MW
HStem: -230 108<144 502 144 502> 0 108<136 502 172 502 502 508 172 524> 558 20G<42 150 150 150 524 632 632 632> 719 162<270 418 310 378>
VStem: 42 108<130 578> 524 108<-100 0 0 0 130 220 220 222 222 578>
LayerCount: 2
Fore
SplineSet
632 222 m 1,0,-1
 632 220 l 1,1,-1
 632 -100 l 2,2,3
 632 -154 632 -154 594 -192 c 128,-1,4
 556 -230 556 -230 502 -230 c 2,5,-1
 144 -230 l 1,6,-1
 144 -122 l 1,7,-1
 502 -122 l 2,8,9
 511 -122 511 -122 517.5 -115.5 c 128,-1,10
 524 -109 524 -109 524 -100 c 2,11,-1
 524 0 l 1,12,-1
 172 0 l 2,13,14
 118 0 118 0 80 38 c 128,-1,15
 42 76 42 76 42 130 c 2,16,-1
 42 578 l 1,17,-1
 150 578 l 1,18,-1
 150 130 l 2,19,20
 150 121 150 121 156.5 114.5 c 128,-1,21
 163 108 163 108 172 108 c 2,22,-1
 502 108 l 2,23,24
 511 108 511 108 517.5 114.5 c 128,-1,25
 524 121 524 121 524 130 c 2,26,-1
 524 578 l 1,27,-1
 632 578 l 1,28,-1
 632 222 l 1,0,-1
270 719 m 1,29,-1
 310 881 l 1,30,-1
 418 881 l 1,31,-1
 378 719 l 1,32,-1
 270 719 l 1,29,-1
EndSplineSet
EndChar

StartChar: ydieresis
Encoding: 255 255 242
Width: 688
Flags: MW
HStem: -230 108<144 502 144 502> 0 108<136 502 172 502 502 508 172 524> 558 20G<42 150 150 150 524 632 632 632> 720 108<205 313 205 313 375 483 205 375>
VStem: 42 108<130 578> 205 108<720 828 720 828> 375 108<720 828 720 828> 524 108<-100 0 0 0 130 220 220 222 222 578>
LayerCount: 2
Fore
SplineSet
632 222 m 1,0,-1
 632 220 l 1,1,-1
 632 -100 l 2,2,3
 632 -154 632 -154 594 -192 c 128,-1,4
 556 -230 556 -230 502 -230 c 2,5,-1
 144 -230 l 1,6,-1
 144 -122 l 1,7,-1
 502 -122 l 2,8,9
 511 -122 511 -122 517.5 -115.5 c 128,-1,10
 524 -109 524 -109 524 -100 c 2,11,-1
 524 0 l 1,12,-1
 172 0 l 2,13,14
 118 0 118 0 80 38 c 128,-1,15
 42 76 42 76 42 130 c 2,16,-1
 42 578 l 1,17,-1
 150 578 l 1,18,-1
 150 130 l 2,19,20
 150 121 150 121 156.5 114.5 c 128,-1,21
 163 108 163 108 172 108 c 2,22,-1
 502 108 l 2,23,24
 511 108 511 108 517.5 114.5 c 128,-1,25
 524 121 524 121 524 130 c 2,26,-1
 524 578 l 1,27,-1
 632 578 l 1,28,-1
 632 222 l 1,0,-1
483 828 m 1,29,-1
 483 720 l 1,30,-1
 375 720 l 1,31,-1
 375 828 l 1,32,-1
 483 828 l 1,29,-1
313 828 m 1,33,-1
 313 720 l 1,34,-1
 205 720 l 1,35,-1
 205 828 l 1,36,-1
 313 828 l 1,33,-1
EndSplineSet
EndChar

StartChar: z
Encoding: 122 122 243
Width: 698
Flags: MW
HStem: 0 108<198 644 198 644> 472 108<54 644 54 500>
LayerCount: 2
Fore
SplineSet
54 472 m 1,0,-1
 54 580 l 1,1,-1
 644 580 l 1,2,-1
 644 452 l 1,3,-1
 198 108 l 1,4,-1
 644 108 l 1,5,-1
 644 0 l 1,6,-1
 54 0 l 1,7,-1
 54 128 l 1,8,-1
 500 472 l 1,9,-1
 54 472 l 1,0,-1
EndSplineSet
Substitution2: "'smcp' Lowercase to Small Capitals in Latin lookup 3 subtable" z.sc
Substitution2: "'salt' Stylistic Alternatives in Latin lookup 2 subtable" z.alt
AlternateSubs2: "'aalt' Access All Alternates in Latin lookup 1 subtable" z.sc z.alt
EndChar

StartChar: z.alt
Encoding: 65587 -1 244
Width: 692
Flags: MW
HStem: 0 108<145 641 181 641> 236 108<175 511 181 511> 472 108<51 511 51 511>
VStem: 51 108<130 214 124 250> 533 108<366 450>
CounterMasks: 1 e0
LayerCount: 2
Fore
SplineSet
181 236 m 2,0,1
 172 236 172 236 165.5 229.5 c 128,-1,2
 159 223 159 223 159 214 c 2,3,-1
 159 130 l 2,4,5
 159 121 159 121 165.5 114.5 c 128,-1,6
 172 108 172 108 181 108 c 2,7,-1
 641 108 l 1,8,-1
 641 0 l 1,9,-1
 181 0 l 2,10,11
 127 0 127 0 89 38 c 128,-1,12
 51 76 51 76 51 130 c 2,13,-1
 51 214 l 2,14,15
 51 268 51 268 89 306 c 128,-1,16
 127 344 127 344 181 344 c 2,17,-1
 511 344 l 2,18,19
 520 344 520 344 526.5 350.5 c 128,-1,20
 533 357 533 357 533 366 c 2,21,-1
 533 450 l 2,22,23
 533 459 533 459 526.5 465.5 c 128,-1,24
 520 472 520 472 511 472 c 2,25,-1
 51 472 l 1,26,-1
 51 580 l 1,27,-1
 511 580 l 2,28,29
 565 580 565 580 603 542 c 128,-1,30
 641 504 641 504 641 450 c 2,31,-1
 641 366 l 2,32,33
 641 312 641 312 603 274 c 128,-1,34
 565 236 565 236 511 236 c 2,35,-1
 181 236 l 2,0,1
EndSplineSet
EndChar

StartChar: z.sc
Encoding: 65588 -1 245
Width: 698
Flags: MW
HStem: 0 108<198 644 198 644> 472 108<54 644 54 500>
LayerCount: 2
Fore
SplineSet
54 472 m 1,0,-1
 54 580 l 1,1,-1
 644 580 l 1,2,-1
 644 452 l 1,3,-1
 198 108 l 1,4,-1
 644 108 l 1,5,-1
 644 0 l 1,6,-1
 54 0 l 1,7,-1
 54 128 l 1,8,-1
 500 472 l 1,9,-1
 54 472 l 1,0,-1
EndSplineSet
EndChar

StartChar: zcaron
Encoding: 382 382 246
Width: 698
Flags: MW
HStem: 0 108<198 644 198 644> 472 108<54 644 54 500> 721 21G<312 386 312 312> 842 20G<227 301 301 301 396 471 471 471>
LayerCount: 2
Fore
SplineSet
54 472 m 1,0,-1
 54 580 l 1,1,-1
 644 580 l 1,2,-1
 644 452 l 1,3,-1
 198 108 l 1,4,-1
 644 108 l 1,5,-1
 644 0 l 1,6,-1
 54 0 l 1,7,-1
 54 128 l 1,8,-1
 500 472 l 1,9,-1
 54 472 l 1,0,-1
227 862 m 1,10,-1
 301 862 l 1,11,-1
 349 786 l 1,12,-1
 396 862 l 1,13,-1
 471 862 l 1,14,-1
 386 721 l 1,15,-1
 312 721 l 1,16,-1
 227 862 l 1,10,-1
EndSplineSet
EndChar

StartChar: zero
Encoding: 48 48 247
Width: 834
Flags: MW
HStem: 0 108<151 647 201 647 201 647> 612 108<181 647 187 633>
VStem: 57 108<219 590 219 590 219 626> 669 108<130 501 501 501>
LayerCount: 2
Fore
SplineSet
187 720 m 2,0,-1
 647 720 l 2,1,2
 701 720 701 720 739 682 c 128,-1,3
 777 644 777 644 777 590 c 2,4,-1
 777 130 l 2,5,6
 777 76 777 76 739 38 c 128,-1,7
 701 0 701 0 647 0 c 2,8,-1
 187 0 l 2,9,10
 133 0 133 0 95 38 c 128,-1,11
 57 76 57 76 57 130 c 2,12,-1
 57 590 l 2,13,14
 57 644 57 644 95 682 c 128,-1,15
 133 720 133 720 187 720 c 2,0,-1
633 612 m 1,16,-1
 187 612 l 2,17,18
 178 612 178 612 171.5 605.5 c 128,-1,19
 165 599 165 599 165 590 c 2,20,-1
 165 219 l 1,21,-1
 633 612 l 1,16,-1
201 108 m 1,22,-1
 647 108 l 2,23,24
 656 108 656 108 662.5 114.5 c 128,-1,25
 669 121 669 121 669 130 c 2,26,-1
 669 501 l 1,27,-1
 201 108 l 1,22,-1
EndSplineSet
EndChar

StartChar: A
Encoding: 65 65 248
Width: 836
Flags: MW
HStem: 0 21G<58 166 58 58 670 778 670 670> 252 108<166 670 166 670> 612 108<182 648 188 648>
VStem: 58 108<0 252 360 590> 670 108<0 252 252 252 360 590 0 596>
LayerCount: 2
Fore
SplineSet
188 720 m 2,0,-1
 648 720 l 2,1,2
 702 720 702 720 740 682 c 128,-1,3
 778 644 778 644 778 590 c 2,4,-1
 778 0 l 1,5,-1
 670 0 l 1,6,-1
 670 252 l 1,7,-1
 166 252 l 1,8,-1
 166 0 l 1,9,-1
 58 0 l 1,10,-1
 58 590 l 2,11,12
 58 644 58 644 96 682 c 128,-1,13
 134 720 134 720 188 720 c 2,0,-1
166 360 m 1,14,-1
 670 360 l 1,15,-1
 670 590 l 2,16,17
 670 599 670 599 663.5 605.5 c 128,-1,18
 657 612 657 612 648 612 c 2,19,-1
 188 612 l 2,20,21
 179 612 179 612 172.5 605.5 c 128,-1,22
 166 599 166 599 166 590 c 2,23,-1
 166 360 l 1,14,-1
EndSplineSet
Substitution2: "'ss02' Style Set 2 in Latin lookup 5 subtable" A.alt2
Substitution2: "'ss01' Style Set 1 in Latin lookup 4 subtable" A.alt
AlternateSubs2: "'aalt' Access All Alternates in Latin lookup 1 subtable" A.alt A.alt2
EndChar
